<svg width="100" height="100" viewBox="0 0 100 100" fill="none" xmlns="http://www.w3.org/2000/svg">
<g clip-path="url(#clip0)">
<path d="M92.8656 34.5516C92.4612 31.5117 92.4042 26.2759 95.2277 24.5178C95.2781 24.4856 95.3157 24.439 95.3599 24.399C97.6683 23.6607 99.2658 22.6245 98.0118 21.2302L63.9596 10.97L8.82146 18.6359C8.82146 18.6359 2.50744 19.5384 3.07149 29.348C3.37768 34.6871 5.05221 37.3091 6.51664 38.5996L1.99204 39.9631C0.736224 41.3574 2.33345 42.3939 4.64216 43.131C4.68603 43.1722 4.72303 43.2185 4.77436 43.2507C7.59608 45.0103 7.54176 50.2455 7.13589 53.286C-3.00109 56.1644 0.63774 57.1024 0.63774 57.1024L2.86139 57.6405C1.29728 59.0539 -0.256076 61.7341 0.034899 66.8174C0.599242 76.6252 5.78547 77.3021 5.78547 77.3021L41.8676 89.0301L96.3292 75.8386C96.3292 75.8386 99.9693 74.8991 89.8296 72.0204C89.4219 68.9846 89.3652 63.7501 92.1935 61.986C92.2454 61.9547 92.2833 61.9072 92.3254 61.8678C94.6341 61.1295 96.2301 60.0942 94.9758 58.6999L92.6086 57.9852C94.1873 57.0331 96.5587 54.5451 96.9303 48.0821C97.1866 43.6366 96.0269 41.033 94.6845 39.5003L99.3634 38.368C99.3634 38.368 103.004 37.4303 92.8656 34.5516ZM47.3117 34.4259L56.4701 32.5437L87.4203 26.1834L92.0314 25.235C90.5581 27.9316 90.6199 31.6221 90.8637 33.9941C90.9171 34.5307 90.9786 35.0207 91.0383 35.3932L85.9911 36.6481L46.9267 46.3661L47.3117 34.4259ZM7.97091 43.9708L12.5815 44.9193L42.3048 51.0295L44.9015 51.5613L52.6886 53.1618L53.0727 65.1023L12.9229 55.1133L8.96471 54.1296C9.0229 53.7566 9.08438 53.2672 9.14019 52.7291C9.38252 50.3589 9.44549 46.6675 7.97091 43.9708ZM6.1797 28.8759C6.12389 26.2667 6.58886 24.3796 7.52863 23.4205C8.1267 22.8081 8.8325 22.6806 9.31656 22.6806C9.57232 22.6806 9.75646 22.7162 9.76899 22.7162L33.5266 30.4615L45.3796 34.326L44.9907 46.3497L11.7384 37.0271L9.98357 36.5356C9.91911 36.5174 9.83167 36.5048 9.76422 36.5019C9.62724 36.492 6.33966 36.1894 6.1797 28.8759ZM41.9535 83.8209L6.94728 74.0065C6.88252 73.9876 6.79597 73.9751 6.72853 73.9718C6.58916 73.9626 3.30009 73.6603 3.14102 66.3486C3.08432 63.736 3.55167 61.8508 4.48966 60.8907C5.08921 60.2783 5.79532 60.1509 6.27848 60.1509C6.53484 60.1509 6.71838 60.1852 6.73181 60.1852L42.34 71.7968L41.9535 83.8209ZM87.8247 71.4635C87.8799 72.0018 87.9414 72.491 88.0011 72.864L43.8886 83.8379L44.2742 71.8974L53.7051 69.9585L55.0979 70.2954L60.3181 68.5988L84.3813 63.654L88.9943 62.7049C87.5194 65.4013 87.5806 69.0933 87.8247 71.4635ZM90.2546 55.236C90.1743 55.2377 90.094 55.2485 90.0185 55.2724L86.6915 56.2038L55.0131 65.0865L54.6258 53.0627L65.0191 49.6728L90.1853 41.4655C90.1886 41.464 91.5092 41.1706 92.4785 42.1564C93.4168 43.1155 93.8823 45.0025 93.8274 47.6118C93.6633 54.9229 90.3742 55.2267 90.2546 55.236Z" fill="black"/>
</g>
<defs>
<clipPath id="clip0">
<rect width="100" height="100" fill="white"/>
</clipPath>
</defs>
</svg>
