<svg width="51" height="51" viewBox="0 0 51 51" fill="none" xmlns="http://www.w3.org/2000/svg">
	<path d="M3.77128 8.004C3.69928 7.908 3.66328 7.788 3.66328 7.644C3.66328 7.436 3.76728 7.26 3.97528 7.116C4.08728 7.044 4.20328 7.008 4.32328 7.008C4.49128 7.008 4.65128 7.084 4.80328 7.236C5.04328 7.484 5.29128 7.668 5.54728 7.788C5.81128 7.908 6.12728 7.968 6.49528 7.968C7.11928 7.944 7.43128 7.708 7.43128 7.26C7.43128 7.028 7.32328 6.852 7.10728 6.732C6.89928 6.612 6.57128 6.492 6.12328 6.372C5.65928 6.244 5.27928 6.116 4.98328 5.988C4.69528 5.86 4.44328 5.668 4.22728 5.412C4.01928 5.148 3.91528 4.796 3.91528 4.356C3.91528 3.972 4.02328 3.64 4.23928 3.36C4.46328 3.072 4.75128 2.852 5.10328 2.7C5.46328 2.54 5.84328 2.46 6.24328 2.46C6.65128 2.46 7.05928 2.536 7.46728 2.688C7.87528 2.84 8.19528 3.064 8.42728 3.36C8.53128 3.488 8.58328 3.632 8.58328 3.792C8.58328 3.976 8.50728 4.128 8.35528 4.248C8.24328 4.336 8.11528 4.38 7.97128 4.38C7.79528 4.38 7.65128 4.324 7.53928 4.212C7.39528 4.036 7.20728 3.896 6.97528 3.792C6.75128 3.688 6.49528 3.636 6.20728 3.636C5.59928 3.636 5.29528 3.856 5.29528 4.296C5.29528 4.472 5.35128 4.616 5.46328 4.728C5.57528 4.832 5.71528 4.916 5.88328 4.98C6.05928 5.036 6.30328 5.108 6.61528 5.196C7.04728 5.316 7.40728 5.44 7.69528 5.568C7.98328 5.696 8.22728 5.892 8.42728 6.156C8.62728 6.42 8.72728 6.768 8.72728 7.2C8.72728 7.592 8.61128 7.936 8.37928 8.232C8.14728 8.52 7.84728 8.74 7.47928 8.892C7.11928 9.044 6.74728 9.12 6.36328 9.12C5.83528 9.12 5.34328 9.032 4.88728 8.856C4.43128 8.68 4.05928 8.396 3.77128 8.004ZM12.7283 2.46C13.4083 2.46 13.9563 2.568 14.3723 2.784C14.7883 2.992 14.9963 3.272 14.9963 3.624C14.9963 3.8 14.9443 3.956 14.8403 4.092C14.7363 4.22 14.6003 4.284 14.4323 4.284C14.3043 4.284 14.2003 4.268 14.1203 4.236C14.0403 4.196 13.9603 4.148 13.8803 4.092C13.8083 4.028 13.7363 3.976 13.6643 3.936C13.5843 3.896 13.4643 3.86 13.3043 3.828C13.1523 3.796 13.0283 3.78 12.9323 3.78C12.3323 3.78 11.8603 3.968 11.5163 4.344C11.1803 4.712 11.0123 5.196 11.0123 5.796C11.0123 6.372 11.1843 6.852 11.5283 7.236C11.8723 7.612 12.3123 7.8 12.8483 7.8C13.2403 7.8 13.5323 7.752 13.7243 7.656C13.7723 7.632 13.8363 7.592 13.9163 7.536C14.0043 7.472 14.0843 7.424 14.1563 7.392C14.2283 7.36 14.3163 7.344 14.4203 7.344C14.6203 7.344 14.7763 7.408 14.8883 7.536C15.0083 7.664 15.0683 7.828 15.0683 8.028C15.0683 8.22 14.9563 8.4 14.7323 8.568C14.5083 8.736 14.2123 8.872 13.8443 8.976C13.4763 9.072 13.0843 9.12 12.6683 9.12C12.0523 9.12 11.5083 8.976 11.0363 8.688C10.5723 8.4 10.2123 8.004 9.95634 7.5C9.70034 6.988 9.57234 6.42 9.57234 5.796C9.57234 5.148 9.70434 4.572 9.96834 4.068C10.2403 3.564 10.6163 3.172 11.0963 2.892C11.5763 2.604 12.1203 2.46 12.7283 2.46ZM17.4641 8.268C17.4641 8.476 17.3961 8.652 17.2601 8.796C17.1241 8.932 16.9521 9 16.7441 9C16.5361 9 16.3641 8.932 16.2281 8.796C16.0921 8.652 16.0241 8.476 16.0241 8.268V3.312C16.0241 3.104 16.0921 2.932 16.2281 2.796C16.3641 2.652 16.5361 2.58 16.7441 2.58C16.9521 2.58 17.1241 2.652 17.2601 2.796C17.3961 2.932 17.4641 3.104 17.4641 3.312V8.268ZM16.7321 1.8C16.4601 1.8 16.2681 1.756 16.1561 1.668C16.0441 1.58 15.9881 1.424 15.9881 1.2V0.972C15.9881 0.748 16.0481 0.592 16.1681 0.504C16.2881 0.416 16.4801 0.372 16.7441 0.372C17.0241 0.372 17.2201 0.416 17.3321 0.504C17.4441 0.592 17.5001 0.748 17.5001 0.972V1.2C17.5001 1.432 17.4401 1.592 17.3201 1.68C17.2081 1.76 17.0121 1.8 16.7321 1.8ZM24.7041 5.64C24.6961 5.832 24.6201 5.988 24.4761 6.108C24.3321 6.228 24.1641 6.288 23.9721 6.288H20.0121C20.1081 6.76 20.3281 7.132 20.6721 7.404C21.0161 7.668 21.4041 7.8 21.8361 7.8C22.1641 7.8 22.4201 7.772 22.6041 7.716C22.7881 7.652 22.9321 7.588 23.0361 7.524C23.1481 7.452 23.2241 7.404 23.2641 7.38C23.4081 7.308 23.5441 7.272 23.6721 7.272C23.8401 7.272 23.9841 7.332 24.1041 7.452C24.2241 7.572 24.2841 7.712 24.2841 7.872C24.2841 8.088 24.1721 8.284 23.9481 8.46C23.7241 8.644 23.4241 8.8 23.0481 8.928C22.6721 9.056 22.2921 9.12 21.9081 9.12C21.2361 9.12 20.6481 8.98 20.1441 8.7C19.6481 8.42 19.2641 8.036 18.9921 7.548C18.7201 7.052 18.5841 6.496 18.5841 5.88C18.5841 5.192 18.7281 4.588 19.0161 4.068C19.3041 3.548 19.6841 3.152 20.1561 2.88C20.6281 2.6 21.1321 2.46 21.6681 2.46C22.1961 2.46 22.6921 2.604 23.1561 2.892C23.6281 3.18 24.0041 3.568 24.2841 4.056C24.5641 4.544 24.7041 5.072 24.7041 5.64ZM21.6681 3.78C20.7401 3.78 20.1921 4.216 20.0241 5.088H23.1681V5.004C23.1361 4.668 22.9721 4.38 22.6761 4.14C22.3801 3.9 22.0441 3.78 21.6681 3.78ZM29.337 2.46C30.153 2.46 30.717 2.704 31.029 3.192C31.341 3.672 31.497 4.34 31.497 5.196V8.268C31.497 8.476 31.429 8.652 31.293 8.796C31.157 8.932 30.985 9 30.777 9C30.569 9 30.397 8.932 30.261 8.796C30.125 8.652 30.057 8.476 30.057 8.268V5.196C30.057 4.756 29.965 4.412 29.781 4.164C29.597 3.908 29.281 3.78 28.833 3.78C28.369 3.78 28.005 3.916 27.741 4.188C27.477 4.452 27.345 4.788 27.345 5.196V8.268C27.345 8.476 27.277 8.652 27.141 8.796C27.005 8.932 26.833 9 26.625 9C26.417 9 26.245 8.932 26.109 8.796C25.973 8.652 25.905 8.476 25.905 8.268V3.312C25.905 3.104 25.973 2.932 26.109 2.796C26.245 2.652 26.417 2.58 26.625 2.58C26.833 2.58 27.005 2.652 27.141 2.796C27.277 2.932 27.345 3.104 27.345 3.312V3.516C27.561 3.228 27.841 2.98 28.185 2.772C28.537 2.564 28.921 2.46 29.337 2.46ZM35.8494 2.46C36.5294 2.46 37.0774 2.568 37.4934 2.784C37.9094 2.992 38.1174 3.272 38.1174 3.624C38.1174 3.8 38.0654 3.956 37.9614 4.092C37.8574 4.22 37.7214 4.284 37.5534 4.284C37.4254 4.284 37.3214 4.268 37.2414 4.236C37.1614 4.196 37.0814 4.148 37.0014 4.092C36.9294 4.028 36.8574 3.976 36.7854 3.936C36.7054 3.896 36.5854 3.86 36.4254 3.828C36.2734 3.796 36.1494 3.78 36.0534 3.78C35.4534 3.78 34.9814 3.968 34.6374 4.344C34.3014 4.712 34.1334 5.196 34.1334 5.796C34.1334 6.372 34.3054 6.852 34.6494 7.236C34.9934 7.612 35.4334 7.8 35.9694 7.8C36.3614 7.8 36.6534 7.752 36.8454 7.656C36.8934 7.632 36.9574 7.592 37.0374 7.536C37.1254 7.472 37.2054 7.424 37.2774 7.392C37.3494 7.36 37.4374 7.344 37.5414 7.344C37.7414 7.344 37.8974 7.408 38.0094 7.536C38.1294 7.664 38.1894 7.828 38.1894 8.028C38.1894 8.22 38.0774 8.4 37.8534 8.568C37.6294 8.736 37.3334 8.872 36.9654 8.976C36.5974 9.072 36.2054 9.12 35.7894 9.12C35.1734 9.12 34.6294 8.976 34.1574 8.688C33.6934 8.4 33.3334 8.004 33.0774 7.5C32.8214 6.988 32.6934 6.42 32.6934 5.796C32.6934 5.148 32.8254 4.572 33.0894 4.068C33.3614 3.564 33.7374 3.172 34.2174 2.892C34.6974 2.604 35.2414 2.46 35.8494 2.46ZM44.9892 5.64C44.9812 5.832 44.9052 5.988 44.7612 6.108C44.6172 6.228 44.4492 6.288 44.2572 6.288H40.2972C40.3932 6.76 40.6132 7.132 40.9572 7.404C41.3012 7.668 41.6892 7.8 42.1212 7.8C42.4492 7.8 42.7052 7.772 42.8892 7.716C43.0732 7.652 43.2172 7.588 43.3212 7.524C43.4332 7.452 43.5092 7.404 43.5492 7.38C43.6932 7.308 43.8292 7.272 43.9572 7.272C44.1252 7.272 44.2692 7.332 44.3892 7.452C44.5092 7.572 44.5692 7.712 44.5692 7.872C44.5692 8.088 44.4572 8.284 44.2332 8.46C44.0092 8.644 43.7092 8.8 43.3332 8.928C42.9572 9.056 42.5772 9.12 42.1932 9.12C41.5212 9.12 40.9332 8.98 40.4292 8.7C39.9332 8.42 39.5492 8.036 39.2772 7.548C39.0052 7.052 38.8692 6.496 38.8692 5.88C38.8692 5.192 39.0132 4.588 39.3012 4.068C39.5892 3.548 39.9692 3.152 40.4412 2.88C40.9132 2.6 41.4172 2.46 41.9532 2.46C42.4812 2.46 42.9772 2.604 43.4412 2.892C43.9132 3.18 44.2892 3.568 44.5692 4.056C44.8492 4.544 44.9892 5.072 44.9892 5.64ZM41.9532 3.78C41.0252 3.78 40.4772 4.216 40.3092 5.088H43.4532V5.004C43.4212 4.668 43.2572 4.38 42.9612 4.14C42.6652 3.9 42.3292 3.78 41.9532 3.78ZM45.8182 8.004C45.7462 7.908 45.7102 7.788 45.7102 7.644C45.7102 7.436 45.8142 7.26 46.0222 7.116C46.1342 7.044 46.2502 7.008 46.3702 7.008C46.5382 7.008 46.6982 7.084 46.8502 7.236C47.0902 7.484 47.3382 7.668 47.5942 7.788C47.8582 7.908 48.1742 7.968 48.5422 7.968C49.1662 7.944 49.4782 7.708 49.4782 7.26C49.4782 7.028 49.3702 6.852 49.1542 6.732C48.9462 6.612 48.6182 6.492 48.1702 6.372C47.7062 6.244 47.3262 6.116 47.0302 5.988C46.7422 5.86 46.4902 5.668 46.2742 5.412C46.0662 5.148 45.9622 4.796 45.9622 4.356C45.9622 3.972 46.0702 3.64 46.2862 3.36C46.5102 3.072 46.7982 2.852 47.1502 2.7C47.5102 2.54 47.8902 2.46 48.2902 2.46C48.6982 2.46 49.1062 2.536 49.5142 2.688C49.9222 2.84 50.2422 3.064 50.4742 3.36C50.5782 3.488 50.6302 3.632 50.6302 3.792C50.6302 3.976 50.5542 4.128 50.4022 4.248C50.2902 4.336 50.1622 4.38 50.0182 4.38C49.8422 4.38 49.6982 4.324 49.5862 4.212C49.4422 4.036 49.2542 3.896 49.0222 3.792C48.7982 3.688 48.5422 3.636 48.2542 3.636C47.6462 3.636 47.3422 3.856 47.3422 4.296C47.3422 4.472 47.3982 4.616 47.5102 4.728C47.6222 4.832 47.7622 4.916 47.9302 4.98C48.1062 5.036 48.3502 5.108 48.6622 5.196C49.0942 5.316 49.4542 5.44 49.7422 5.568C50.0302 5.696 50.2742 5.892 50.4742 6.156C50.6742 6.42 50.7742 6.768 50.7742 7.2C50.7742 7.592 50.6582 7.936 50.4262 8.232C50.1942 8.52 49.8942 8.74 49.5262 8.892C49.1662 9.044 48.7942 9.12 48.4102 9.12C47.8822 9.12 47.3902 9.032 46.9342 8.856C46.4782 8.68 46.1062 8.396 45.8182 8.004Z" fill="black" fill-opacity="0.6" />
	<g clip-path="url(#clip0)">
		<path d="M41.0007 27.2565V19.2776H28.6811V27.2565C23.3787 29.1604 19.6819 33.4467 19.6819 38.4295C19.6819 45.1812 26.4686 50.6544 34.8407 50.6544C43.2128 50.6544 50 45.1812 50 38.4295C50 33.4467 46.3027 29.1604 41.0007 27.2565Z" fill="#C9FFF7" />
		<path d="M46.9323 38.4298C46.9323 43.8067 41.5085 48.1803 34.8404 48.1803C32.647 48.1803 30.5886 47.7072 28.8136 46.8799C25.1915 45.1944 22.7498 42.0377 22.7498 38.4298C22.7498 35.7324 24.1353 33.2083 26.4645 31.3997H43.2171C45.5468 33.2083 46.9323 35.7324 46.9323 38.4298Z" fill="#F7D360" />
		<path d="M31.4506 27.2566V25.0483C31.4506 23.8519 32.653 22.8823 34.1362 22.8823H41.0007V20.5144L38.5578 18.7215L36.2571 18.2268L28.6815 20.5141V27.2566C23.3783 29.1605 19.6819 33.4462 19.6819 38.4296C19.6819 45.1521 26.4102 50.6071 34.7339 50.6533C30.1754 50.5684 26.4984 45.1281 26.4984 38.4296C26.4984 33.4462 28.5331 29.1605 31.4506 27.2566Z" fill="#72CEC0" />
		<path d="M28.8136 46.8799C25.1915 45.1944 22.7498 42.0377 22.7498 38.4298C22.7498 35.7324 24.1353 33.2083 26.4645 31.3997H28.0159C27.0596 33.3879 26.4985 35.8124 26.4985 38.4298C26.4985 41.7076 27.3789 44.684 28.8136 46.8799Z" fill="#E58E13" />
		<path d="M29.6415 45.3384L19.7969 31.5874V24.4727H10.441V31.5874L0.596426 45.3384C-1.09501 47.7011 1.0191 50.6544 4.40235 50.6544H25.836C29.2189 50.6544 31.3334 47.7011 29.6415 45.3384Z" fill="#E6E6E6" />
		<path d="M19.7963 24.4725L16.9318 23.1746L11.4421 23.2207L10.44 24.4725V31.5869L0.59575 45.3386C-1.09683 47.7012 1.01804 50.6542 4.40053 50.6542H10.2519C8.71571 50.6542 7.75555 47.7012 8.52345 45.3386L12.9943 31.5869V27.9343C12.9943 27.1837 13.7488 26.5755 14.6796 26.5755H19.7963V24.4725Z" fill="#CCCCCC" />
		<path d="M23.1883 22.8646C23.1883 23.7528 22.2957 24.4726 21.1944 24.4726H9.04192C8.49184 24.4726 7.99287 24.293 7.632 24.0016C7.27113 23.7106 7.04797 23.3082 7.04797 22.8646C7.04797 21.9765 7.94061 21.2566 9.04192 21.2566H21.1944C21.7445 21.2566 22.2434 21.4363 22.6043 21.7273C22.9652 22.0186 23.1883 22.421 23.1883 22.8646Z" fill="#CCCCCC" />
		<path d="M23.1884 22.8646C23.1884 23.7528 22.2957 24.4726 21.1944 24.4726H13.8779C13.3266 24.4726 12.8288 24.293 12.4676 24.0016C12.1067 23.7106 11.8839 23.3082 11.8839 22.8646C11.8839 21.9765 12.7766 21.2566 13.8779 21.2566H21.1944C21.7445 21.2566 22.2435 21.4363 22.6044 21.7273C22.9652 22.0186 23.1884 22.421 23.1884 22.8646Z" fill="#E6E6E6" />
		<path d="M44.4352 18.9061C44.4352 19.7943 43.5425 20.5141 42.4412 20.5141H27.4086C26.8574 20.5141 26.3592 20.3345 25.9983 20.0434C25.6375 19.7521 25.4143 19.3497 25.4143 18.9061C25.4143 18.018 26.3073 17.2981 27.4086 17.2981H42.4412C42.9913 17.2981 43.4902 17.4778 43.8511 17.7691C44.2124 18.0601 44.4352 18.4625 44.4352 18.9061Z" fill="#72CEC0" />
		<path d="M44.4352 18.9061C44.4352 19.7943 43.5425 20.5141 42.4412 20.5141H32.0683C31.5182 20.5141 31.0192 20.3345 30.658 20.0434C30.2971 19.7521 30.0743 19.3497 30.0743 18.9061C30.0743 18.018 30.967 17.2981 32.0683 17.2981H42.4412C42.9913 17.2981 43.4902 17.4778 43.8511 17.7691C44.2124 18.0601 44.4352 18.4625 44.4352 18.9061Z" fill="#C9FFF7" />
		<path d="M26.9841 47.6454C26.841 47.8456 26.5015 48.1803 25.8358 48.1803H4.40182C3.73501 48.1803 3.3955 47.8456 3.25245 47.6454C3.1094 47.4457 2.91905 47.0409 3.25245 46.5757L10.487 36.4705H19.7506L26.9841 46.5757C27.3175 47.0409 27.1271 47.4457 26.9841 47.6454Z" fill="#FC5F61" />
		<path d="M8.5236 45.3387C8.22224 46.2665 8.18715 47.2848 8.34889 48.1804H4.40182C3.73501 48.1804 3.3955 47.8456 3.25245 47.6454C3.1094 47.4457 2.91905 47.0409 3.25245 46.5757L10.487 36.4705H11.4064L8.5236 45.3387Z" fill="#E83842" />
		<path d="M16.7675 43.5208C16.071 43.5208 15.7395 42.7988 16.2701 42.4324C16.7977 42.0682 17.6258 42.4398 17.5263 42.9935C17.4725 43.2932 17.1421 43.5208 16.7675 43.5208Z" fill="#E83842" />
		<path d="M13.3851 18.1648C12.7156 18.1648 12.3715 17.4898 12.843 17.1084C13.0979 16.9026 13.511 16.8706 13.8104 17.0318C14.0729 17.1727 14.2037 17.4379 14.1316 17.6855C14.0515 17.9621 13.738 18.1648 13.3851 18.1648Z" fill="#E83842" />
		<path d="M16.4372 15.8144C15.7433 15.8144 15.4042 15.0897 15.939 14.7254C16.1934 14.5519 16.5646 14.5298 16.8473 14.6734C17.1189 14.8116 17.2573 15.0829 17.1841 15.3355C17.104 15.6114 16.7904 15.8144 16.4372 15.8144Z" fill="#E83842" />
		<path d="M14.7747 12.2275C14.4397 12.2275 14.1384 12.046 14.0404 11.7885C13.9431 11.5316 14.0712 11.2433 14.3482 11.0945C14.9173 10.788 15.6875 11.2212 15.5178 11.7593C15.432 12.0306 15.1226 12.2275 14.7747 12.2275Z" fill="#E83842" />
		<path d="M41.5748 35.2344C40.8931 35.2344 40.5532 34.5323 41.056 34.1601C41.5378 33.8035 42.3419 34.0881 42.3419 34.6157C42.3419 34.9519 41.9925 35.2344 41.5748 35.2344Z" fill="white" />
		<path d="M42.1089 39.3591C41.4409 39.3591 41.0907 38.6838 41.5668 38.3036C41.8048 38.1135 42.1749 38.0695 42.4705 38.1959C42.7539 38.3174 42.9134 38.5762 42.8676 38.8318C42.8134 39.1317 42.4831 39.3591 42.1089 39.3591Z" fill="white" />
		<path d="M32.106 44.0159C31.778 44.0159 31.4812 43.8421 31.3782 43.5914C31.2691 43.3268 31.4015 43.0265 31.6925 42.8764C32.2701 42.5783 33.0284 43.0265 32.8449 43.5615C32.7545 43.8261 32.4471 44.0159 32.106 44.0159Z" fill="white" />
		<path d="M28.5782 38.8203C27.8851 38.8203 27.5486 38.0995 28.077 37.7344C28.3306 37.5587 28.7022 37.5369 28.9856 37.6787C29.2546 37.8137 29.3942 38.0792 29.3286 38.3293C29.2546 38.6117 28.9368 38.8203 28.5782 38.8203Z" fill="white" />
		<path d="M37.9337 37.3361C37.2482 37.3361 36.9087 36.6301 37.4191 36.26C37.6735 36.0754 38.0543 36.0496 38.3442 36.1957C38.6093 36.3299 38.747 36.5914 38.6864 36.839C38.6162 37.1245 38.2942 37.3361 37.9337 37.3361Z" fill="white" />
		<path d="M11.4003 44.8017C11.0924 44.8017 10.8098 44.6485 10.6915 44.4199C10.5618 44.1683 10.6587 43.8659 10.925 43.6976C11.4716 43.3527 12.2925 43.7502 12.1518 44.3043C12.0793 44.5897 11.7627 44.8017 11.4003 44.8017Z" fill="#E83842" />
		<path d="M13.3941 40.7996C13.0733 40.7996 12.7803 40.6332 12.672 40.3896C12.5568 40.1305 12.6747 39.8309 12.9554 39.674C13.5013 39.3691 14.2669 39.7558 14.1491 40.2871C14.0842 40.5794 13.7634 40.7996 13.3941 40.7996Z" fill="#E83842" />
	</g>
	<defs>
		<clipPath id="clip0">
			<rect width="50" height="40.3226" fill="white" transform="translate(0 10.6775)" />
		</clipPath>
	</defs>
</svg>
