<?xml version="1.0" encoding="utf-8"?>
<!-- Generator: Adobe Illustrator 23.0.1, SVG Export Plug-In . SVG Version: 6.00 Build 0)  -->
<svg version="1.1" id="Layer_1" xmlns="http://www.w3.org/2000/svg" xmlns:xlink="http://www.w3.org/1999/xlink" x="0px" y="0px"
	 viewBox="0 0 100 124" style="enable-background:new 0 0 100 124;" xml:space="preserve">
<style type="text/css">
	.st0{clip-path:url(#SVGID_2_);}
	.st1{fill:#C9FFF7;}
	.st2{fill:#F7D360;}
	.st3{fill:#72CEC0;}
	.st4{fill:#E58E13;}
	.st5{fill:#E6E6E6;}
	.st6{fill:#CCCCCC;}
	.st7{fill:#FC5F61;}
	.st8{fill:#E83842;}
	.st9{fill:#FFFFFF;}
	.st10{fill:#C4C4C4;}
	.st11{font-family:'MyriadPro-Regular';}
	.st12{font-size:12px;}
</style>
<g>
	<defs>
		<rect id="SVGID_1_" y="24" width="100" height="100"/>
	</defs>
	<clipPath id="SVGID_2_">
		<use xlink:href="#SVGID_1_"  style="overflow:visible;"/>
	</clipPath>
	<g class="st0">
		<path class="st1" d="M82,65.1V45.3H57.4v19.8c-10.6,4.7-18,15.4-18,27.7c0,16.7,13.6,30.3,30.3,30.3c16.7,0,30.3-13.6,30.3-30.3
			C100,80.5,92.6,69.8,82,65.1z"/>
		<path class="st2" d="M93.9,92.8c0,13.3-10.8,24.2-24.2,24.2c-4.4,0-8.5-1.2-12.1-3.2c-7.2-4.2-12.1-12-12.1-21
			c0-6.7,2.8-12.9,7.4-17.4h33.5C91.1,79.9,93.9,86.1,93.9,92.8z"/>
		<path class="st3" d="M62.9,65.1v-5.5c0-3,2.4-5.4,5.4-5.4H82v-5.9l-4.9-4.4l-4.6-1.2l-15.2,5.7v16.7c-10.6,4.7-18,15.4-18,27.7
			c0,16.7,13.5,30.2,30.1,30.3C60.4,122.9,53,109.4,53,92.8C53,80.5,57.1,69.8,62.9,65.1z"/>
		<path class="st4" d="M57.6,113.8c-7.2-4.2-12.1-12-12.1-21c0-6.7,2.8-12.9,7.4-17.4H56c-1.9,4.9-3,10.9-3,17.4
			C53,101,54.8,108.3,57.6,113.8z"/>
		<path class="st5" d="M59.3,110L39.6,75.9V58.2H20.9v17.6L1.2,110c-3.4,5.9,0.8,13.2,7.6,13.2h42.9C58.4,123.1,62.7,115.8,59.3,110
			z"/>
		<path class="st6" d="M39.6,58.2L33.9,55l-11,0.1l-2,3.1v17.6L1.2,110c-3.4,5.9,0.8,13.2,7.6,13.2h11.7c-3.1,0-5-7.3-3.5-13.2
			L26,75.9v-9.1c0-1.9,1.5-3.4,3.4-3.4h10.2V58.2z"/>
		<path class="st6" d="M46.4,54.2c0,2.2-1.8,4-4,4H18.1c-1.1,0-2.1-0.4-2.8-1.2c-0.7-0.7-1.2-1.7-1.2-2.8c0-2.2,1.8-4,4-4h24.3
			c1.1,0,2.1,0.4,2.8,1.2C45.9,52.1,46.4,53.1,46.4,54.2z"/>
		<path class="st5" d="M46.4,54.2c0,2.2-1.8,4-4,4H27.8c-1.1,0-2.1-0.4-2.8-1.2c-0.7-0.7-1.2-1.7-1.2-2.8c0-2.2,1.8-4,4-4h14.6
			c1.1,0,2.1,0.4,2.8,1.2C45.9,52.1,46.4,53.1,46.4,54.2z"/>
		<path class="st3" d="M88.9,44.4c0,2.2-1.8,4-4,4H54.8c-1.1,0-2.1-0.4-2.8-1.2c-0.7-0.7-1.2-1.7-1.2-2.8c0-2.2,1.8-4,4-4h30.1
			c1.1,0,2.1,0.4,2.8,1.2C88.4,42.3,88.9,43.3,88.9,44.4z"/>
		<path class="st1" d="M88.9,44.4c0,2.2-1.8,4-4,4H64.1c-1.1,0-2.1-0.4-2.8-1.2c-0.7-0.7-1.2-1.7-1.2-2.8c0-2.2,1.8-4,4-4h20.7
			c1.1,0,2.1,0.4,2.8,1.2C88.4,42.3,88.9,43.3,88.9,44.4z"/>
		<path class="st7" d="M54,115.7c-0.3,0.5-1,1.3-2.3,1.3H8.8c-1.3,0-2-0.8-2.3-1.3c-0.3-0.5-0.7-1.5,0-2.7L21,88h18.5L54,113
			C54.6,114.2,54.3,115.2,54,115.7z"/>
		<path class="st8" d="M17,110c-0.6,2.3-0.7,4.8-0.3,7H8.8c-1.3,0-2-0.8-2.3-1.3c-0.3-0.5-0.7-1.5,0-2.7L21,88h1.8L17,110z"/>
		<path class="st8" d="M33.5,105.5c-1.4,0-2.1-1.8-1-2.7c1.1-0.9,2.7,0,2.5,1.4C34.9,104.9,34.3,105.5,33.5,105.5z"/>
		<path class="st8" d="M26.8,42.6c-1.3,0-2-1.7-1.1-2.6c0.5-0.5,1.3-0.6,1.9-0.2c0.5,0.3,0.8,1,0.6,1.6
			C28.1,42.1,27.5,42.6,26.8,42.6z"/>
		<path class="st8" d="M32.9,36.7c-1.4,0-2.1-1.8-1-2.7c0.5-0.4,1.3-0.5,1.8-0.1c0.5,0.3,0.8,1,0.7,1.6
			C34.2,36.2,33.6,36.7,32.9,36.7z"/>
		<path class="st8" d="M29.5,27.8c-0.7,0-1.3-0.5-1.5-1.1c-0.2-0.6,0.1-1.4,0.6-1.7c1.1-0.8,2.7,0.3,2.3,1.6
			C30.9,27.4,30.2,27.8,29.5,27.8z"/>
		<path class="st9" d="M83.1,84.9c-1.4,0-2-1.7-1-2.7c1-0.9,2.6-0.2,2.6,1.1C84.7,84.2,84,84.9,83.1,84.9z"/>
		<path class="st9" d="M84.2,95.1c-1.3,0-2-1.7-1.1-2.6c0.5-0.5,1.2-0.6,1.8-0.3c0.6,0.3,0.9,0.9,0.8,1.6
			C85.6,94.6,85,95.1,84.2,95.1z"/>
		<path class="st9" d="M64.2,106.7c-0.7,0-1.2-0.4-1.5-1.1c-0.2-0.7,0-1.4,0.6-1.8c1.2-0.7,2.7,0.4,2.3,1.7
			C65.5,106.2,64.9,106.7,64.2,106.7z"/>
		<path class="st9" d="M57.2,93.8c-1.4,0-2.1-1.8-1-2.7c0.5-0.4,1.3-0.5,1.8-0.1c0.5,0.3,0.8,1,0.7,1.6
			C58.5,93.3,57.9,93.8,57.2,93.8z"/>
		<path class="st9" d="M75.9,90.1c-1.4,0-2.1-1.8-1-2.7c0.5-0.5,1.3-0.5,1.9-0.2c0.5,0.3,0.8,1,0.7,1.6
			C77.2,89.6,76.6,90.1,75.9,90.1z"/>
		<path class="st8" d="M22.8,108.6c-0.6,0-1.2-0.4-1.4-0.9c-0.3-0.6-0.1-1.4,0.5-1.8c1.1-0.9,2.7,0.1,2.5,1.5
			C24.2,108.1,23.5,108.6,22.8,108.6z"/>
		<path class="st8" d="M26.8,98.7c-0.6,0-1.2-0.4-1.4-1c-0.2-0.6,0-1.4,0.6-1.8c1.1-0.8,2.6,0.2,2.4,1.5
			C28.2,98.2,27.5,98.7,26.8,98.7z"/>
	</g>
</g>
<text transform="matrix(1 0 0 1 8.5429 14.5709)" class="st10 st11 st12" style="font-family: 'Quicksand', sans-serif;">Physical sciences</text>
</svg>
