<svg width="30" height="30" viewBox="0 0 30 30" fill="none" xmlns="http://www.w3.org/2000/svg">
	<path d="M15.0001 0.0620117C6.71586 0.0620117 0 6.77787 0 15.0621C0 22.4921 5.40783 28.6454 12.4984 29.8369V18.1915H8.87992V14.0008H12.4984V10.9108C12.4984 7.32541 14.6882 5.3716 17.8871 5.3716C19.4191 5.3716 20.7357 5.48576 21.1179 5.53605V9.2837L18.8993 9.28477C17.16 9.28477 16.8247 10.1111 16.8247 11.3241V13.9987H20.9748L20.4335 18.1894H16.8247V29.9371C24.2463 29.0338 30 22.7238 30 15.0578C30 6.77787 23.2841 0.0620117 15.0001 0.0620117Z" fill="black" />
</svg>
