<svg width="30" height="30" viewBox="0 0 30 30" fill="none" xmlns="http://www.w3.org/2000/svg">
<path d="M15.0001 0.0617981C6.71586 0.0617981 0 6.77765 0 15.0619C0 22.4919 5.40783 28.6452 12.4984 29.8367V18.1913H8.87992V14.0006H12.4984V10.9106C12.4984 7.3252 14.6882 5.37139 17.8871 5.37139C19.4191 5.37139 20.7357 5.48555 21.1179 5.53583V9.28348L18.8993 9.28456C17.16 9.28456 16.8247 10.1109 16.8247 11.3239V13.9985H20.9748L20.4335 18.1892H16.8247V29.9369C24.2463 29.0336 30 22.7236 30 15.0576C30 6.77765 23.2841 0.0617981 15.0001 0.0617981Z" fill="white"/>
</svg>
