<svg width="50" height="50" viewBox="0 0 50 50" fill="none" xmlns="http://www.w3.org/2000/svg">
<g clip-path="url(#clip0)">
<path d="M25.4807 7.24933H27.4218L28.818 12.4356C28.9035 12.7535 29.1888 12.9767 29.5179 12.9834C29.523 12.9835 29.528 12.9835 29.5329 12.9835C29.8559 12.9835 30.1426 12.7736 30.2393 12.4641L33.3572 2.49888H37.7801C38.189 2.49888 38.5204 2.1674 38.5204 1.75853C38.5204 1.34967 38.189 1.01819 37.7801 1.01819H32.8131C32.4894 1.01819 32.2031 1.22855 32.1065 1.53742L29.586 9.59307L28.7039 6.3164C28.617 5.99311 28.3238 5.76854 27.9891 5.76854H25.4806C25.0717 5.76854 24.7402 6.10002 24.7402 6.50889C24.7402 6.91776 25.0718 7.24933 25.4807 7.24933Z" fill="black"/>
<path d="M36.1573 9.28099C34.9162 11.0543 34.1755 12.0242 33.7776 12.5452C33.2914 13.1818 33.1095 13.42 33.2385 13.8396C33.3132 14.0826 33.4978 14.2691 33.7447 14.3515C33.845 14.3849 33.9546 14.4216 35.4511 14.4216C36.0452 14.4216 36.8579 14.4157 37.9752 14.4017C38.3841 14.3966 38.7113 14.061 38.7062 13.6521C38.701 13.2432 38.3616 12.9187 37.9566 12.9211C37.0488 12.9326 36.0801 12.9397 35.3378 12.9391C35.7791 12.3538 36.4351 11.4663 37.3703 10.13C37.8595 9.43114 38.1779 8.77312 38.3168 8.17423C38.3224 8.14994 38.3268 8.12546 38.3299 8.10078L38.3686 7.79813C38.3726 7.76704 38.3746 7.73565 38.3746 7.70435C38.3746 6.19217 37.1443 4.96191 35.6322 4.96191C34.3246 4.96191 33.193 5.89208 32.9413 7.17357C32.8625 7.57474 33.1239 7.96397 33.525 8.04274C33.9258 8.12151 34.3153 7.86022 34.3942 7.45895C34.5099 6.87003 35.0305 6.44261 35.6323 6.44261C36.314 6.44261 36.8712 6.98612 36.8933 7.6626L36.8664 7.87345C36.7655 8.27936 36.5271 8.75268 36.1573 9.28099Z" fill="black"/>
<path d="M4.46437 22.6958C4.94175 22.8651 5.44251 22.9503 5.94348 22.9503C7.07167 22.9503 8.19986 22.5209 9.05866 21.662C10.2989 20.4217 10.6432 18.6199 10.0923 17.0674C12.2788 14.2822 12.0405 13.3849 11.5732 12.9177C11.1056 12.4501 10.2081 12.2116 7.42269 14.398C5.87024 13.8473 4.06853 14.1915 2.8283 15.4317C1.58808 16.672 1.24377 18.4737 1.79458 20.0261C-0.392397 22.8119 -0.153907 23.7096 0.313695 24.1772C0.486146 24.3497 0.716739 24.491 1.07931 24.491C1.69952 24.491 2.7056 24.0767 4.46437 22.6958ZM8.01171 20.6151C7.43572 21.191 6.67721 21.4757 5.92058 21.4698C6.42342 21.0199 6.93377 20.5377 7.43405 20.0374C7.93422 19.5372 8.41644 19.0269 8.86637 18.524C8.87219 19.2807 8.5876 20.0391 8.01171 20.6151ZM10.1606 14.3298C9.99219 14.6508 9.71757 15.0968 9.28728 15.6805C9.21443 15.5956 9.13911 15.5122 9.05866 15.4318C8.97821 15.3514 8.8947 15.276 8.80981 15.2031C9.39359 14.7727 9.83958 14.4981 10.1606 14.3298ZM3.87535 16.4788C4.44552 15.9086 5.19455 15.6234 5.94348 15.6234C6.69251 15.6234 7.44145 15.9085 8.01171 16.4788C8.1351 16.6022 8.24428 16.7344 8.34102 16.8727C7.75921 17.5616 7.09191 18.2856 6.3871 18.9904C5.68219 19.6953 4.95803 20.3626 4.26922 20.9444C4.13092 20.8477 3.99874 20.7384 3.87535 20.6151C2.73502 19.4746 2.73502 17.6191 3.87535 16.4788ZM2.59959 21.4131C2.67254 21.498 2.74795 21.5816 2.8283 21.662C2.90866 21.7424 2.99217 21.8178 3.07706 21.8906C2.49308 22.3211 2.04699 22.5959 1.72588 22.7644C1.89428 22.4433 2.169 21.9972 2.59959 21.4131Z" fill="black"/>
<path d="M46.9052 13.1458C46.9026 13.139 46.9 13.1323 46.8972 13.1255C46.7538 12.7769 46.4178 12.5519 46.041 12.5519C46.0407 12.5519 46.0404 12.5519 46.0401 12.5519C45.6628 12.5523 45.3268 12.7781 45.184 13.1272C45.1817 13.1328 45.1794 13.1384 45.1773 13.1441L42.1026 21.2171C41.9571 21.5992 42.1488 22.0269 42.5309 22.1724C42.9133 22.3181 43.3408 22.1261 43.4863 21.7441L44.0705 20.2103H47.9887L48.5668 21.742C48.6787 22.0385 48.9603 22.2212 49.2596 22.2212C49.3465 22.2212 49.4348 22.2058 49.5208 22.1733C49.9033 22.029 50.0965 21.6018 49.9521 21.2193L46.9052 13.1458ZM44.6343 18.7296L46.0384 15.0429L47.4298 18.7296H44.6343Z" fill="black"/>
<path d="M48.7304 24.6464C48.4413 24.3573 47.9725 24.3573 47.6835 24.6464L47.327 25.0029L46.9706 24.6464C46.6815 24.3573 46.2127 24.3573 45.9236 24.6464C45.6345 24.9355 45.6345 25.4043 45.9236 25.6934L46.2801 26.0498L45.9236 26.4063C45.6345 26.6954 45.6345 27.1642 45.9236 27.4532C46.0681 27.5977 46.2577 27.6701 46.4471 27.6701C46.6365 27.6701 46.8261 27.5978 46.9706 27.4532L47.327 27.0968L47.6835 27.4532C47.828 27.5977 48.0175 27.6701 48.207 27.6701C48.3964 27.6701 48.5859 27.5978 48.7304 27.4532C49.0196 27.1641 49.0196 26.6953 48.7304 26.4063L48.374 26.0498L48.7304 25.6934C49.0196 25.4043 49.0196 24.9355 48.7304 24.6464Z" fill="black"/>
<path d="M21.6631 12.3074C21.8077 12.452 21.9972 12.5243 22.1866 12.5243C22.376 12.5243 22.5656 12.452 22.7101 12.3074L23.0664 11.951L23.4228 12.3074C23.5673 12.452 23.7568 12.5243 23.9463 12.5243C24.1357 12.5243 24.3252 12.452 24.4697 12.3074C24.7589 12.0183 24.7589 11.5496 24.4697 11.2604L24.1134 10.9041L24.4697 10.5477C24.7589 10.2586 24.7589 9.78991 24.4697 9.50078C24.1806 9.21165 23.7118 9.21165 23.4228 9.50078L23.0664 9.85714L22.7101 9.50078C22.421 9.21165 21.9522 9.21165 21.6631 9.50078C21.374 9.78991 21.374 10.2586 21.6631 10.5477L22.0195 10.9041L21.6631 11.2604C21.374 11.5495 21.374 12.0183 21.6631 12.3074Z" fill="black"/>
<path d="M3.88961 26.547C3.60058 26.2579 3.1318 26.2579 2.84267 26.547L2.48621 26.9034L2.12976 26.547C1.84063 26.2579 1.37185 26.2579 1.08281 26.547C0.793684 26.8362 0.793684 27.305 1.08281 27.594L1.43917 27.9503L1.08281 28.3067C0.793684 28.5958 0.793684 29.0645 1.08281 29.3536C1.22733 29.4983 1.41686 29.5705 1.60629 29.5705C1.79572 29.5705 1.98525 29.4983 2.12976 29.3536L2.48621 28.9973L2.84267 29.3536C2.98718 29.4982 3.17671 29.5705 3.36614 29.5705C3.55557 29.5705 3.7451 29.4983 3.88961 29.3536C4.17874 29.0645 4.17874 28.5957 3.88961 28.3067L3.53326 27.9503L3.88961 27.594C4.17874 27.3049 4.17874 26.8362 3.88961 26.547Z" fill="black"/>
<path d="M8.9735 7.74122H10.4008V9.16851C10.4008 9.57738 10.7323 9.90885 11.1411 9.90885C11.55 9.90885 11.8815 9.57738 11.8815 9.16851V7.74122H13.3087C13.7175 7.74122 14.049 7.40974 14.049 7.00087C14.049 6.59201 13.7175 6.26053 13.3087 6.26053H11.8815V4.83324C11.8815 4.42437 11.55 4.0929 11.1411 4.0929C10.7323 4.0929 10.4008 4.42437 10.4008 4.83324V6.26053H8.9735C8.56463 6.26053 8.23315 6.59201 8.23315 7.00087C8.23315 7.40974 8.56463 7.74122 8.9735 7.74122Z" fill="black"/>
<path d="M45.0506 9.89823C47.7795 9.89823 49.9997 7.67808 49.9997 4.94916C49.9997 2.22025 47.7795 0 45.0506 0C42.3217 0 40.1016 2.22015 40.1016 4.94906C40.1016 7.67798 42.3217 9.89823 45.0506 9.89823ZM45.0506 1.48069C46.9631 1.48069 48.519 3.0366 48.519 4.94906C48.519 6.86153 46.9631 8.41744 45.0506 8.41744C43.1382 8.41744 41.5823 6.86153 41.5823 4.94906C41.5823 3.0366 43.1382 1.48069 45.0506 1.48069Z" fill="#FFD43A"/>
<path d="M45.0506 5.68951H46.1589C46.5678 5.68951 46.8992 5.35803 46.8992 4.94917C46.8992 4.5403 46.5678 4.20882 46.1589 4.20882H45.791V2.83178C45.791 2.42291 45.4595 2.09143 45.0506 2.09143C44.6418 2.09143 44.3103 2.42291 44.3103 2.83178V4.94917C44.3103 5.35803 44.6418 5.68951 45.0506 5.68951Z" fill="black"/>
<path d="M3.05966 5.93155H4.98535L3.53644 8.94555C3.35926 9.31405 3.51433 9.75638 3.88293 9.93357C3.98638 9.98332 4.09555 10.0068 4.20315 10.0068C4.47886 10.0068 4.7435 9.85213 4.87094 9.58708L6.83 5.51202C6.94036 5.28262 6.92496 5.01264 6.78952 4.79715C6.65409 4.58166 6.41728 4.45086 6.1628 4.45086H4.23701L5.68591 1.43686C5.8631 1.06837 5.70803 0.626037 5.33943 0.448848C4.97104 0.271757 4.52861 0.426835 4.35142 0.79533L2.39246 4.87049C2.2821 5.0999 2.2975 5.36988 2.43293 5.58537C2.56837 5.80086 2.80508 5.93155 3.05966 5.93155Z" fill="black"/>
<path d="M16.2303 10.0844H16.2336C16.2336 10.0844 18.1791 10.0757 18.7154 10.0757C20.2046 10.0757 21.4162 8.86407 21.4162 7.37489C21.4162 6.47018 20.9686 5.66863 20.2838 5.17823C20.5842 4.77548 20.7622 4.27649 20.7622 3.73663C20.7622 2.4043 19.6784 1.32043 18.3459 1.32043H16.2303C15.8215 1.32043 15.49 1.65191 15.49 2.06078V5.41455V5.41998V9.34411C15.49 9.54104 15.5685 9.72988 15.7079 9.86876C15.8467 10.0069 16.0346 10.0844 16.2303 10.0844ZM18.7154 8.59498C18.3968 8.59498 17.5818 8.59804 16.9707 8.6005V6.15716C17.1654 6.15637 17.3773 6.15558 17.579 6.15489H18.7154C19.3882 6.15489 19.9355 6.70226 19.9355 7.37498C19.9355 8.04771 19.3882 8.59498 18.7154 8.59498ZM18.3459 2.80103C18.8618 2.80103 19.2815 3.22066 19.2815 3.73653C19.2815 4.2524 18.8619 4.67213 18.3459 4.67213C18.1898 4.67213 17.8951 4.67302 17.5742 4.6741H16.9708V2.80103H18.3459Z" fill="black"/>
<path d="M38.0622 19.1565C37.7506 18.8916 37.2834 18.9295 37.0186 19.2411C36.7537 19.5526 36.7916 20.0198 37.1032 20.2847C41.2886 23.8423 43.689 29.0548 43.689 34.5857C43.689 38.7167 42.3736 41.4757 39.5805 43.1367C39.6827 42.6768 39.75 42.2031 39.775 41.7171C39.9665 37.9891 39.931 34.2103 39.6729 30.48C39.7649 29.9918 39.8124 29.4898 39.8124 28.9869C39.8124 26.0863 38.2739 23.3757 35.4801 21.3541C32.7586 19.3849 29.1524 18.3003 25.3259 18.3003C24.5439 18.3003 23.7722 18.3453 23.0344 18.4336C21.2334 18.6432 19.524 19.096 17.9536 19.7796C15.8471 20.6962 14.0779 22.0018 12.8374 23.555C11.5302 25.1917 10.8393 27.0699 10.8393 28.9868C10.8393 29.4882 10.8866 29.9908 10.9786 30.4818C10.8185 32.8016 10.7432 35.1377 10.7564 37.4308C10.7588 37.8382 11.0898 38.1669 11.4967 38.1669H11.501C11.9099 38.1645 12.2394 37.8312 12.2371 37.4223C12.2307 36.3166 12.2458 35.2006 12.2806 34.0814C12.609 34.1724 12.9448 34.2198 13.2879 34.2198C13.6238 34.2198 13.9666 34.176 14.3148 34.0885C16.2565 33.6004 17.9972 31.7928 19.1439 30.3126C19.3334 30.587 19.5762 30.7704 19.7867 30.8893C21.4257 31.8148 23.8247 30.2785 25.5483 28.8264C27.3833 27.2805 29.2021 25.2022 30.4077 23.292C34.4495 24.5164 37.4913 27.155 38.1826 30.373C38.4499 34.1119 38.4883 37.9026 38.2963 41.6411C38.1118 45.2293 35.2655 48.0621 31.6752 48.2306C27.4618 48.43 23.1891 48.4299 18.9754 48.2306C15.3851 48.0621 12.5392 45.2293 12.3557 41.6419C12.3315 41.1634 12.3129 40.7431 12.2988 40.357C12.2839 39.9484 11.941 39.6297 11.5319 39.6442C11.1232 39.6591 10.8041 40.0026 10.8191 40.4111C10.8335 40.8041 10.8524 41.2311 10.8768 41.717C10.9024 42.217 10.9725 42.7041 11.0798 43.1764C8.23993 41.5192 6.90267 38.7478 6.90267 34.5856C6.90267 24.3015 15.1538 15.9348 25.2958 15.9348C28.6588 15.9348 31.9481 16.8633 34.8082 18.6199C35.1567 18.8339 35.6125 18.7248 35.8265 18.3765C36.0404 18.0281 35.9314 17.5721 35.5831 17.3581C32.4897 15.4583 28.9323 14.4541 25.2957 14.4541C14.3372 14.4541 5.42188 23.485 5.42188 34.5856C5.42188 39.9433 7.51419 43.4124 11.8128 45.1829C13.1566 47.7748 15.8011 49.5639 18.9056 49.7096C21.0359 49.8104 23.1804 49.8607 25.3255 49.8607C27.4702 49.8607 29.6154 49.8104 31.7449 49.7096C34.8619 49.5634 37.5161 47.7606 38.8552 45.1515C43.1024 43.3719 45.1697 39.9131 45.1697 34.5856C45.1697 28.6197 42.5792 22.9959 38.0622 19.1565ZM24.5944 27.6941C22.386 29.5543 21.0165 29.8834 20.5147 29.6C20.2103 29.4281 20.2337 28.9485 20.5845 28.1744C20.7477 27.814 20.5987 27.389 20.2462 27.2094C19.8935 27.0297 19.4621 27.1592 19.2664 27.5031C19.2599 27.5146 18.6049 28.6597 17.5969 29.8748C16.3198 31.4146 15.0594 32.3752 13.9523 32.6529C13.3794 32.7966 12.8491 32.7582 12.342 32.5356C12.3768 31.8094 12.4192 31.0832 12.4711 30.3586C13.0517 27.686 15.2551 25.3417 18.5444 23.9092C19.9808 23.2843 21.549 22.8699 23.208 22.6769C23.8904 22.5952 24.6031 22.5538 25.326 22.5538C26.5561 22.5538 27.7523 22.6777 28.8894 22.909C27.7713 24.5709 26.1647 26.3712 24.5944 27.6941ZM34.7856 23.6558C32.1626 21.9903 28.8032 21.0732 25.326 21.0732C24.5445 21.0732 23.7727 21.1181 23.0346 21.2065C21.2333 21.4159 19.5239 21.8684 17.9535 22.5515C15.8625 23.4621 14.1536 24.7173 12.9349 26.1976C13.2035 25.6021 13.558 25.0258 13.9945 24.4793C15.0851 23.1138 16.6585 21.9582 18.5446 21.1375C19.9813 20.5121 21.5496 20.0972 23.2081 19.9043C23.8902 19.8227 24.6027 19.7812 25.3261 19.7812C31.1438 19.7812 36.0815 22.4991 37.7385 26.235C36.9526 25.2731 35.9591 24.4009 34.7856 23.6558Z" fill="black"/>
<path d="M25.3258 42.7481C26.8054 42.7481 28.1714 41.8842 28.8058 40.5472C28.9812 40.1778 28.8238 39.7362 28.4543 39.5609C28.085 39.3856 27.6434 39.543 27.4681 39.9124C27.0775 40.7355 26.2365 41.2675 25.3257 41.2675C24.4149 41.2675 23.574 40.7356 23.1833 39.9124C23.0079 39.5431 22.5666 39.3856 22.197 39.561C21.8276 39.7363 21.6703 40.1779 21.8456 40.5473C22.4802 41.8841 23.8463 42.7481 25.3258 42.7481Z" fill="black"/>
<path d="M29.9865 37.7664C30.1245 38.0019 30.3714 38.1336 30.6253 38.1336C30.7517 38.1336 30.8798 38.101 30.9971 38.0323C31.0424 38.0067 32.126 37.4105 33.7988 37.7326C34.2001 37.8099 34.5885 37.5472 34.6658 37.1456C34.7431 36.7442 34.4803 36.3559 34.0789 36.2786C33.6113 36.1886 33.176 36.1554 32.7781 36.159C32.8992 35.8727 32.9703 35.535 32.9703 35.1724C32.9703 34.148 32.411 33.3146 31.7235 33.3146C31.036 33.3146 30.4767 34.148 30.4767 35.1724C30.4767 35.6874 30.6181 36.1538 30.846 36.4907C30.4852 36.619 30.2762 36.7385 30.2535 36.7518C29.9008 36.9585 29.7798 37.4136 29.9865 37.7664Z" fill="black"/>
<path d="M16.5731 36.2786C16.1716 36.356 15.9089 36.7441 15.9861 37.1456C16.0635 37.5471 16.4515 37.8099 16.8531 37.7325C18.5176 37.4118 19.599 38.0008 19.6542 38.0317C19.7706 38.0989 19.8978 38.1309 20.0234 38.1309C20.2775 38.1309 20.525 37.9999 20.6628 37.7648C20.8696 37.4121 20.7512 36.9585 20.3985 36.7517C20.3758 36.7384 20.1667 36.619 19.8059 36.4905C20.0339 36.1537 20.1753 35.6872 20.1753 35.1723C20.1753 34.1479 19.616 33.3145 18.9285 33.3145C18.2409 33.3145 17.6816 34.1479 17.6816 35.1723C17.6816 35.535 17.7528 35.8726 17.8738 36.159C17.4761 36.1555 17.0407 36.1886 16.5731 36.2786Z" fill="black"/>
</g>
<defs>
<clipPath id="clip0">
<rect width="50" height="49.8607" fill="white"/>
</clipPath>
</defs>
</svg>
