<svg width="100" height="119" viewBox="0 0 100 119" fill="none" xmlns="http://www.w3.org/2000/svg">
	<path d="M50 98.3257C22.3858 98.3257 0 76.3147 0 49.1628C0 22.011 22.3858 0 50 0C77.6142 0 100 22.011 100 49.1628C100 76.3147 77.6142 98.3257 50 98.3257Z" fill="#021729" />
	<path d="M50 98.3257C22.3858 98.3257 0 76.3147 0 49.1628C0 22.011 22.3858 0 50 0C77.6142 0 100 22.011 100 49.1628C100 76.3147 77.6142 98.3257 50 98.3257Z" stroke="black" />
	<path d="M40.5469 118H39.416V114.057H35.1152V118H33.9902V109.469H35.1152V113.137H39.416V109.469H40.5469V118ZM49.1074 114.01C49.1074 114.846 48.9668 115.576 48.6855 116.201C48.4043 116.822 48.0059 117.297 47.4902 117.625C46.9746 117.953 46.373 118.117 45.6855 118.117C45.0137 118.117 44.418 117.953 43.8984 117.625C43.3789 117.293 42.9746 116.822 42.6855 116.213C42.4004 115.6 42.2539 114.891 42.2461 114.086V113.471C42.2461 112.65 42.3887 111.926 42.6738 111.297C42.959 110.668 43.3613 110.188 43.8809 109.855C44.4043 109.52 45.002 109.352 45.6738 109.352C46.3574 109.352 46.959 109.518 47.4785 109.85C48.002 110.178 48.4043 110.656 48.6855 111.285C48.9668 111.91 49.1074 112.639 49.1074 113.471V114.01ZM47.9883 113.459C47.9883 112.447 47.7852 111.672 47.3789 111.133C46.9727 110.59 46.4043 110.318 45.6738 110.318C44.9629 110.318 44.4023 110.59 43.9922 111.133C43.5859 111.672 43.377 112.422 43.3652 113.383V114.01C43.3652 114.99 43.5703 115.762 43.9805 116.324C44.3945 116.883 44.9629 117.162 45.6855 117.162C46.4121 117.162 46.9746 116.898 47.373 116.371C47.7715 115.84 47.9766 115.08 47.9883 114.092V113.459ZM52.248 109.469L55.0371 116.43L57.8262 109.469H59.2852V118H58.1602V114.678L58.2656 111.092L55.4648 118H54.6035L51.8086 111.109L51.9199 114.678V118H50.7949V109.469H52.248ZM66.0938 114.057H62.3965V117.08H66.6914V118H61.2715V109.469H66.6328V110.395H62.3965V113.137H66.0938V114.057Z" fill="black" />
	<path d="M51.7678 29.2322C50.7915 28.2559 49.2085 28.2559 48.2322 29.2322L32.3223 45.1421C31.346 46.1184 31.346 47.7014 32.3223 48.6777C33.2986 49.654 34.8816 49.654 35.8579 48.6777L50 34.5355L64.1421 48.6777C65.1184 49.654 66.7014 49.654 67.6777 48.6777C68.654 47.7014 68.654 46.1184 67.6777 45.1421L51.7678 29.2322ZM52.5 61L52.5 31H47.5L47.5 61H52.5Z" fill="white" />
</svg>
