<svg width="57" height="78" viewBox="0 0 57 78" fill="none" xmlns="http://www.w3.org/2000/svg">
	<path d="M19.064 68.402V77H17.9V73.088H13.262V77H12.098V68.402H13.262V72.236H17.9V68.402H19.064ZM29.2061 72.704C29.2061 73.348 29.1041 73.94 28.9001 74.48C28.6961 75.016 28.4081 75.478 28.0361 75.866C27.6641 76.254 27.2161 76.556 26.6921 76.772C26.1721 76.984 25.5961 77.09 24.9641 77.09C24.3321 77.09 23.7561 76.984 23.2361 76.772C22.7161 76.556 22.2701 76.254 21.8981 75.866C21.5261 75.478 21.2381 75.016 21.0341 74.48C20.8301 73.94 20.7281 73.348 20.7281 72.704C20.7281 72.06 20.8301 71.47 21.0341 70.934C21.2381 70.394 21.5261 69.93 21.8981 69.542C22.2701 69.15 22.7161 68.846 23.2361 68.63C23.7561 68.414 24.3321 68.306 24.9641 68.306C25.5961 68.306 26.1721 68.414 26.6921 68.63C27.2161 68.846 27.6641 69.15 28.0361 69.542C28.4081 69.93 28.6961 70.394 28.9001 70.934C29.1041 71.47 29.2061 72.06 29.2061 72.704ZM28.0121 72.704C28.0121 72.176 27.9401 71.702 27.7961 71.282C27.6521 70.862 27.4481 70.508 27.1841 70.22C26.9201 69.928 26.6001 69.704 26.2241 69.548C25.8481 69.392 25.4281 69.314 24.9641 69.314C24.5041 69.314 24.0861 69.392 23.7101 69.548C23.3341 69.704 23.0121 69.928 22.7441 70.22C22.4801 70.508 22.2761 70.862 22.1321 71.282C21.9881 71.702 21.9161 72.176 21.9161 72.704C21.9161 73.232 21.9881 73.706 22.1321 74.126C22.2761 74.542 22.4801 74.896 22.7441 75.188C23.0121 75.476 23.3341 75.698 23.7101 75.854C24.0861 76.006 24.5041 76.082 24.9641 76.082C25.4281 76.082 25.8481 76.006 26.2241 75.854C26.6001 75.698 26.9201 75.476 27.1841 75.188C27.4481 74.896 27.6521 74.542 27.7961 74.126C27.9401 73.706 28.0121 73.232 28.0121 72.704ZM39.8174 68.402V77H38.7974V70.682C38.7974 70.598 38.7994 70.508 38.8034 70.412C38.8114 70.316 38.8194 70.218 38.8274 70.118L35.8754 75.494C35.7834 75.674 35.6434 75.764 35.4554 75.764H35.2874C35.0994 75.764 34.9594 75.674 34.8674 75.494L31.8554 70.094C31.8794 70.306 31.8914 70.502 31.8914 70.682V77H30.8714V68.402H31.7294C31.8334 68.402 31.9134 68.412 31.9694 68.432C32.0254 68.452 32.0794 68.508 32.1314 68.6L35.1014 73.892C35.1494 73.988 35.1954 74.088 35.2394 74.192C35.2874 74.296 35.3314 74.402 35.3714 74.51C35.4114 74.402 35.4534 74.296 35.4974 74.192C35.5414 74.084 35.5894 73.982 35.6414 73.886L38.5574 68.6C38.6054 68.508 38.6574 68.452 38.7134 68.432C38.7734 68.412 38.8554 68.402 38.9594 68.402H39.8174ZM47.32 76.052L47.314 77H42.016V68.402H47.314V69.35H43.18V72.206H46.528V73.118H43.18V76.052H47.32Z" fill="black" />
	<rect width="57" height="57" rx="10" fill="black" />
	<path d="M30.0607 18.9393C29.4749 18.3536 28.5251 18.3536 27.9393 18.9393L18.3934 28.4853C17.8076 29.0711 17.8076 30.0208 18.3934 30.6066C18.9792 31.1924 19.9289 31.1924 20.5147 30.6066L29 22.1213L37.4853 30.6066C38.0711 31.1924 39.0208 31.1924 39.6066 30.6066C40.1924 30.0208 40.1924 29.0711 39.6066 28.4853L30.0607 18.9393ZM30.5 40V20H27.5V40H30.5Z" fill="#FBFBFB" />
</svg>
