<svg width="130" height="130" viewBox="0 0 130 130" fill="none" xmlns="http://www.w3.org/2000/svg">
<g clip-path="url(#clip0)">
<path d="M103.784 102.421C100.296 111.276 96.0214 117.894 94.2568 117.199C84.1686 111.237 73.6976 105.949 62.9122 101.368L59.6795 97.9081C63.4471 94.8446 64.5686 89.5686 62.3727 85.2376C64.4225 79.8928 68.7036 76.3164 68.5839 73.6565C81.0617 78.3935 93.8653 82.2231 106.895 85.1155C108.659 85.8106 107.272 93.5659 103.784 102.421Z" fill="#F8E8AB"/>
<path d="M7.87522 83.1165L7.63168 83.0761C7.70876 83.1079 7.79203 83.1217 7.87522 83.1165Z" fill="#F8E8AB"/>
<path d="M20.4494 51.1008C20.3875 51.0681 20.3275 51.0321 20.2695 50.9929C20.3337 51.0214 20.3941 51.0577 20.4494 51.1008Z" fill="#F8E8AB"/>
<path d="M20.4656 51.107C31.2951 57.4747 42.5496 63.0905 54.1493 67.9147C54.2855 70.6739 56.2918 77.1532 54.0549 82.8319C53.9032 83.2169 53.7579 83.5859 53.5965 83.9485C50.4304 86.1759 48.7729 89.9845 49.3006 93.8195L44.6305 94.0554C32.643 89.5738 20.3625 85.9189 7.87524 83.1165L20.4656 51.107Z" fill="#F8E8AB"/>
<path d="M50.388 82.685C50.5494 82.3224 50.6948 81.9534 50.8464 81.5684C52.7524 77.2506 53.871 72.6267 54.1492 67.915C56.7484 69.0316 59.4789 70.1442 62.3183 71.2627C64.4518 72.1031 66.5436 72.9085 68.5838 73.6566C68.3374 78.0799 67.3155 82.4256 65.5649 86.4952L50.388 82.685Z" fill="#BA3A23"/>
<path d="M52.5483 100.77L44.256 109.307C43.7801 109.82 43.0417 109.994 42.3869 109.748C41.7321 109.503 41.2906 108.886 41.2694 108.186L41.1599 105.03L38.0099 105.124C37.3148 105.15 36.6728 104.753 36.3856 104.12C36.0984 103.486 36.2232 102.741 36.7013 102.236L44.6304 94.0558L46.0921 92.5561L52.5483 100.77Z" fill="#BA3A23"/>
<path d="M62.8717 99.1657L62.9121 101.368L63.138 112.65C63.143 113.345 62.7266 113.975 62.0844 114.243C61.4423 114.51 60.702 114.362 60.2116 113.869L57.9716 111.652L55.739 113.886C55.2467 114.383 54.503 114.533 53.8565 114.266C53.21 113.999 52.7888 113.368 52.7902 112.669L52.5483 100.77L62.8717 99.1657Z" fill="#BA3A23"/>
<path d="M103.54 55.9978L101.644 60.8103C101.295 61.6963 101.73 62.6974 102.616 63.0464L105.825 64.3102C106.711 64.6592 107.712 64.2239 108.061 63.3379L109.956 58.5254C110.654 56.7535 109.784 54.7513 108.012 54.0533C106.24 53.3553 104.238 54.2259 103.54 55.9978Z" fill="#F1D24B"/>
<path d="M49.9324 36.7487L30.18 19.4802C29.6363 19 29.4512 18.2309 29.7171 17.556C29.9829 16.8811 30.6428 16.4447 31.3679 16.4644L82.5716 18.1032C82.9854 18.118 83.3817 18.2741 83.6945 18.5456L122.26 52.2678C122.804 52.7479 122.989 53.5171 122.723 54.192C122.457 54.8669 121.797 55.3032 121.072 55.2836L109.358 54.913L104.289 54.7508L94.8491 54.4418L49.9324 36.7487Z" fill="#393F4B"/>
<path d="M45.547 47.8817L52.4979 30.2358C53.5468 27.5729 64.4517 29.3853 76.8519 34.2699C89.2521 39.1545 98.4635 45.2661 97.4146 47.929L90.4637 65.5749L45.547 47.8817Z" fill="#464F5E"/>
<path d="M107.38 55.6575C106.494 55.3085 106.059 54.3074 106.408 53.4215L110.553 42.8981C110.902 42.0122 111.903 41.5769 112.789 41.9258C113.675 42.2748 114.11 43.276 113.761 44.1619L109.616 54.6853C109.267 55.5712 108.266 56.0065 107.38 55.6575Z" fill="#EDC100"/>
<path d="M66.1096 61.5407C78.513 66.4265 89.4167 68.2326 90.4636 65.5748C91.5106 62.9169 82.3044 56.8015 69.901 51.9157C57.4976 47.0298 46.5939 45.2237 45.5469 47.8816C44.5 50.5395 53.7062 56.6548 66.1096 61.5407Z" fill="#393F4B"/>
<path d="M17.1588 68.2985C13.8224 76.7685 9.77084 83.1964 7.87502 83.1167C7.79183 83.1219 7.70855 83.1081 7.63148 83.0764C5.86689 82.3813 7.25405 74.6259 10.7421 65.7709C14.2302 56.9159 18.5049 50.298 20.2694 50.993C20.2879 50.9979 20.3033 51.0107 20.3113 51.028C20.3433 51.0407 20.3851 51.0757 20.4493 51.101L20.4654 51.1073C21.9125 52.3259 20.5079 59.7964 17.1588 68.2985Z" fill="#E2BE50"/>
<path d="M65.9647 94.936C63.8707 100.252 57.864 102.864 52.5483 100.77C47.2325 98.6757 44.6207 92.6689 46.7146 87.3532C48.8086 82.0375 54.8153 79.4257 60.131 81.5196C62.5024 82.4377 64.442 84.2137 65.5649 86.4952C66.9021 89.1214 67.0477 92.1952 65.9647 94.936Z" fill="#E04C34"/>
</g>
<defs>
<clipPath id="clip0">
<rect width="100" height="100" fill="white" transform="translate(36.6501) rotate(21.5)"/>
</clipPath>
</defs>
</svg>
