<svg width="51" height="34" viewBox="0 0 51 34" fill="none" xmlns="http://www.w3.org/2000/svg">
<path fill-rule="evenodd" clip-rule="evenodd" d="M19.9917 0.606272C20.3458 0.853623 20.645 1.15785 20.8853 1.49974C21.3219 1.86272 21.6727 2.34801 21.8868 2.93373L31.3383 28.7865C32.002 30.602 31.1014 32.6948 29.3267 33.4609C27.552 34.227 25.5752 33.3763 24.9115 31.5608L21.6489 22.6364C21.5673 22.6431 21.4848 22.6465 21.4016 22.6465H11.1851C11.1265 22.6465 11.0683 22.6448 11.0106 22.6415L6.24737 30.6929C5.26315 32.3566 3.18066 32.8079 1.59601 31.7009C0.0113648 30.5939 -0.475373 28.3479 0.508852 26.6842L15.3403 1.61427C16.3245 -0.0493935 18.407 -0.500689 19.9917 0.606272ZM14.5573 16.6465H19.459L17.5869 11.5255L14.5573 16.6465Z" fill="#DA4A54"/>
<path fill-rule="evenodd" clip-rule="evenodd" d="M42.5977 8.49988C42.5977 7.67145 41.9261 6.99988 41.0977 6.99988C40.2693 6.99988 39.5977 7.67145 39.5977 8.49988V14.9999H34C32.8954 14.9999 32 15.8953 32 16.9999C32 18.1044 32.8954 18.9999 34 18.9999H39.5977V25.4999C39.5977 26.3283 40.2693 26.9999 41.0977 26.9999C41.9261 26.9999 42.5977 26.3283 42.5977 25.4999V18.9999H48.2487C49.3533 18.9999 50.2487 18.1044 50.2487 16.9999C50.2487 15.8953 49.3533 14.9999 48.2487 14.9999H42.5977V8.49988Z" fill="#DA4A54"/>
</svg>
