<svg width="274" height="297" viewBox="0 0 274 297" fill="none" xmlns="http://www.w3.org/2000/svg">
<ellipse cx="20.5938" cy="213.811" rx="9.10938" ry="9.73482" fill="#C4C4C4"/>
<ellipse cx="10.3516" cy="285.062" rx="10.3516" ry="11.0623" fill="#C4C4C4"/>
<ellipse cx="44.1953" cy="146.11" rx="8.28125" ry="8.84984" fill="#C4C4C4"/>
<ellipse cx="82.7031" cy="92.5689" rx="7.45312" ry="7.96486" fill="#C4C4C4"/>
<ellipse cx="141.086" cy="43.8943" rx="6.625" ry="7.07987" fill="#C4C4C4"/>
<ellipse cx="209.406" cy="26.1949" rx="5.79687" ry="6.19489" fill="#C4C4C4"/>
<ellipse cx="267.375" cy="43.8943" rx="6.625" ry="7.07987" fill="#C4C4C4"/>
<path d="M201.548 1.364C201.848 1.364 202.106 1.466 202.322 1.67C202.55 1.874 202.664 2.12 202.664 2.408C202.664 2.564 202.628 2.726 202.556 2.894L198.11 13.298C198.002 13.526 197.852 13.7 197.66 13.82C197.468 13.94 197.264 14 197.048 14C196.844 13.988 196.652 13.928 196.472 13.82C196.304 13.7 196.172 13.532 196.076 13.316L191.63 2.876C191.57 2.756 191.54 2.606 191.54 2.426C191.54 2.102 191.66 1.844 191.9 1.652C192.14 1.448 192.386 1.346 192.638 1.346C192.842 1.346 193.034 1.406 193.214 1.526C193.394 1.646 193.532 1.82 193.628 2.048L197.246 10.562L200.558 2.048C200.654 1.832 200.792 1.664 200.972 1.544C201.152 1.424 201.344 1.364 201.548 1.364ZM208.504 7.17C208.29 7.17 208.124 7.24 208.004 7.38C207.89 7.52 207.834 7.71333 207.834 7.96V8.99H208.954C209.027 8.99 209.09 9.01667 209.144 9.07C209.204 9.12333 209.234 9.19 209.234 9.27C209.234 9.35 209.204 9.41667 209.144 9.47C209.09 9.52333 209.027 9.55 208.954 9.55H207.834V13.7C207.834 13.7867 207.804 13.86 207.744 13.92C207.69 13.9733 207.62 14 207.534 14C207.447 14 207.374 13.9733 207.314 13.92C207.26 13.86 207.234 13.7867 207.234 13.7V9.55H206.504C206.424 9.55 206.357 9.52333 206.304 9.47C206.25 9.41 206.224 9.34333 206.224 9.27C206.224 9.18333 206.25 9.11667 206.304 9.07C206.357 9.01667 206.424 8.99 206.504 8.99H207.234V7.96C207.234 7.54 207.354 7.21667 207.594 6.99C207.84 6.75667 208.167 6.64 208.574 6.64C208.76 6.64 208.934 6.67 209.094 6.73C209.254 6.78333 209.334 6.87333 209.334 7C209.334 7.08 209.307 7.14667 209.254 7.2C209.2 7.25333 209.14 7.28 209.074 7.28C209.014 7.28 208.94 7.26333 208.854 7.23C208.707 7.19 208.59 7.17 208.504 7.17ZM214.155 7.79C213.855 7.79 213.603 7.694 213.399 7.502C213.195 7.298 213.093 7.058 213.093 6.782C213.093 6.506 213.195 6.278 213.399 6.098C213.603 5.906 213.855 5.81 214.155 5.81H221.373C221.673 5.81 221.925 5.906 222.129 6.098C222.333 6.278 222.435 6.506 222.435 6.782C222.435 7.058 222.333 7.298 222.129 7.502C221.925 7.694 221.673 7.79 221.373 7.79H214.155ZM214.155 11.282C213.855 11.282 213.603 11.186 213.399 10.994C213.195 10.79 213.093 10.55 213.093 10.274C213.093 9.998 213.195 9.77 213.399 9.59C213.603 9.398 213.855 9.302 214.155 9.302H221.373C221.673 9.302 221.925 9.398 222.129 9.59C222.333 9.77 222.435 9.998 222.435 10.274C222.435 10.55 222.333 10.79 222.129 10.994C221.925 11.186 221.673 11.282 221.373 11.282H214.155ZM233.909 14.18C232.901 14.18 232.031 13.91 231.299 13.37C230.579 12.83 230.033 12.074 229.661 11.102C229.289 10.118 229.103 8.984 229.103 7.7C229.103 6.416 229.289 5.288 229.661 4.316C230.033 3.332 230.579 2.57 231.299 2.03C232.031 1.49 232.901 1.22 233.909 1.22C234.917 1.22 235.781 1.49 236.501 2.03C237.233 2.57 237.785 3.332 238.157 4.316C238.529 5.288 238.715 6.416 238.715 7.7C238.715 8.984 238.529 10.118 238.157 11.102C237.785 12.074 237.233 12.83 236.501 13.37C235.781 13.91 234.917 14.18 233.909 14.18ZM233.909 12.02C234.677 12.02 235.277 11.654 235.709 10.922C236.153 10.19 236.375 9.116 236.375 7.7C236.375 6.284 236.153 5.21 235.709 4.478C235.277 3.746 234.677 3.38 233.909 3.38C233.141 3.38 232.535 3.746 232.091 4.478C231.659 5.21 231.443 6.284 231.443 7.7C231.443 9.116 231.659 10.19 232.091 10.922C232.535 11.654 233.141 12.02 233.909 12.02Z" fill="black"/>
</svg>
