<svg width="50" height="50" viewBox="0 0 50 50" fill="none" xmlns="http://www.w3.org/2000/svg">
<g clip-path="url(#clip0)">
<path d="M50 25C50 30.4745 48.2399 35.5389 45.2553 39.6572C43.4265 42.1795 41.1377 44.3481 38.5113 46.0369C37.6255 46.6084 36.702 47.1233 35.7437 47.5784C34.4101 48.2155 33.0112 48.7358 31.5601 49.1295C30.3856 49.4492 29.1767 49.6845 27.9396 49.8287C26.9756 49.942 25.9937 50 25 50C23.5256 50 22.0818 49.8726 20.6776 49.6265C18.6039 49.2653 16.6183 48.6488 14.7541 47.8104C14.0968 47.5143 13.4552 47.1909 12.8296 46.8418C12.7285 46.7857 12.6274 46.7274 12.5267 46.6705C11.853 46.2818 11.2 45.8622 10.5675 45.4144C10.2909 45.2183 10.0185 45.0172 9.75113 44.8101C8.79402 44.0735 7.8907 43.2674 7.04994 42.4C6.09398 41.4143 5.21851 40.35 4.43382 39.2174C1.63765 35.1807 0 30.2814 0 25C0 17.9008 2.95906 11.4929 7.71141 6.94199C12.2009 2.64168 18.2907 0 25 0C31.7081 0 37.7979 2.64168 42.2878 6.94084C47.0409 11.4918 50 17.9008 50 25Z" stroke="black"/>
<path d="M31.8701 37.7817V42.0347C27.8151 45.4981 21.8436 45.4981 17.7886 42.0347V37.7817C21.8436 41.2451 27.8151 41.2451 31.8701 37.7817Z" fill="#BFD5DE"/>
<path d="M31.8701 37.7817V39.2798C27.8151 42.7431 21.8436 42.7431 17.7886 39.2798V37.7817C21.8436 41.2451 27.8151 41.2451 31.8701 37.7817Z" fill="#DDE8ED"/>
<path d="M45.2554 39.6574C41.9499 44.2163 37.143 47.6163 31.5602 49.1296C30.3857 49.4493 29.1768 49.6847 27.9397 49.8289V43.992C27.9397 40.2727 30.8042 37.2217 34.4491 36.9276C34.641 36.9115 34.8336 36.9043 35.0285 36.9043H39.6451C40.191 36.9043 40.7224 36.9646 41.2328 37.0817C42.8563 37.4532 44.2685 38.3829 45.2554 39.6574Z" fill="#BFD5DE"/>
<path d="M45.2552 39.6574C41.9498 44.2163 37.1429 47.6163 31.5601 49.1296V43.992C31.5601 40.0777 34.7346 36.9043 38.6501 36.9043H39.6457C41.9284 36.9043 43.959 37.9827 45.2552 39.6574Z" fill="#DDE8ED"/>
<path d="M30.3989 29.0855C30.3989 30.2563 29.5436 31.2271 28.4236 31.4075C28.3012 31.4274 28.1753 31.4377 28.0467 31.4377C26.7474 31.4377 25.6946 30.3848 25.6946 29.0855C25.6946 27.7863 26.7474 26.7334 28.0467 26.7334C28.1753 26.7334 28.3012 26.7437 28.4236 26.7635C29.5436 26.9436 30.3989 27.9144 30.3989 29.0855Z" fill="#D3A489"/>
<path d="M39.2402 39.4609L37.3375 42.5135L35.4343 39.4609" fill="#F74F4F"/>
<path d="M38.5112 46.0367C37.6254 46.6082 36.7019 47.1231 35.7437 47.5782L37.3378 41.7192L38.5112 46.0367Z" fill="#F74F4F"/>
<path d="M30.3989 29.0857C30.3989 30.2564 29.5436 31.2272 28.4236 31.4077C28.2203 30.6676 28.1116 29.8891 28.1116 29.0857C28.1116 28.2819 28.2203 27.5033 28.4236 26.7637C29.5436 26.9437 30.3989 27.9146 30.3989 29.0857Z" fill="#BF8E75"/>
<path d="M28.8877 29.0854C28.8877 29.5496 28.5112 29.9261 28.0469 29.9261C27.5827 29.9261 27.2065 29.5496 27.2065 29.0854C27.2065 28.6211 27.5827 28.2446 28.0469 28.2446C28.5112 28.2446 28.8877 28.6211 28.8877 29.0854Z" fill="#BF8E75"/>
<path d="M37.3368 39.8051L34.1454 41.5789L33.1746 37.0631L35.1574 35.895" fill="#BFD5DE"/>
<path d="M37.3367 39.8051L40.5284 41.5789L41.4993 37.0631L39.516 35.895" fill="#BFD5DE"/>
<path d="M44.2754 29.0855C44.2754 30.2563 45.1306 31.2271 46.2506 31.4075C46.3731 31.4274 46.499 31.4377 46.6275 31.4377C47.9268 31.4377 48.9797 30.3848 48.9797 29.0855C48.9797 27.7863 47.9268 26.7334 46.6275 26.7334C46.499 26.7334 46.3731 26.7437 46.2506 26.7635C45.1306 26.9436 44.2754 27.9144 44.2754 29.0855Z" fill="#D3A489"/>
<path d="M44.2754 29.0852C44.2754 30.2559 45.1306 31.2268 46.2506 31.4072C46.4543 30.6671 46.5627 29.8886 46.5627 29.0852C46.5627 28.2814 46.4543 27.5029 46.2506 26.7632C45.1306 26.9432 44.2754 27.9141 44.2754 29.0852Z" fill="#BF8E75"/>
<path d="M47.4684 29.0854C47.4684 29.5496 47.0919 29.9261 46.6276 29.9261C46.1634 29.9261 45.7869 29.5496 45.7869 29.0854C45.7869 28.6211 46.1634 28.2446 46.6276 28.2446C47.0919 28.2446 47.4684 28.6211 47.4684 29.0854Z" fill="#BF8E75"/>
<path d="M46.0889 27.8353C46.0889 32.1902 42.9075 35.8031 38.7418 36.4737C38.2852 36.5488 37.816 36.5866 37.3372 36.5866C32.5036 36.5866 28.5859 32.6689 28.5859 27.8353C28.5859 25.5484 29.3802 22.1152 30.8164 20.5561C32.4155 18.82 34.7905 19.0836 37.3372 19.0836C37.816 19.0836 38.2848 19.1218 38.7418 19.1966C42.9075 19.8676 46.0889 23.4801 46.0889 27.8353Z" fill="#BF8E75"/>
<path d="M39.8668 34.1724V37.2764C39.8668 38.4128 39.1176 39.3733 38.0853 39.6922C37.8492 39.7655 37.5974 39.8051 37.3369 39.8051C35.9403 39.8051 34.8081 38.6733 34.8081 37.2764V34.1724H39.8668Z" fill="#BF8E75"/>
<path d="M39.8667 37.0801V37.2765C39.8667 38.4133 39.1174 39.3735 38.0852 39.6928C37.154 39.4063 36.454 38.5968 36.3247 37.6061C36.4937 37.6164 36.6635 37.6218 36.8344 37.6218C37.3127 37.6218 37.7819 37.5836 38.2389 37.5085C38.8016 37.4181 39.3459 37.2731 39.8667 37.0801Z" fill="#D3A489"/>
<path d="M46.0889 27.8355C46.0889 32.1904 42.9074 35.8033 38.7417 36.4739C34.5765 35.8033 31.395 32.1904 31.395 27.8355C31.395 25.1538 32.6012 22.7536 34.5013 21.148C35.6862 20.1463 37.1415 19.4547 38.7417 19.1968C42.6251 19.822 45.6544 23.005 46.0457 26.9627C46.074 27.25 46.0889 27.5414 46.0889 27.8355Z" fill="#D3A489"/>
<path d="M37.3372 32.1457C36.6044 32.1457 35.8716 31.9618 35.2037 31.5948C35.0152 31.4911 34.9466 31.2545 35.0503 31.0661C35.1537 30.8777 35.3906 30.809 35.579 30.9124C36.68 31.5178 37.9949 31.5178 39.0958 30.9124C39.2843 30.809 39.5211 30.8777 39.6245 31.0661C39.7283 31.2545 39.6592 31.4911 39.4712 31.5948C38.8028 31.9618 38.07 32.1457 37.3372 32.1457Z" fill="#BF8E75"/>
<path d="M35.4736 27.3256C35.4736 27.8741 35.0288 28.3186 34.4806 28.3186C33.9324 28.3186 33.488 27.8741 33.488 27.3256C33.488 26.7774 33.9324 26.333 34.4806 26.333C35.0288 26.333 35.4736 26.7774 35.4736 27.3256Z" fill="#3D4159"/>
<path d="M41.1865 27.3256C41.1865 27.8741 40.7421 28.3186 40.1939 28.3186C39.6453 28.3186 39.2009 27.8741 39.2009 27.3256C39.2009 26.7774 39.6453 26.333 40.1939 26.333C40.7421 26.333 41.1865 26.7774 41.1865 27.3256Z" fill="#3D4159"/>
<path d="M35.2711 27.1509C35.2711 27.3859 35.0807 27.5763 34.8457 27.5763C34.6108 27.5763 34.4204 27.3859 34.4204 27.1509C34.4204 26.9159 34.6108 26.7256 34.8457 26.7256C35.0807 26.7256 35.2711 26.9159 35.2711 27.1509Z" fill="white"/>
<path d="M41.0328 27.1509C41.0328 27.3859 40.8425 27.5763 40.6075 27.5763C40.3725 27.5763 40.1821 27.3859 40.1821 27.1509C40.1821 26.9159 40.3725 26.7256 40.6075 26.7256C40.8425 26.7256 41.0328 26.9159 41.0328 27.1509Z" fill="white"/>
<path d="M38.33 29.8255H36.3444C36.1079 29.8255 35.916 29.6337 35.916 29.3971C35.916 29.1606 36.1079 28.9688 36.3444 28.9688H38.33C38.5665 28.9688 38.758 29.1606 38.758 29.3971C38.758 29.6337 38.5665 29.8255 38.33 29.8255Z" fill="#BF8E75"/>
<path d="M36.8252 16.5836C39.4764 16.7732 41.6046 18.9148 41.7397 21.6106L41.7648 22.1164H43.2896L44.1113 27.5787L46.1006 26.963L45.8332 21.6106C45.6925 18.779 43.3502 16.5596 40.5159 16.5699L36.8252 16.5836Z" fill="#2A2F4F"/>
<path d="M45.6651 14.4717C47.7761 16.5827 47.7761 20.0057 45.6651 22.1167C43.554 24.2278 40.1311 24.2278 38.02 22.1167L45.6651 14.4717Z" fill="#3D4159"/>
<path d="M38.02 22.1164H31.3851L30.5638 27.5787L28.5745 26.963L28.8411 21.6106C28.9823 18.7793 31.3245 16.5592 34.1592 16.5699L43.7409 16.6057L45.0078 18.8861" fill="#3D4159"/>
<path d="M37.8494 16.5836C35.1982 16.7732 33.0696 18.9148 32.9349 21.6106L32.9098 22.1164H31.3846L30.563 27.5787L28.574 26.963L28.841 21.6106C28.9821 18.779 31.3244 16.5596 34.1587 16.5699L37.8494 16.5836Z" fill="#2A2F4F"/>
<path d="M20.6776 43.1806V49.6267C13.9614 48.4571 8.16537 44.6061 4.43384 39.2175C5.31122 38.0441 6.56854 37.1717 8.02461 36.783C8.12761 36.7543 8.23175 36.7288 8.3378 36.7063C8.61856 36.6449 8.90619 36.6033 9.19916 36.5796C9.37769 36.5655 9.55812 36.5571 9.74084 36.5571H14.0541C14.5367 36.5571 15.0063 36.6082 15.4591 36.7063C15.4858 36.7112 15.5113 36.7173 15.5369 36.7234C15.6132 36.741 15.6887 36.7593 15.7643 36.7795C15.7673 36.7807 15.7673 36.7807 15.7704 36.7818C16.5165 36.9806 17.2104 37.3071 17.8265 37.7359C19.55 38.9318 20.6776 40.9246 20.6776 43.1806Z" fill="#3D4159"/>
<path d="M15.7868 36.7061L15.7704 36.7816L13.6582 46.606C13.5491 46.6151 13.4389 46.6235 13.3287 46.6315C13.1745 46.6418 13.0185 46.651 12.8625 46.6571C12.7511 46.662 12.639 46.6674 12.5268 46.6704C11.8531 46.2817 11.2001 45.8621 10.5676 45.4142C10.291 45.2182 10.0186 45.0171 9.75124 44.81L8.0247 36.7816L8.0083 36.7061H15.7868Z" fill="#F74F4F"/>
<path d="M13.6757 38.9468L11.8977 41.7983L10.1196 38.9468" fill="#DDE8ED"/>
<path d="M13.1848 47.0357C13.2512 46.7858 13.3023 46.6336 13.3286 46.6317L11.8981 41.0562L10.7468 45.5399L13.1848 47.0357Z" fill="#DDE8ED"/>
<path d="M11.8974 39.2686L8.91544 40.9257L8.0083 36.7066L9.8611 35.6152" fill="#DD3033"/>
<path d="M11.8972 39.2686L14.8788 40.9257L15.7859 36.7066L13.9331 35.6152" fill="#DD3033"/>
<path d="M15.8989 42.3999H16.8449L14.7541 47.8103C14.0968 47.5142 13.4552 47.1908 12.8296 46.8417L15.7642 36.7793L15.7867 36.7061L17.8265 37.3725L15.8989 42.3999Z" fill="#2A2F4F"/>
<path d="M10.5676 45.4142C9.30298 44.5193 8.12576 43.5099 7.05002 42.3999H7.87476L5.94604 37.3725L7.98691 36.7061L8.00827 36.7793L10.5676 45.4142Z" fill="#2A2F4F"/>
<path d="M14.2608 34.0059V36.9058C14.2608 37.9678 13.5608 38.865 12.5965 39.1629C12.3756 39.2316 12.1406 39.2686 11.8972 39.2686C10.5922 39.2686 9.53442 38.2108 9.53442 36.9058V34.0059H14.2608Z" fill="#EAB599"/>
<path d="M14.2609 36.7222V36.9057C14.2609 37.9677 13.5609 38.8649 12.5966 39.1628C11.7264 38.8954 11.0722 38.1389 10.9517 37.2135C11.1092 37.223 11.2683 37.228 11.4277 37.228C11.8748 37.228 12.3127 37.1925 12.74 37.1223C13.266 37.038 13.7742 36.9026 14.2609 36.7222Z" fill="#F6CAAE"/>
<path d="M5.41531 29.2528C5.41531 30.3469 4.61613 31.2536 3.56976 31.4222C3.45532 31.4406 3.33783 31.4505 3.21767 31.4505C2.00383 31.4505 1.02002 30.4667 1.02002 29.2528C1.02002 28.039 2.00383 27.0552 3.21767 27.0552C3.33783 27.0552 3.45532 27.0651 3.56976 27.0834C4.61613 27.2516 5.41531 28.1588 5.41531 29.2528Z" fill="#F6CAAE"/>
<path d="M5.41531 29.2529C5.41531 30.347 4.61613 31.2537 3.56976 31.4223C3.37979 30.7311 3.27832 30.0036 3.27832 29.2529C3.27832 28.5022 3.37979 27.7747 3.56976 27.0835C4.61613 27.2517 5.41531 28.1589 5.41531 29.2529Z" fill="#EAB599"/>
<path d="M4.00302 29.2532C4.00302 29.687 3.65131 30.0387 3.21758 30.0387C2.78384 30.0387 2.43213 29.687 2.43213 29.2532C2.43213 28.8195 2.78384 28.4678 3.21758 28.4678C3.65131 28.4678 4.00302 28.8195 4.00302 29.2532Z" fill="#EAB599"/>
<path d="M18.3796 29.2528C18.3796 30.3469 19.1788 31.2536 20.2252 31.4222C20.3396 31.4406 20.4571 31.4505 20.5773 31.4505C21.7911 31.4505 22.7749 30.4667 22.7749 29.2528C22.7749 28.039 21.7911 27.0552 20.5773 27.0552C20.4571 27.0552 20.3396 27.0651 20.2252 27.0834C19.1788 27.2516 18.3796 28.1588 18.3796 29.2528Z" fill="#F6CAAE"/>
<path d="M18.3796 29.2529C18.3796 30.347 19.1788 31.2537 20.2252 31.4223C20.4155 30.7311 20.517 30.0036 20.517 29.2529C20.517 28.5022 20.4155 27.7747 20.2252 27.0835C19.1788 27.2517 18.3796 28.1589 18.3796 29.2529Z" fill="#EAB599"/>
<path d="M20.0737 24.9717V28.0853C20.0737 32.154 17.1012 35.5293 13.2095 36.1557C13.1965 36.1579 13.1828 36.1602 13.1694 36.1621C12.7555 36.2285 12.3306 36.2613 11.8972 36.2613C7.38177 36.2613 3.72119 32.6007 3.72119 28.0853V24.9717C3.72119 24.0207 3.8837 23.1071 4.18315 22.2583C5.30124 19.0761 8.33354 16.7949 11.8972 16.7949H11.898C12.3306 16.7949 12.7563 16.8285 13.171 16.8937C17.0818 17.5048 20.0737 20.8892 20.0737 24.9717Z" fill="#EAB599"/>
<path d="M21.3626 29.2532C21.3626 29.687 21.0109 30.0387 20.5772 30.0387C20.1435 30.0387 19.7917 29.687 19.7917 29.2532C19.7917 28.8195 20.1435 28.4678 20.5772 28.4678C21.0109 28.4678 21.3626 28.8195 21.3626 29.2532Z" fill="#EAB599"/>
<path d="M20.0737 24.9716V28.0851C20.0737 32.1535 17.1013 35.5291 13.2096 36.1555C13.1966 36.1574 13.1829 36.1597 13.1695 36.162C9.25868 35.5509 6.26758 32.1668 6.26758 28.0847V24.9712C6.26758 20.8887 9.25945 17.5047 13.171 16.8936C17.0819 17.5047 20.0737 20.8891 20.0737 24.9716Z" fill="#F6CAAE"/>
<path d="M10.1564 27.6094C10.1564 28.1213 9.74132 28.5367 9.229 28.5367C8.71669 28.5367 8.30127 28.1213 8.30127 27.6094C8.30127 27.0971 8.71669 26.6816 9.229 26.6816C9.74132 26.6816 10.1564 27.0971 10.1564 27.6094Z" fill="#3D4159"/>
<path d="M15.4941 27.6094C15.4941 28.1213 15.0787 28.5367 14.5664 28.5367C14.0541 28.5367 13.6387 28.1213 13.6387 27.6094C13.6387 27.0971 14.0541 26.6816 14.5664 26.6816C15.0787 26.6816 15.4941 27.0971 15.4941 27.6094Z" fill="#3D4159"/>
<path d="M9.96735 27.4454C9.96735 27.6652 9.7892 27.8429 9.56985 27.8429C9.35013 27.8429 9.17236 27.6652 9.17236 27.4454C9.17236 27.2261 9.35013 27.0483 9.56985 27.0483C9.7892 27.0483 9.96735 27.2261 9.96735 27.4454Z" fill="white"/>
<path d="M15.3504 27.4454C15.3504 27.6652 15.1726 27.8429 14.9529 27.8429C14.7336 27.8429 14.5554 27.6652 14.5554 27.4454C14.5554 27.2261 14.7336 27.0483 14.9529 27.0483C15.1726 27.0483 15.3504 27.2261 15.3504 27.4454Z" fill="white"/>
<path d="M12.8249 29.5806H10.9698C10.749 29.5806 10.5701 29.4013 10.5701 29.1804C10.5701 28.9596 10.749 28.7803 10.9698 28.7803H12.8249C13.0462 28.7803 13.2251 28.9596 13.2251 29.1804C13.2251 29.4013 13.0462 29.5806 12.8249 29.5806Z" fill="#EAB599"/>
<path d="M11.8977 32.1119C11.213 32.1119 10.5283 31.9402 9.90418 31.5973C9.72832 31.5004 9.66423 31.2791 9.76074 31.1033C9.85764 30.927 10.0789 30.863 10.2547 30.9595C11.2836 31.5252 12.5119 31.5252 13.5407 30.9595C13.7166 30.863 13.9378 30.927 14.0347 31.1033C14.1316 31.2791 14.0672 31.5004 13.8913 31.5973C13.2668 31.9402 12.5825 32.1119 11.8977 32.1119Z" fill="#EAB599"/>
<path d="M20.0737 22.1456V25.3351H18.552V22.8376L7.56717 20.7964L5.24326 20.3642V25.3351H3.72119V22.1456C3.72119 18.5098 6.66805 15.563 10.3035 15.563H13.4918C13.5784 15.563 13.665 15.5645 13.7516 15.5687C17.266 15.7041 20.0737 18.5964 20.0737 22.1456Z" fill="#021729"/>
<path d="M20.0736 22.1458V25.3352H18.5519V22.8378L7.56714 20.7965C8.17253 17.8893 10.6944 15.6867 13.7515 15.5688C17.266 15.7043 20.0736 18.5966 20.0736 22.1458Z" fill="black"/>
<path d="M34.8571 8.12874C34.8571 12.8387 31.5551 16.7767 27.1396 17.7521C26.4518 17.9062 25.7346 17.9867 24.9999 17.9867C19.556 17.9867 15.1416 13.5723 15.1416 8.12874C15.1416 5.2784 16.3509 2.71111 18.2857 0.911331C20.4215 0.317383 22.6733 0 24.9999 0C27.3265 0 29.5776 0.317383 31.7142 0.911331C33.6478 2.71111 34.8571 5.2784 34.8571 8.12874Z" fill="#DDE8ED"/>
<path d="M30.8765 8.12849C30.8765 10.9365 28.9082 13.2844 26.2756 13.8662C25.8652 13.9577 25.4379 14.0058 25 14.0058C21.7541 14.0058 19.1223 11.3744 19.1223 8.12849C19.1223 4.88257 21.7541 2.25195 25 2.25195C25.4379 2.25195 25.8652 2.29964 26.2756 2.39043C28.9082 2.97331 30.8765 5.32011 30.8765 8.12849Z" fill="#FFF0AA"/>
<path d="M30.8765 8.12869C30.8765 10.9367 28.9082 13.2846 26.2756 13.8664C23.6427 13.2846 21.6736 10.9367 21.6736 8.12869C21.6736 5.32031 23.6427 2.97351 26.2756 2.39062C28.9082 2.97351 30.8765 5.32031 30.8765 8.12869Z" fill="#FFE152"/>
<path d="M24.9995 10.5952C22.9697 10.5952 21.3184 8.94386 21.3184 6.91406H22.454C22.454 8.31749 23.5961 9.45961 24.9995 9.45961C26.4034 9.45961 27.5451 8.31749 27.5451 6.91406H28.6807C28.6807 8.94386 27.0293 10.5952 24.9995 10.5952Z" fill="white"/>
<path d="M24.4319 10.0278H25.5675V15.384H24.4319V10.0278Z" fill="white"/>
<path d="M28.0448 13.2139V15.3364C28.0448 16.1836 27.3581 16.871 26.5113 16.871H23.4885C22.6409 16.871 21.9539 16.1836 21.9539 15.3364V13.2139H28.0448Z" fill="#2A2F4F"/>
<path d="M28.0448 13.2139V15.3364C28.0448 16.1836 27.3581 16.871 26.5113 16.871H25.207C24.3602 16.871 23.6724 16.1836 23.6724 15.3364V13.2139H28.0448Z" fill="#3D4159"/>
<path d="M20.6947 38.8106C20.4109 39.4648 19.6498 39.7654 18.9945 39.4812L16.4699 38.3864C16.143 38.2445 15.9042 37.9832 15.7825 37.6757C15.6612 37.3682 15.657 37.0138 15.7985 36.6873C15.8756 36.5092 15.9885 36.3569 16.1254 36.236C16.4886 35.9118 17.0215 35.8084 17.4983 36.0152L20.0229 37.11C20.3506 37.2523 20.5898 37.5139 20.7111 37.821C20.7664 37.9606 20.7977 38.1113 20.8007 38.2635C20.8061 38.4463 20.7717 38.6324 20.6947 38.8106Z" fill="#BF8E75"/>
<path d="M20.8008 38.2636C20.4369 38.5875 19.9039 38.6901 19.4275 38.4834L16.9025 37.3885C16.576 37.2466 16.3368 36.985 16.2155 36.6779C16.1602 36.5383 16.1297 36.388 16.1255 36.2361C16.4886 35.9119 17.0216 35.8085 17.4984 36.0149L20.023 37.1101C20.3506 37.2524 20.5898 37.5137 20.7111 37.8211C20.7664 37.9608 20.7977 38.1114 20.8008 38.2636Z" fill="#D3A489"/>
</g>
<defs>
<clipPath id="clip0">
<rect width="50" height="50" fill="white"/>
</clipPath>
</defs>
</svg>
