<svg width="50" height="50" viewBox="0 0 50 50" fill="none" xmlns="http://www.w3.org/2000/svg">
<g clip-path="url(#clip0)">
<path d="M25.9766 48.046C25.9766 49.1248 25.1022 49.9991 24.0234 49.9991H1.95312C0.874329 49.9991 0 49.1248 0 48.046V21.1581C0 20.5783 0.257492 20.0286 0.702667 19.6578L23.7495 0.451923C24.474 -0.151943 25.526 -0.151943 26.2505 0.451923L49.2973 19.6578C50.1259 20.3482 50.2377 21.5796 49.5472 22.4086C48.8567 23.2371 47.625 23.3489 46.7964 22.6584L25 4.49474L3.90625 22.0729V46.0929H24.0234C25.1022 46.0929 25.9766 46.9672 25.9766 48.046ZM46.9082 42.7623C44.7651 45.346 41.5649 47.7114 37.3962 49.7935C36.8465 50.0678 36.2003 50.0678 35.6506 49.7935C31.4819 47.7114 28.2818 45.346 26.1391 42.7623C19.7777 35.0936 24.2073 26.6299 30.7617 26.6299C33.3736 26.6299 35.2951 27.6992 36.5234 28.7028C37.7518 27.6992 39.6732 26.6299 42.2852 26.6299C48.8522 26.6299 53.2536 35.1123 46.9082 42.7623ZM42.2852 30.5362C39.5832 30.5362 38.1649 32.5618 38.1512 32.582C37.3402 33.8053 35.63 33.7306 34.9007 32.59C34.7809 32.4218 33.3786 30.5362 30.7617 30.5362C26.5518 30.5362 22.9359 38.6493 36.5234 45.8499C50.111 38.6493 46.4958 30.5362 42.2852 30.5362Z" fill="#021729"/>
</g>
<defs>
<clipPath id="clip0">
<rect width="50" height="50" fill="white"/>
</clipPath>
</defs>
</svg>
