<?xml version="1.0" encoding="utf-8"?>
<!-- Generator: Adobe Illustrator 23.0.1, SVG Export Plug-In . SVG Version: 6.00 Build 0)  -->
<svg version="1.1" id="Layer_1" xmlns="http://www.w3.org/2000/svg" xmlns:xlink="http://www.w3.org/1999/xlink" x="0px" y="0px"
	 viewBox="0 0 157 86" style="enable-background:new 0 0 157 86;" xml:space="preserve">
<path d="M43.3,5.9c-0.1-0.8-0.9-1.3-1.6-1.1c-4.7,1-9.9,3-13.7,5.5c-4.2,2.8-7.8,6.3-10.5,10.5c-2.7,4.1-4.5,8.7-5.3,13.6
	c-0.8,4.8-0.5,9.7,0.7,14.4c1.3,4.7,3.5,9.1,6.6,12.9c3.1,3.8,7,7,11.5,9.3c4.4,2.3,9.3,3.7,14.4,4.1c4.6,0.4,9.2-0.1,13.6-1.3
	c0.8-0.2,1.2-1,0.9-1.8c-0.2-0.7-1-1.1-1.8-0.9c-4,1.1-8.3,1.6-12.4,1.2c-4.6-0.4-9.2-1.6-13.2-3.8c-4.1-2.1-7.7-5-10.5-8.5
	c-2.9-3.5-4.9-7.6-6.1-11.9c-1.2-4.3-1.4-8.9-0.7-13.3c0.7-4.4,2.4-8.7,4.9-12.5c2.5-3.8,5.8-7.1,9.6-9.6c3.5-2.3,8.3-4.1,12.6-5
	C43,7.4,43.5,6.7,43.3,5.9z"/>
<path d="M38.5,67.7c-2.5,0.9-3.8,1.4-4.8,1.2c-1-0.2-1.8-0.7-2.4-1.5c-0.6-0.8-0.6-2.1-0.7-4.7l-0.1-2.3c-0.1-3.5-0.2-5.2,0.5-6.2
	c0.7-0.9,1.7-1.5,2.9-1.6c1.2-0.1,2.7,0.9,5.7,2.8L42,57c3,1.9,4.5,2.9,4.9,4c0.4,1,0.3,2.2-0.4,3.1c-0.7,1-2.4,1.6-5.7,2.8
	L38.5,67.7z"/>
<path d="M50,24c2.8-4.6,9-6.2,13.7-3.5c4.8,2.7,6.3,8.6,3.5,13.2l-8.8,14.3c-2.8,4.6-9,6.2-13.7,3.5c-4.8-2.7-6.6-7.5-3.7-12.1
	L50,24z"/>
<path d="M75.6,16.6l3.7-0.6v3.9h4.5V23h-4.5v4.6c0,0.8,0.1,1.4,0.4,1.9c0.3,0.5,0.8,0.7,1.7,0.7c0.4,0,0.8,0,1.2-0.1
	c0.4-0.1,0.8-0.2,1.2-0.3l0.5,2.9c-0.4,0.2-0.9,0.3-1.5,0.5c-0.5,0.1-1.2,0.2-2,0.2c-1,0-1.9-0.1-2.5-0.4c-0.7-0.3-1.2-0.7-1.6-1.2
	c-0.4-0.5-0.7-1.1-0.8-1.8c-0.2-0.7-0.2-1.5-0.2-2.3V16.6z M98.1,32.5c-0.6,0.2-1.4,0.4-2.4,0.5c-1,0.2-2.1,0.3-3.1,0.3
	c-1.1,0-2.1-0.1-2.8-0.5c-0.7-0.3-1.3-0.7-1.8-1.2c-0.4-0.6-0.7-1.2-0.9-2c-0.2-0.8-0.3-1.6-0.3-2.5v-7.3h3.7v6.9
	c0,1.2,0.2,2.1,0.5,2.6c0.3,0.5,0.9,0.8,1.8,0.8c0.3,0,0.5,0,0.8,0c0.3,0,0.6-0.1,0.8-0.1V19.9h3.7V32.5z M101.5,16.6l3.7-0.6v3.9
	h4.5V23h-4.5v4.6c0,0.8,0.1,1.4,0.4,1.9c0.3,0.5,0.8,0.7,1.7,0.7c0.4,0,0.8,0,1.2-0.1c0.4-0.1,0.8-0.2,1.2-0.3l0.5,2.9
	c-0.4,0.2-0.9,0.3-1.5,0.5c-0.5,0.1-1.2,0.2-2,0.2c-1,0-1.9-0.1-2.5-0.4c-0.7-0.3-1.2-0.7-1.6-1.2c-0.4-0.5-0.7-1.1-0.9-1.8
	c-0.1-0.7-0.2-1.5-0.2-2.3V16.6z M117.2,30.4c0.4,0,0.7,0,1,0c0.3,0,0.6,0,0.8-0.1v-2.8c-0.1,0-0.4-0.1-0.7-0.1c-0.3,0-0.6,0-0.8,0
	c-0.3,0-0.7,0-1,0.1c-0.3,0-0.6,0.1-0.8,0.2c-0.2,0.1-0.4,0.3-0.5,0.5c-0.1,0.2-0.2,0.4-0.2,0.8c0,0.6,0.2,1,0.6,1.2
	C116,30.3,116.5,30.4,117.2,30.4z M116.9,19.5c1.1,0,2,0.1,2.8,0.4c0.7,0.3,1.3,0.6,1.8,1.1c0.4,0.5,0.8,1,0.9,1.7
	c0.2,0.7,0.3,1.4,0.3,2.2v7.8c-0.5,0.1-1.3,0.3-2.2,0.4c-0.9,0.2-2.1,0.3-3.4,0.3c-0.9,0-1.6-0.1-2.3-0.2c-0.7-0.1-1.3-0.4-1.8-0.7
	c-0.5-0.4-0.9-0.8-1.1-1.4c-0.3-0.6-0.4-1.2-0.4-2c0-0.8,0.2-1.4,0.4-2c0.3-0.5,0.7-1,1.3-1.3c0.5-0.3,1.1-0.5,1.8-0.7
	c0.7-0.1,1.4-0.2,2.1-0.2c0.5,0,0.9,0,1.3,0.1c0.4,0,0.7,0.1,0.9,0.1v-0.3c0-0.6-0.2-1.1-0.6-1.5c-0.4-0.4-1.1-0.6-2-0.6
	c-0.6,0-1.3,0-1.9,0.1c-0.6,0.1-1.1,0.2-1.6,0.4l-0.5-3c0.2-0.1,0.5-0.1,0.8-0.2c0.3-0.1,0.7-0.1,1.1-0.2c0.4-0.1,0.8-0.1,1.2-0.1
	C116.1,19.5,116.5,19.5,116.9,19.5z M137.2,23.9l2.6-4h3.9l-4.5,6.3c1,1.3,1.9,2.5,2.7,3.7c0.8,1.2,1.5,2.2,1.9,3.2h-4
	c-0.1-0.3-0.3-0.6-0.5-0.9c-0.2-0.4-0.4-0.8-0.7-1.2c-0.3-0.4-0.5-0.8-0.8-1.2c-0.3-0.4-0.5-0.8-0.8-1.1c-0.3,0.3-0.5,0.7-0.8,1.1
	c-0.3,0.4-0.5,0.8-0.7,1.2c-0.2,0.4-0.5,0.8-0.7,1.1c-0.2,0.4-0.4,0.7-0.6,1.1h-3.8c0.2-0.4,0.5-0.9,0.8-1.5
	c0.4-0.6,0.7-1.1,1.1-1.8c0.4-0.6,0.9-1.2,1.3-1.8c0.4-0.6,0.9-1.2,1.3-1.7c-0.8-1.1-1.5-2.1-2.3-3.2c-0.8-1.1-1.5-2.1-2.2-3.2h4
	L137.2,23.9z M82,47.4V48h-3.9v-6.9h0.7v6.3H82z M82.5,45.4c0-0.5,0.1-0.8,0.2-1.2c0.1-0.3,0.3-0.6,0.5-0.8c0.2-0.2,0.5-0.4,0.7-0.5
	c0.3-0.1,0.6-0.2,0.8-0.2c0.6,0,1.1,0.2,1.5,0.6c0.4,0.4,0.6,1,0.6,1.9c0,0.1,0,0.1,0,0.2c0,0.1,0,0.1,0,0.1h-3.6
	c0,0.6,0.2,1.1,0.5,1.5c0.3,0.3,0.8,0.5,1.4,0.5c0.4,0,0.6,0,0.8-0.1c0.2-0.1,0.4-0.1,0.4-0.2l0.1,0.6c-0.1,0.1-0.3,0.1-0.5,0.2
	c-0.3,0.1-0.6,0.1-0.9,0.1c-0.5,0-0.8-0.1-1.2-0.2s-0.6-0.3-0.8-0.6c-0.2-0.2-0.4-0.5-0.4-0.8C82.6,46.2,82.5,45.8,82.5,45.4z
	 M86.2,45c0-0.5-0.1-1-0.4-1.3c-0.2-0.3-0.6-0.5-1-0.5c-0.2,0-0.4,0-0.6,0.1c-0.2,0.1-0.3,0.2-0.5,0.4c-0.1,0.2-0.2,0.3-0.3,0.5
	c-0.1,0.2-0.1,0.4-0.1,0.7H86.2z M89.8,47.5c0.3,0,0.5,0,0.7,0c0.2,0,0.4,0,0.5-0.1v-1.8c-0.1,0-0.2-0.1-0.4-0.1
	c-0.2,0-0.4-0.1-0.7-0.1c-0.2,0-0.3,0-0.5,0c-0.2,0-0.3,0.1-0.5,0.2c-0.1,0.1-0.3,0.2-0.4,0.3c-0.1,0.1-0.1,0.3-0.1,0.5
	c0,0.2,0,0.4,0.1,0.5c0.1,0.1,0.2,0.2,0.3,0.3c0.1,0.1,0.3,0.1,0.4,0.2C89.4,47.5,89.6,47.5,89.8,47.5z M89.7,42.7
	c0.3,0,0.6,0,0.9,0.2c0.2,0.1,0.4,0.2,0.6,0.4c0.1,0.2,0.3,0.4,0.3,0.6c0.1,0.2,0.1,0.5,0.1,0.8v3.3c-0.1,0-0.2,0-0.3,0.1
	c-0.1,0-0.3,0-0.4,0.1c-0.2,0-0.4,0-0.6,0.1c-0.2,0-0.4,0-0.6,0c-0.3,0-0.5,0-0.8-0.1c-0.2-0.1-0.4-0.2-0.6-0.3
	c-0.2-0.1-0.3-0.3-0.4-0.5c-0.1-0.2-0.1-0.5-0.1-0.8c0-0.3,0.1-0.5,0.2-0.7c0.1-0.2,0.3-0.4,0.4-0.5c0.2-0.1,0.4-0.2,0.7-0.3
	c0.3-0.1,0.6-0.1,0.9-0.1c0.1,0,0.2,0,0.3,0c0.1,0,0.2,0,0.3,0c0.1,0,0.2,0,0.3,0c0.1,0,0.1,0,0.2,0v-0.3c0-0.2,0-0.4,0-0.5
	c0-0.2-0.1-0.3-0.2-0.5c-0.1-0.1-0.2-0.3-0.4-0.3c-0.2-0.1-0.4-0.1-0.6-0.1c-0.4,0-0.7,0-0.8,0.1c-0.2,0.1-0.3,0.1-0.4,0.1l-0.1-0.6
	c0.1-0.1,0.3-0.1,0.5-0.2C89.1,42.7,89.4,42.7,89.7,42.7z M94.8,42.7c0.2,0,0.4,0,0.6,0c0.2,0,0.3,0.1,0.4,0.1l-0.1,0.6
	c-0.1,0-0.2-0.1-0.3-0.1c-0.2,0-0.4,0-0.6,0c-0.3,0-0.5,0-0.7,0.1c-0.2,0-0.3,0.1-0.3,0.1V48H93v-4.9c0.2-0.1,0.4-0.1,0.7-0.2
	C94,42.8,94.4,42.7,94.8,42.7z M96.6,43c0.2-0.1,0.5-0.1,0.8-0.2s0.7-0.1,1.2-0.1c0.4,0,0.7,0.1,1,0.2c0.3,0.1,0.5,0.3,0.6,0.5
	c0.2,0.2,0.3,0.5,0.3,0.8c0.1,0.3,0.1,0.6,0.1,1V48h-0.6v-2.7c0-0.4,0-0.7-0.1-0.9c0-0.3-0.1-0.5-0.3-0.6c-0.1-0.2-0.3-0.3-0.5-0.3
	c-0.2-0.1-0.4-0.1-0.7-0.1c-0.3,0-0.6,0-0.8,0c-0.2,0-0.4,0.1-0.4,0.1V48h-0.6V43z M102.8,47c0,0.1,0,0.1,0,0.2s0,0.1,0,0.1
	c0,0.4-0.1,0.8-0.2,1.2c-0.1,0.4-0.3,0.7-0.5,1.1l-0.5-0.2c0.2-0.3,0.3-0.6,0.3-0.9c0.1-0.3,0.1-0.7,0.1-1c0-0.1,0-0.1,0-0.2
	c0-0.1,0-0.1,0-0.2H102.8z M108,47.5c0.3,0,0.5,0,0.7,0c0.2,0,0.4,0,0.5-0.1v-1.8c-0.1,0-0.2-0.1-0.4-0.1c-0.2,0-0.4-0.1-0.7-0.1
	c-0.2,0-0.3,0-0.5,0c-0.2,0-0.3,0.1-0.5,0.2c-0.1,0.1-0.3,0.2-0.4,0.3c-0.1,0.1-0.1,0.3-0.1,0.5c0,0.2,0,0.4,0.1,0.5
	c0.1,0.1,0.2,0.2,0.3,0.3c0.1,0.1,0.3,0.1,0.4,0.2C107.6,47.5,107.8,47.5,108,47.5z M108,42.7c0.3,0,0.6,0,0.9,0.2
	c0.2,0.1,0.4,0.2,0.6,0.4c0.1,0.2,0.3,0.4,0.3,0.6c0.1,0.2,0.1,0.5,0.1,0.8v3.3c-0.1,0-0.2,0-0.3,0.1c-0.1,0-0.3,0-0.4,0.1
	c-0.2,0-0.4,0-0.6,0.1c-0.2,0-0.4,0-0.6,0c-0.3,0-0.5,0-0.8-0.1c-0.2-0.1-0.4-0.2-0.6-0.3c-0.2-0.1-0.3-0.3-0.4-0.5
	c-0.1-0.2-0.1-0.5-0.1-0.8c0-0.3,0.1-0.5,0.2-0.7c0.1-0.2,0.3-0.4,0.4-0.5c0.2-0.1,0.4-0.2,0.7-0.3c0.3-0.1,0.6-0.1,0.9-0.1
	c0.1,0,0.2,0,0.3,0c0.1,0,0.2,0,0.3,0c0.1,0,0.2,0,0.3,0c0.1,0,0.1,0,0.1,0v-0.3c0-0.2,0-0.4,0-0.5c0-0.2-0.1-0.3-0.2-0.5
	c-0.1-0.1-0.2-0.3-0.4-0.3c-0.2-0.1-0.4-0.1-0.6-0.1c-0.4,0-0.7,0-0.8,0.1c-0.2,0.1-0.3,0.1-0.4,0.1l-0.1-0.6
	c0.1-0.1,0.3-0.1,0.5-0.2C107.3,42.7,107.6,42.7,108,42.7z M111.9,47.1c0.1,0,0.1,0.1,0.2,0.2c0.1,0.1,0.2,0.1,0.3,0.1
	c0.1,0,0.3,0.1,0.4,0.1c0.1,0,0.3,0,0.4,0c0.3,0,0.6-0.1,0.8-0.2c0.2-0.1,0.4-0.3,0.5-0.5c0.1-0.2,0.2-0.4,0.3-0.7
	c0.1-0.3,0.1-0.5,0.1-0.8c0-0.7-0.2-1.2-0.5-1.6c-0.3-0.4-0.8-0.5-1.3-0.5c-0.3,0-0.6,0-0.8,0c-0.2,0-0.3,0.1-0.4,0.1V47.1z
	 M111.9,49.8h-0.7V43c0.2-0.1,0.4-0.1,0.7-0.2s0.7-0.1,1.1-0.1c0.4,0,0.7,0.1,1,0.2c0.3,0.1,0.6,0.3,0.8,0.5
	c0.2,0.2,0.4,0.5,0.5,0.8c0.1,0.3,0.2,0.7,0.2,1.1c0,0.4-0.1,0.8-0.2,1.1c-0.1,0.3-0.3,0.6-0.4,0.8c-0.2,0.2-0.4,0.4-0.7,0.5
	c-0.3,0.1-0.6,0.2-1,0.2c-0.3,0-0.6,0-0.9-0.1c-0.2-0.1-0.4-0.2-0.5-0.3V49.8z M117.6,47.1c0.1,0,0.1,0.1,0.2,0.2
	c0.1,0.1,0.2,0.1,0.3,0.1c0.1,0,0.3,0.1,0.4,0.1c0.1,0,0.3,0,0.4,0c0.3,0,0.6-0.1,0.8-0.2c0.2-0.1,0.4-0.3,0.5-0.5
	c0.1-0.2,0.2-0.4,0.3-0.7c0.1-0.3,0.1-0.5,0.1-0.8c0-0.7-0.2-1.2-0.5-1.6c-0.3-0.4-0.8-0.5-1.4-0.5c-0.3,0-0.6,0-0.8,0
	c-0.2,0-0.3,0.1-0.4,0.1V47.1z M117.6,49.8h-0.6V43c0.2-0.1,0.4-0.1,0.7-0.2s0.7-0.1,1.1-0.1c0.4,0,0.7,0.1,1,0.2
	c0.3,0.1,0.6,0.3,0.8,0.5c0.2,0.2,0.4,0.5,0.5,0.8c0.1,0.3,0.2,0.7,0.2,1.1c0,0.4-0.1,0.8-0.2,1.1c-0.1,0.3-0.3,0.6-0.4,0.8
	c-0.2,0.2-0.4,0.4-0.7,0.5c-0.3,0.1-0.6,0.2-1,0.2c-0.3,0-0.6,0-0.9-0.1c-0.2-0.1-0.4-0.2-0.5-0.3V49.8z M123.8,48.1
	c-0.2,0-0.4,0-0.6-0.1c-0.2,0-0.3-0.1-0.4-0.2c-0.1-0.1-0.2-0.2-0.3-0.4c-0.1-0.2-0.1-0.4-0.1-0.6v-6.4l0.6-0.1v6.5
	c0,0.2,0,0.3,0,0.4c0,0.1,0.1,0.2,0.1,0.2c0.1,0.1,0.1,0.1,0.2,0.1c0.1,0,0.2,0,0.4,0.1L123.8,48.1z M126.3,48.1
	c-0.2-0.4-0.4-0.8-0.6-1.3c-0.2-0.4-0.4-0.9-0.6-1.3c-0.2-0.5-0.3-0.9-0.5-1.3c-0.1-0.5-0.3-0.9-0.4-1.3h0.7c0.1,0.3,0.2,0.7,0.3,1
	c0.1,0.4,0.2,0.7,0.4,1.1c0.1,0.4,0.3,0.8,0.5,1.2c0.2,0.4,0.4,0.8,0.6,1.2c0.1-0.4,0.3-0.8,0.4-1.2c0.1-0.4,0.2-0.7,0.3-1.1
	c0.1-0.4,0.2-0.7,0.3-1.1c0.1-0.4,0.2-0.8,0.3-1.2h0.6c-0.2,1-0.5,1.9-0.7,2.8c-0.3,0.9-0.6,1.8-0.9,2.5c-0.1,0.3-0.3,0.6-0.4,0.8
	c-0.1,0.2-0.3,0.4-0.4,0.5c-0.2,0.1-0.4,0.2-0.6,0.3c-0.2,0.1-0.5,0.1-0.8,0.1c-0.2,0-0.3,0-0.5-0.1c-0.1,0-0.2-0.1-0.3-0.1l0.1-0.5
	c0,0,0.1,0,0.2,0.1c0.1,0,0.3,0.1,0.4,0.1c0.2,0,0.4,0,0.5-0.1c0.2,0,0.3-0.1,0.4-0.2c0.1-0.1,0.2-0.2,0.3-0.4
	C126.1,48.5,126.2,48.3,126.3,48.1z M130.1,47c0,0.1,0,0.1,0,0.2s0,0.1,0,0.1c0,0.4-0.1,0.8-0.2,1.2c-0.1,0.4-0.3,0.7-0.5,1.1
	l-0.5-0.2c0.2-0.3,0.3-0.6,0.3-0.9c0.1-0.3,0.1-0.7,0.1-1c0-0.1,0-0.1,0-0.2c0-0.1,0-0.1,0-0.2H130.1z M74.6,59.4
	c0-0.5,0.1-0.8,0.2-1.2c0.1-0.3,0.3-0.6,0.5-0.8c0.2-0.2,0.5-0.4,0.7-0.5c0.3-0.1,0.6-0.2,0.8-0.2c0.6,0,1.1,0.2,1.5,0.6
	c0.4,0.4,0.6,1,0.6,1.9c0,0.1,0,0.1,0,0.2c0,0.1,0,0.1,0,0.1h-3.6c0,0.6,0.2,1.1,0.5,1.5s0.8,0.5,1.4,0.5c0.4,0,0.6,0,0.8-0.1
	s0.4-0.1,0.5-0.2l0.1,0.6c-0.1,0.1-0.3,0.1-0.5,0.2c-0.3,0.1-0.6,0.1-0.9,0.1c-0.5,0-0.8-0.1-1.2-0.2s-0.6-0.3-0.8-0.6
	c-0.2-0.2-0.4-0.5-0.4-0.8C74.6,60.2,74.6,59.8,74.6,59.4z M78.2,59c0-0.5-0.1-1-0.4-1.3c-0.2-0.3-0.6-0.5-1-0.5
	c-0.2,0-0.4,0-0.6,0.1c-0.2,0.1-0.3,0.2-0.5,0.4c-0.1,0.2-0.2,0.3-0.3,0.5c-0.1,0.2-0.1,0.4-0.1,0.7H78.2z M81.8,59.7
	c-0.1,0.2-0.3,0.4-0.4,0.6c-0.1,0.2-0.3,0.4-0.4,0.6c-0.1,0.2-0.3,0.4-0.4,0.6c-0.1,0.2-0.2,0.4-0.3,0.5h-0.7c0.3-0.5,0.6-1,0.9-1.4
	c0.3-0.4,0.6-0.9,0.9-1.3l-1.7-2.4h0.8l1.3,2l1.4-2h0.7l-1.7,2.4c0.1,0.2,0.3,0.4,0.4,0.6c0.2,0.2,0.3,0.4,0.5,0.7
	c0.2,0.2,0.3,0.5,0.5,0.7c0.2,0.3,0.3,0.5,0.4,0.8h-0.7c-0.1-0.1-0.2-0.3-0.3-0.5c-0.1-0.2-0.2-0.4-0.4-0.6
	c-0.1-0.2-0.3-0.4-0.4-0.6C82,60.1,81.9,59.9,81.8,59.7z M87,62.1c-0.4,0-0.8-0.1-1.1-0.2c-0.3-0.1-0.6-0.3-0.8-0.5
	c-0.2-0.2-0.4-0.5-0.5-0.9c-0.1-0.3-0.2-0.7-0.2-1.1c0-0.4,0.1-0.8,0.2-1.1c0.1-0.3,0.3-0.6,0.5-0.9c0.2-0.2,0.5-0.4,0.8-0.5
	c0.3-0.1,0.6-0.2,1-0.2c0.3,0,0.5,0,0.8,0.1c0.2,0,0.4,0.1,0.6,0.2l-0.2,0.6c-0.1-0.1-0.3-0.1-0.5-0.2s-0.4-0.1-0.7-0.1
	c-0.6,0-1,0.2-1.3,0.6c-0.3,0.4-0.4,0.9-0.4,1.6c0,0.3,0,0.6,0.1,0.8c0.1,0.3,0.2,0.5,0.3,0.7c0.2,0.2,0.3,0.3,0.6,0.4
	c0.2,0.1,0.5,0.2,0.9,0.2c0.3,0,0.5,0,0.7-0.1c0.2-0.1,0.3-0.1,0.4-0.2l0.1,0.6C88.2,61.9,88,62,87.8,62
	C87.5,62.1,87.3,62.1,87,62.1z M88.9,59.4c0-0.5,0.1-0.8,0.2-1.2c0.1-0.3,0.3-0.6,0.5-0.8c0.2-0.2,0.5-0.4,0.7-0.5
	c0.3-0.1,0.6-0.2,0.8-0.2c0.6,0,1.1,0.2,1.5,0.6c0.4,0.4,0.6,1,0.6,1.9c0,0.1,0,0.1,0,0.2c0,0.1,0,0.1,0,0.1h-3.6
	c0,0.6,0.2,1.1,0.5,1.5c0.3,0.3,0.8,0.5,1.4,0.5c0.4,0,0.6,0,0.8-0.1c0.2-0.1,0.4-0.1,0.5-0.2l0.1,0.6c-0.1,0.1-0.3,0.1-0.5,0.2
	c-0.3,0.1-0.6,0.1-0.9,0.1c-0.5,0-0.8-0.1-1.2-0.2s-0.6-0.3-0.8-0.6c-0.2-0.2-0.4-0.5-0.5-0.8C89,60.2,88.9,59.8,88.9,59.4z
	 M92.6,59c0-0.5-0.1-1-0.4-1.3c-0.2-0.3-0.6-0.5-1-0.5c-0.2,0-0.4,0-0.6,0.1c-0.2,0.1-0.3,0.2-0.5,0.4c-0.1,0.2-0.2,0.3-0.3,0.5
	c-0.1,0.2-0.1,0.4-0.1,0.7H92.6z M95.8,62.1c-0.2,0-0.4,0-0.6-0.1c-0.2,0-0.3-0.1-0.4-0.2c-0.1-0.1-0.2-0.2-0.3-0.4
	c-0.1-0.2-0.1-0.4-0.1-0.6v-6.4l0.7-0.1v6.5c0,0.2,0,0.3,0,0.4c0,0.1,0.1,0.2,0.1,0.2c0.1,0.1,0.1,0.1,0.2,0.1c0.1,0,0.2,0,0.3,0.1
	L95.8,62.1z M98.2,62.1c-0.2,0-0.4,0-0.6-0.1c-0.2,0-0.3-0.1-0.4-0.2c-0.1-0.1-0.2-0.2-0.3-0.4c-0.1-0.2-0.1-0.4-0.1-0.6v-6.4
	l0.6-0.1v6.5c0,0.2,0,0.3,0,0.4c0,0.1,0.1,0.2,0.1,0.2c0.1,0.1,0.1,0.1,0.2,0.1c0.1,0,0.2,0,0.3,0.1L98.2,62.1z M100.2,61.5
	c0,0.2-0.1,0.3-0.2,0.5s-0.3,0.2-0.5,0.2s-0.4-0.1-0.5-0.2c-0.1-0.1-0.2-0.3-0.2-0.5s0.1-0.3,0.2-0.5c0.1-0.1,0.3-0.2,0.5-0.2
	s0.4,0.1,0.5,0.2C100.2,61.1,100.2,61.3,100.2,61.5z"/>
</svg>
