<svg width="176" height="68" viewBox="0 0 176 68" fill="none" xmlns="http://www.w3.org/2000/svg">
<path d="M37.5371 9.71428C34.0543 9.98035 30.6646 10.9395 27.5777 12.5324C24.4909 14.1253 21.7726 16.318 19.5909 18.9749C17.4093 21.6318 15.8108 24.6964 14.8943 27.979C13.9778 31.2616 13.7629 34.6924 14.2627 38.0591C14.7626 41.4259 15.9667 44.6569 17.8004 47.5524C19.6341 50.4478 22.0586 52.9461 24.9237 54.8925C27.7888 56.839 31.0336 58.1923 34.4574 58.8686C37.8811 59.545 41.411 59.5301 44.8286 58.8248L44.4113 56.9074C41.2631 57.5571 38.0115 57.5708 34.8576 56.9478C31.7037 56.3247 28.7147 55.0781 26.0754 53.2851C23.4362 51.4921 21.2029 49.1908 19.5137 46.5236C17.8245 43.8564 16.7154 40.88 16.2549 37.7787C15.7944 34.6774 15.9925 31.517 16.8367 28.4932C17.6809 25.4693 19.1534 22.6464 21.1631 20.1989C23.1727 17.7514 25.6768 15.7315 28.5203 14.2642C31.3638 12.7969 34.4863 11.9134 37.6946 11.6683L37.5371 9.71428Z" fill="white"/>
<path d="M30.3081 53.2423C28.5174 53.6829 27.6221 53.9032 26.936 53.6959C26.2816 53.4981 25.7364 53.0526 25.4227 52.4595C25.0939 51.8376 25.1612 50.9407 25.2959 49.1471L25.4154 47.5566C25.5971 45.1373 25.6879 43.9276 26.2365 43.306C26.7573 42.7157 27.5319 42.3969 28.3296 42.4446C29.1697 42.4948 30.1239 43.2745 32.0324 44.8338L33.5007 46.0335C35.4092 47.5928 36.3634 48.3724 36.56 49.1693C36.7468 49.926 36.5589 50.7241 36.0524 51.3261C35.5189 51.96 34.3113 52.2572 31.8959 52.8516L30.3081 53.2423Z" fill="white"/>
<path d="M41.5513 23.7861C43.8517 20.8137 48.1911 20.2198 51.2438 22.4597C54.2964 24.6996 54.9063 28.9251 52.606 31.8975L45.4451 41.1506C43.1448 44.1231 38.8053 44.7169 35.7527 42.477C32.7 40.2371 31.8409 36.7436 34.1412 33.7712L41.5513 23.7861Z" fill="white"/>
<path d="M63.9448 15.2226V18.5063H66.1177V21.3627H63.9448V27.4052C63.9448 27.9016 64.0343 28.2475 64.2134 28.4428C64.3924 28.6381 64.7464 28.7358 65.2754 28.7358C65.6823 28.7358 66.0241 28.7113 66.3008 28.6625V31.6044C65.5602 31.8404 64.7871 31.9584 63.9814 31.9584C62.5654 31.9584 61.5197 31.6248 60.8442 30.9574C60.1688 30.2901 59.8311 29.2769 59.8311 27.9179V21.3627H58.1465V18.5063H59.8311V15.2226H63.9448ZM75.6147 30.2861C74.744 31.401 73.568 31.9584 72.0869 31.9584C70.6383 31.9584 69.5397 31.5393 68.791 30.7011C68.0505 29.8547 67.6802 28.6422 67.6802 27.0634V18.5063H71.7939V27.0878C71.7939 28.219 72.3433 28.7846 73.4419 28.7846C74.3859 28.7846 75.0573 28.4469 75.4561 27.7714V18.5063H79.5942V31.7143H75.7368L75.6147 30.2861ZM86.6499 15.2226V18.5063H88.8228V21.3627H86.6499V27.4052C86.6499 27.9016 86.7394 28.2475 86.9185 28.4428C87.0975 28.6381 87.4515 28.7358 87.9805 28.7358C88.3874 28.7358 88.7292 28.7113 89.0059 28.6625V31.6044C88.2653 31.8404 87.4922 31.9584 86.6865 31.9584C85.2705 31.9584 84.2248 31.6248 83.5493 30.9574C82.8739 30.2901 82.5361 29.2769 82.5361 27.9179V21.3627H80.8516V18.5063H82.5361V15.2226H86.6499ZM89.5674 24.9882C89.5674 23.6698 89.8237 22.498 90.3364 21.4726C90.8491 20.4391 91.5856 19.6456 92.5459 19.0922C93.5062 18.5388 94.6333 18.2621 95.9272 18.2621C97.9048 18.2621 99.4632 18.8766 100.603 20.1054C101.742 21.3261 102.312 22.9903 102.312 25.0981V25.2446C102.312 27.3035 101.738 28.9392 100.59 30.1518C99.451 31.3562 97.9048 31.9584 95.9517 31.9584C94.0718 31.9584 92.5622 31.3969 91.4229 30.2738C90.2835 29.1427 89.6691 27.6127 89.5796 25.684L89.5674 24.9882ZM93.6812 25.2446C93.6812 26.4653 93.8724 27.3604 94.2549 27.9301C94.6374 28.4998 95.203 28.7846 95.9517 28.7846C97.4165 28.7846 98.1652 27.6575 98.1978 25.4032V24.9882C98.1978 22.62 97.4409 21.436 95.9272 21.436C94.5519 21.436 93.8073 22.4573 93.6934 24.4999L93.6812 25.2446ZM69.0079 44.4918V45.7143H62.9104V34.9668H64.3579V44.4918H69.0079ZM74.5435 41.0868C74.5435 40.7768 74.4985 40.4943 74.4085 40.2393C74.3235 39.9793 74.196 39.7568 74.026 39.5718C73.861 39.3818 73.6585 39.2368 73.4185 39.1368C73.1785 39.0318 72.906 38.9793 72.601 38.9793C71.961 38.9793 71.4535 39.1668 71.0785 39.5418C70.7085 39.9118 70.4785 40.4268 70.3885 41.0868H74.5435ZM75.6235 44.6493C75.4585 44.8493 75.261 45.0243 75.031 45.1743C74.801 45.3193 74.5535 45.4393 74.2885 45.5343C74.0285 45.6293 73.7585 45.6993 73.4785 45.7443C73.1985 45.7943 72.921 45.8193 72.646 45.8193C72.121 45.8193 71.636 45.7318 71.191 45.5568C70.751 45.3768 70.3685 45.1168 70.0435 44.7768C69.7235 44.4318 69.4735 44.0068 69.2935 43.5018C69.1135 42.9968 69.0235 42.4168 69.0235 41.7618C69.0235 41.2318 69.1035 40.7368 69.2635 40.2768C69.4285 39.8168 69.6635 39.4193 69.9685 39.0843C70.2735 38.7443 70.646 38.4793 71.086 38.2893C71.526 38.0943 72.021 37.9968 72.571 37.9968C73.026 37.9968 73.446 38.0743 73.831 38.2293C74.221 38.3793 74.556 38.5993 74.836 38.8893C75.121 39.1743 75.3435 39.5293 75.5035 39.9543C75.6635 40.3743 75.7435 40.8543 75.7435 41.3943C75.7435 41.6043 75.721 41.7443 75.676 41.8143C75.631 41.8843 75.546 41.9193 75.421 41.9193H70.3435C70.3585 42.3993 70.4235 42.8168 70.5385 43.1718C70.6585 43.5268 70.8235 43.8243 71.0335 44.0643C71.2435 44.2993 71.4935 44.4768 71.7835 44.5968C72.0735 44.7118 72.3985 44.7693 72.7585 44.7693C73.0935 44.7693 73.381 44.7318 73.621 44.6568C73.866 44.5768 74.076 44.4918 74.251 44.4018C74.426 44.3118 74.571 44.2293 74.686 44.1543C74.806 44.0743 74.9085 44.0343 74.9935 44.0343C75.1035 44.0343 75.1885 44.0768 75.2485 44.1618L75.6235 44.6493ZM81.2008 42.2943C80.5858 42.3143 80.0608 42.3643 79.6258 42.4443C79.1958 42.5193 78.8433 42.6193 78.5683 42.7443C78.2983 42.8693 78.1008 43.0168 77.9758 43.1868C77.8558 43.3568 77.7958 43.5468 77.7958 43.7568C77.7958 43.9568 77.8283 44.1293 77.8933 44.2743C77.9583 44.4193 78.0458 44.5393 78.1558 44.6343C78.2708 44.7243 78.4033 44.7918 78.5533 44.8368C78.7083 44.8768 78.8733 44.8968 79.0483 44.8968C79.2833 44.8968 79.4983 44.8743 79.6933 44.8293C79.8883 44.7793 80.0708 44.7093 80.2408 44.6193C80.4158 44.5293 80.5808 44.4218 80.7358 44.2968C80.8958 44.1718 81.0508 44.0293 81.2008 43.8693V42.2943ZM76.8883 39.1893C77.3083 38.7843 77.7608 38.4818 78.2458 38.2818C78.7308 38.0818 79.2683 37.9818 79.8583 37.9818C80.2833 37.9818 80.6608 38.0518 80.9908 38.1918C81.3208 38.3318 81.5983 38.5268 81.8233 38.7768C82.0483 39.0268 82.2183 39.3293 82.3333 39.6843C82.4483 40.0393 82.5058 40.4293 82.5058 40.8543V45.7143H81.9133C81.7833 45.7143 81.6833 45.6943 81.6133 45.6543C81.5433 45.6093 81.4883 45.5243 81.4483 45.3993L81.2983 44.6793C81.0983 44.8643 80.9033 45.0293 80.7133 45.1743C80.5233 45.3143 80.3233 45.4343 80.1133 45.5343C79.9033 45.6293 79.6783 45.7018 79.4383 45.7518C79.2033 45.8068 78.9408 45.8343 78.6508 45.8343C78.3558 45.8343 78.0783 45.7943 77.8183 45.7143C77.5583 45.6293 77.3308 45.5043 77.1358 45.3393C76.9458 45.1743 76.7933 44.9668 76.6783 44.7168C76.5683 44.4618 76.5133 44.1618 76.5133 43.8168C76.5133 43.5168 76.5958 43.2293 76.7608 42.9543C76.9258 42.6743 77.1933 42.4268 77.5633 42.2118C77.9333 41.9968 78.4158 41.8218 79.0108 41.6868C79.6058 41.5468 80.3358 41.4668 81.2008 41.4468V40.8543C81.2008 40.2643 81.0733 39.8193 80.8183 39.5193C80.5633 39.2143 80.1908 39.0618 79.7008 39.0618C79.3708 39.0618 79.0933 39.1043 78.8683 39.1893C78.6483 39.2693 78.4558 39.3618 78.2908 39.4668C78.1308 39.5668 77.9908 39.6593 77.8708 39.7443C77.7558 39.8243 77.6408 39.8643 77.5258 39.8643C77.4358 39.8643 77.3583 39.8418 77.2933 39.7968C77.2283 39.7468 77.1733 39.6868 77.1283 39.6168L76.8883 39.1893ZM85.5068 39.6393C85.7468 39.1193 86.0418 38.7143 86.3918 38.4243C86.7418 38.1293 87.1693 37.9818 87.6743 37.9818C87.8343 37.9818 87.9868 37.9993 88.1318 38.0343C88.2818 38.0693 88.4143 38.1243 88.5293 38.1993L88.4318 39.1968C88.4018 39.3218 88.3268 39.3843 88.2068 39.3843C88.1368 39.3843 88.0343 39.3693 87.8993 39.3393C87.7643 39.3093 87.6118 39.2943 87.4418 39.2943C87.2018 39.2943 86.9868 39.3293 86.7968 39.3993C86.6118 39.4693 86.4443 39.5743 86.2943 39.7143C86.1493 39.8493 86.0168 40.0193 85.8968 40.2243C85.7818 40.4243 85.6768 40.6543 85.5818 40.9143V45.7143H84.2393V38.1168H85.0043C85.1493 38.1168 85.2493 38.1443 85.3043 38.1993C85.3593 38.2543 85.3968 38.3493 85.4168 38.4843L85.5068 39.6393ZM90.6632 39.2193C90.8282 39.0343 91.0032 38.8668 91.1882 38.7168C91.3732 38.5668 91.5682 38.4393 91.7732 38.3343C91.9832 38.2243 92.2032 38.1418 92.4332 38.0868C92.6682 38.0268 92.9207 37.9968 93.1907 37.9968C93.6057 37.9968 93.9707 38.0668 94.2857 38.2068C94.6057 38.3418 94.8707 38.5368 95.0807 38.7918C95.2957 39.0418 95.4582 39.3443 95.5682 39.6993C95.6782 40.0543 95.7332 40.4468 95.7332 40.8768V45.7143H94.3907V40.8768C94.3907 40.3018 94.2582 39.8568 93.9932 39.5418C93.7332 39.2218 93.3357 39.0618 92.8007 39.0618C92.4057 39.0618 92.0357 39.1568 91.6907 39.3468C91.3507 39.5368 91.0357 39.7943 90.7457 40.1193V45.7143H89.4032V38.1168H90.2057C90.3957 38.1168 90.5132 38.2093 90.5582 38.3943L90.6632 39.2193ZM97.385 47.5293C97.345 47.4943 97.3175 47.4618 97.3025 47.4318C97.2875 47.4018 97.28 47.3643 97.28 47.3193C97.28 47.2843 97.29 47.2493 97.31 47.2143C97.335 47.1793 97.3625 47.1468 97.3925 47.1168C97.4425 47.0618 97.505 46.9893 97.58 46.8993C97.66 46.8093 97.74 46.7018 97.82 46.5768C97.9 46.4568 97.9725 46.3218 98.0375 46.1718C98.1075 46.0268 98.1575 45.8718 98.1875 45.7068C98.1725 45.7118 98.155 45.7143 98.135 45.7143C98.12 45.7143 98.105 45.7143 98.09 45.7143C97.83 45.7143 97.6175 45.6293 97.4525 45.4593C97.2925 45.2843 97.2125 45.0618 97.2125 44.7918C97.2125 44.5568 97.2925 44.3568 97.4525 44.1918C97.6175 44.0268 97.835 43.9443 98.105 43.9443C98.255 43.9443 98.3875 43.9718 98.5025 44.0268C98.6175 44.0818 98.7125 44.1593 98.7875 44.2593C98.8675 44.3543 98.9275 44.4668 98.9675 44.5968C99.0075 44.7218 99.0275 44.8593 99.0275 45.0093C99.0275 45.2343 98.995 45.4693 98.93 45.7143C98.87 45.9543 98.7775 46.1918 98.6525 46.4268C98.5325 46.6668 98.385 46.8993 98.21 47.1243C98.035 47.3493 97.835 47.5568 97.61 47.7468L97.385 47.5293ZM108.221 42.2943C107.606 42.3143 107.081 42.3643 106.646 42.4443C106.216 42.5193 105.864 42.6193 105.589 42.7443C105.319 42.8693 105.121 43.0168 104.996 43.1868C104.876 43.3568 104.816 43.5468 104.816 43.7568C104.816 43.9568 104.849 44.1293 104.914 44.2743C104.979 44.4193 105.066 44.5393 105.176 44.6343C105.291 44.7243 105.424 44.7918 105.574 44.8368C105.729 44.8768 105.894 44.8968 106.069 44.8968C106.304 44.8968 106.519 44.8743 106.714 44.8293C106.909 44.7793 107.091 44.7093 107.261 44.6193C107.436 44.5293 107.601 44.4218 107.756 44.2968C107.916 44.1718 108.071 44.0293 108.221 43.8693V42.2943ZM103.909 39.1893C104.329 38.7843 104.781 38.4818 105.266 38.2818C105.751 38.0818 106.289 37.9818 106.879 37.9818C107.304 37.9818 107.681 38.0518 108.011 38.1918C108.341 38.3318 108.619 38.5268 108.844 38.7768C109.069 39.0268 109.239 39.3293 109.354 39.6843C109.469 40.0393 109.526 40.4293 109.526 40.8543V45.7143H108.934C108.804 45.7143 108.704 45.6943 108.634 45.6543C108.564 45.6093 108.509 45.5243 108.469 45.3993L108.319 44.6793C108.119 44.8643 107.924 45.0293 107.734 45.1743C107.544 45.3143 107.344 45.4343 107.134 45.5343C106.924 45.6293 106.699 45.7018 106.459 45.7518C106.224 45.8068 105.961 45.8343 105.671 45.8343C105.376 45.8343 105.099 45.7943 104.839 45.7143C104.579 45.6293 104.351 45.5043 104.156 45.3393C103.966 45.1743 103.814 44.9668 103.699 44.7168C103.589 44.4618 103.534 44.1618 103.534 43.8168C103.534 43.5168 103.616 43.2293 103.781 42.9543C103.946 42.6743 104.214 42.4268 104.584 42.2118C104.954 41.9968 105.436 41.8218 106.031 41.6868C106.626 41.5468 107.356 41.4668 108.221 41.4468V40.8543C108.221 40.2643 108.094 39.8193 107.839 39.5193C107.584 39.2143 107.211 39.0618 106.721 39.0618C106.391 39.0618 106.114 39.1043 105.889 39.1893C105.669 39.2693 105.476 39.3618 105.311 39.4668C105.151 39.5668 105.011 39.6593 104.891 39.7443C104.776 39.8243 104.661 39.8643 104.546 39.8643C104.456 39.8643 104.379 39.8418 104.314 39.7968C104.249 39.7468 104.194 39.6868 104.149 39.6168L103.909 39.1893ZM112.602 43.8843C112.847 44.2143 113.115 44.4468 113.405 44.5818C113.695 44.7168 114.02 44.7843 114.38 44.7843C115.09 44.7843 115.635 44.5318 116.015 44.0268C116.395 43.5218 116.585 42.8018 116.585 41.8668C116.585 41.3718 116.54 40.9468 116.45 40.5918C116.365 40.2368 116.24 39.9468 116.075 39.7218C115.91 39.4918 115.707 39.3243 115.467 39.2193C115.227 39.1143 114.955 39.0618 114.65 39.0618C114.215 39.0618 113.832 39.1618 113.502 39.3618C113.177 39.5618 112.877 39.8443 112.602 40.2093V43.8843ZM112.535 39.2943C112.855 38.8993 113.225 38.5818 113.645 38.3418C114.065 38.1018 114.545 37.9818 115.085 37.9818C115.525 37.9818 115.922 38.0668 116.277 38.2368C116.632 38.4018 116.935 38.6493 117.185 38.9793C117.435 39.3043 117.627 39.7093 117.762 40.1943C117.897 40.6793 117.965 41.2368 117.965 41.8668C117.965 42.4268 117.89 42.9493 117.74 43.4343C117.59 43.9143 117.372 44.3318 117.087 44.6868C116.807 45.0368 116.462 45.3143 116.052 45.5193C115.647 45.7193 115.19 45.8193 114.68 45.8193C114.215 45.8193 113.815 45.7418 113.48 45.5868C113.15 45.4268 112.857 45.2068 112.602 44.9268V48.2868H111.26V38.1168H112.062C112.252 38.1168 112.37 38.2093 112.415 38.3943L112.535 39.2943ZM120.711 43.8843C120.956 44.2143 121.223 44.4468 121.513 44.5818C121.803 44.7168 122.128 44.7843 122.488 44.7843C123.198 44.7843 123.743 44.5318 124.123 44.0268C124.503 43.5218 124.693 42.8018 124.693 41.8668C124.693 41.3718 124.648 40.9468 124.558 40.5918C124.473 40.2368 124.348 39.9468 124.183 39.7218C124.018 39.4918 123.816 39.3243 123.576 39.2193C123.336 39.1143 123.063 39.0618 122.758 39.0618C122.323 39.0618 121.941 39.1618 121.611 39.3618C121.286 39.5618 120.986 39.8443 120.711 40.2093V43.8843ZM120.643 39.2943C120.963 38.8993 121.333 38.5818 121.753 38.3418C122.173 38.1018 122.653 37.9818 123.193 37.9818C123.633 37.9818 124.031 38.0668 124.386 38.2368C124.741 38.4018 125.043 38.6493 125.293 38.9793C125.543 39.3043 125.736 39.7093 125.871 40.1943C126.006 40.6793 126.073 41.2368 126.073 41.8668C126.073 42.4268 125.998 42.9493 125.848 43.4343C125.698 43.9143 125.481 44.3318 125.196 44.6868C124.916 45.0368 124.571 45.3143 124.161 45.5193C123.756 45.7193 123.298 45.8193 122.788 45.8193C122.323 45.8193 121.923 45.7418 121.588 45.5868C121.258 45.4268 120.966 45.2068 120.711 44.9268V48.2868H119.368V38.1168H120.171C120.361 38.1168 120.478 38.2093 120.523 38.3943L120.643 39.2943ZM128.856 34.6668V45.7143H127.521V34.6668H128.856ZM137.276 38.1168L133.039 47.9568C132.994 48.0568 132.936 48.1368 132.866 48.1968C132.801 48.2568 132.699 48.2868 132.559 48.2868H131.569L132.956 45.2718L129.821 38.1168H130.976C131.091 38.1168 131.181 38.1468 131.246 38.2068C131.316 38.2618 131.364 38.3243 131.389 38.3943L133.421 43.1793C133.501 43.3893 133.569 43.6093 133.624 43.8393C133.694 43.6043 133.769 43.3818 133.849 43.1718L135.821 38.3943C135.851 38.3143 135.901 38.2493 135.971 38.1993C136.046 38.1443 136.129 38.1168 136.219 38.1168H137.276ZM58.975 62.5293C58.935 62.4943 58.9075 62.4618 58.8925 62.4318C58.8775 62.4018 58.87 62.3643 58.87 62.3193C58.87 62.2843 58.88 62.2493 58.9 62.2143C58.925 62.1793 58.9525 62.1468 58.9825 62.1168C59.0325 62.0618 59.095 61.9893 59.17 61.8993C59.25 61.8093 59.33 61.7018 59.41 61.5768C59.49 61.4568 59.5625 61.3218 59.6275 61.1718C59.6975 61.0268 59.7475 60.8718 59.7775 60.7068C59.7625 60.7118 59.745 60.7143 59.725 60.7143C59.71 60.7143 59.695 60.7143 59.68 60.7143C59.42 60.7143 59.2075 60.6293 59.0425 60.4593C58.8825 60.2843 58.8025 60.0618 58.8025 59.7918C58.8025 59.5568 58.8825 59.3568 59.0425 59.1918C59.2075 59.0268 59.425 58.9443 59.695 58.9443C59.845 58.9443 59.9775 58.9718 60.0925 59.0268C60.2075 59.0818 60.3025 59.1593 60.3775 59.2593C60.4575 59.3543 60.5175 59.4668 60.5575 59.5968C60.5975 59.7218 60.6175 59.8593 60.6175 60.0093C60.6175 60.2343 60.585 60.4693 60.52 60.7143C60.46 60.9543 60.3675 61.1918 60.2425 61.4268C60.1225 61.6668 59.975 61.8993 59.8 62.1243C59.625 62.3493 59.425 62.5568 59.2 62.7468L58.975 62.5293ZM67.2409 56.0868C67.2409 55.7768 67.1959 55.4943 67.1059 55.2393C67.0209 54.9793 66.8934 54.7568 66.7234 54.5718C66.5584 54.3818 66.3559 54.2368 66.1159 54.1368C65.8759 54.0318 65.6034 53.9793 65.2984 53.9793C64.6584 53.9793 64.1509 54.1668 63.7759 54.5418C63.4059 54.9118 63.1759 55.4268 63.0859 56.0868H67.2409ZM68.3209 59.6493C68.1559 59.8493 67.9584 60.0243 67.7284 60.1743C67.4984 60.3193 67.2509 60.4393 66.9859 60.5343C66.7259 60.6293 66.4559 60.6993 66.1759 60.7443C65.8959 60.7943 65.6184 60.8193 65.3434 60.8193C64.8184 60.8193 64.3334 60.7318 63.8884 60.5568C63.4484 60.3768 63.0659 60.1168 62.7409 59.7768C62.4209 59.4318 62.1709 59.0068 61.9909 58.5018C61.8109 57.9968 61.7209 57.4168 61.7209 56.7618C61.7209 56.2318 61.8009 55.7368 61.9609 55.2768C62.1259 54.8168 62.3609 54.4193 62.6659 54.0843C62.9709 53.7443 63.3434 53.4793 63.7834 53.2893C64.2234 53.0943 64.7184 52.9968 65.2684 52.9968C65.7234 52.9968 66.1434 53.0743 66.5284 53.2293C66.9184 53.3793 67.2534 53.5993 67.5334 53.8893C67.8184 54.1743 68.0409 54.5293 68.2009 54.9543C68.3609 55.3743 68.4409 55.8543 68.4409 56.3943C68.4409 56.6043 68.4184 56.7443 68.3734 56.8143C68.3284 56.8843 68.2434 56.9193 68.1184 56.9193H63.0409C63.0559 57.3993 63.1209 57.8168 63.2359 58.1718C63.3559 58.5268 63.5209 58.8243 63.7309 59.0643C63.9409 59.2993 64.1909 59.4768 64.4809 59.5968C64.7709 59.7118 65.0959 59.7693 65.4559 59.7693C65.7909 59.7693 66.0784 59.7318 66.3184 59.6568C66.5634 59.5768 66.7734 59.4918 66.9484 59.4018C67.1234 59.3118 67.2684 59.2293 67.3834 59.1543C67.5034 59.0743 67.6059 59.0343 67.6909 59.0343C67.8009 59.0343 67.8859 59.0768 67.9459 59.1618L68.3209 59.6493ZM75.9182 60.7143H74.6357C74.5257 60.7143 74.4382 60.6868 74.3732 60.6318C74.3132 60.5718 74.2632 60.5068 74.2232 60.4368L72.3107 57.4593C72.2907 57.5293 72.2682 57.5993 72.2432 57.6693C72.2232 57.7343 72.1932 57.7943 72.1532 57.8493L70.3832 60.4368C70.3332 60.5068 70.2782 60.5718 70.2182 60.6318C70.1632 60.6868 70.0857 60.7143 69.9857 60.7143H68.7932L71.4557 56.8143L68.8982 53.1168H70.1807C70.2907 53.1168 70.3707 53.1343 70.4207 53.1693C70.4707 53.2043 70.5157 53.2543 70.5557 53.3193L72.4232 56.1693C72.4632 56.0243 72.5257 55.8843 72.6107 55.7493L74.2457 53.3493C74.2907 53.2793 74.3382 53.2243 74.3882 53.1843C74.4432 53.1393 74.5082 53.1168 74.5832 53.1168H75.8132L73.2557 56.7468L75.9182 60.7143ZM81.7995 54.4668C81.7595 54.5218 81.7195 54.5643 81.6795 54.5943C81.6395 54.6243 81.5845 54.6393 81.5145 54.6393C81.4395 54.6393 81.357 54.6093 81.267 54.5493C81.177 54.4843 81.0645 54.4143 80.9295 54.3393C80.7995 54.2643 80.637 54.1968 80.442 54.1368C80.252 54.0718 80.017 54.0393 79.737 54.0393C79.362 54.0393 79.032 54.1068 78.747 54.2418C78.462 54.3718 78.222 54.5618 78.027 54.8118C77.837 55.0618 77.692 55.3643 77.592 55.7193C77.497 56.0743 77.4495 56.4718 77.4495 56.9118C77.4495 57.3718 77.502 57.7818 77.607 58.1418C77.712 58.4968 77.8595 58.7968 78.0495 59.0418C78.2445 59.2818 78.477 59.4668 78.747 59.5968C79.022 59.7218 79.3295 59.7843 79.6695 59.7843C79.9945 59.7843 80.262 59.7468 80.472 59.6718C80.682 59.5918 80.8545 59.5043 80.9895 59.4093C81.1295 59.3143 81.2445 59.2293 81.3345 59.1543C81.4295 59.0743 81.522 59.0343 81.612 59.0343C81.722 59.0343 81.807 59.0768 81.867 59.1618L82.242 59.6493C82.077 59.8543 81.8895 60.0293 81.6795 60.1743C81.4695 60.3193 81.242 60.4418 80.997 60.5418C80.757 60.6368 80.5045 60.7068 80.2395 60.7518C79.9745 60.7968 79.7045 60.8193 79.4295 60.8193C78.9545 60.8193 78.512 60.7318 78.102 60.5568C77.697 60.3818 77.3445 60.1293 77.0445 59.7993C76.7445 59.4643 76.5095 59.0543 76.3395 58.5693C76.1695 58.0843 76.0845 57.5318 76.0845 56.9118C76.0845 56.3468 76.162 55.8243 76.317 55.3443C76.477 54.8643 76.707 54.4518 77.007 54.1068C77.312 53.7568 77.6845 53.4843 78.1245 53.2893C78.5695 53.0943 79.0795 52.9968 79.6545 52.9968C80.1895 52.9968 80.6595 53.0843 81.0645 53.2593C81.4745 53.4293 81.837 53.6718 82.152 53.9868L81.7995 54.4668ZM88.3282 56.0868C88.3282 55.7768 88.2832 55.4943 88.1932 55.2393C88.1082 54.9793 87.9807 54.7568 87.8107 54.5718C87.6457 54.3818 87.4432 54.2368 87.2032 54.1368C86.9632 54.0318 86.6907 53.9793 86.3857 53.9793C85.7457 53.9793 85.2382 54.1668 84.8632 54.5418C84.4932 54.9118 84.2632 55.4268 84.1732 56.0868H88.3282ZM89.4082 59.6493C89.2432 59.8493 89.0457 60.0243 88.8157 60.1743C88.5857 60.3193 88.3382 60.4393 88.0732 60.5343C87.8132 60.6293 87.5432 60.6993 87.2632 60.7443C86.9832 60.7943 86.7057 60.8193 86.4307 60.8193C85.9057 60.8193 85.4207 60.7318 84.9757 60.5568C84.5357 60.3768 84.1532 60.1168 83.8282 59.7768C83.5082 59.4318 83.2582 59.0068 83.0782 58.5018C82.8982 57.9968 82.8082 57.4168 82.8082 56.7618C82.8082 56.2318 82.8882 55.7368 83.0482 55.2768C83.2132 54.8168 83.4482 54.4193 83.7532 54.0843C84.0582 53.7443 84.4307 53.4793 84.8707 53.2893C85.3107 53.0943 85.8057 52.9968 86.3557 52.9968C86.8107 52.9968 87.2307 53.0743 87.6157 53.2293C88.0057 53.3793 88.3407 53.5993 88.6207 53.8893C88.9057 54.1743 89.1282 54.5293 89.2882 54.9543C89.4482 55.3743 89.5282 55.8543 89.5282 56.3943C89.5282 56.6043 89.5057 56.7443 89.4607 56.8143C89.4157 56.8843 89.3307 56.9193 89.2057 56.9193H84.1282C84.1432 57.3993 84.2082 57.8168 84.3232 58.1718C84.4432 58.5268 84.6082 58.8243 84.8182 59.0643C85.0282 59.2993 85.2782 59.4768 85.5682 59.5968C85.8582 59.7118 86.1832 59.7693 86.5432 59.7693C86.8782 59.7693 87.1657 59.7318 87.4057 59.6568C87.6507 59.5768 87.8607 59.4918 88.0357 59.4018C88.2107 59.3118 88.3557 59.2293 88.4707 59.1543C88.5907 59.0743 88.6932 59.0343 88.7782 59.0343C88.8882 59.0343 88.9732 59.0768 89.0332 59.1618L89.4082 59.6493ZM92.248 49.6668V60.7143H90.913V49.6668H92.248ZM95.493 49.6668V60.7143H94.158V49.6668H95.493ZM97.1329 59.8893C97.1329 59.7593 97.1554 59.6368 97.2004 59.5218C97.2504 59.4068 97.3154 59.3068 97.3954 59.2218C97.4804 59.1368 97.5804 59.0693 97.6954 59.0193C97.8104 58.9693 97.9329 58.9443 98.0629 58.9443C98.1929 58.9443 98.3154 58.9693 98.4304 59.0193C98.5454 59.0693 98.6454 59.1368 98.7304 59.2218C98.8154 59.3068 98.8829 59.4068 98.9329 59.5218C98.9829 59.6368 99.0079 59.7593 99.0079 59.8893C99.0079 60.0243 98.9829 60.1493 98.9329 60.2643C98.8829 60.3743 98.8154 60.4718 98.7304 60.5568C98.6454 60.6418 98.5454 60.7068 98.4304 60.7518C98.3154 60.8018 98.1929 60.8268 98.0629 60.8268C97.9329 60.8268 97.8104 60.8018 97.6954 60.7518C97.5804 60.7068 97.4804 60.6418 97.3954 60.5568C97.3154 60.4718 97.2504 60.3743 97.2004 60.2643C97.1554 60.1493 97.1329 60.0243 97.1329 59.8893Z" fill="white"/>
</svg>
