<svg width="50" height="50" viewBox="0 0 50 50" fill="none" xmlns="http://www.w3.org/2000/svg">
<path d="M45.3125 7.03125H4.6875C3.65186 7.03241 2.65896 7.44434 1.92665 8.17665C1.19434 8.90896 0.782413 9.90186 0.78125 10.9375V39.0625C0.782413 40.0981 1.19434 41.091 1.92665 41.8234C2.65896 42.5557 3.65186 42.9676 4.6875 42.9688H45.3125C46.3481 42.9676 47.341 42.5557 48.0734 41.8234C48.8057 41.091 49.2176 40.0981 49.2188 39.0625V10.9375C49.2176 9.90186 48.8057 8.90896 48.0734 8.17665C47.341 7.44434 46.3481 7.03241 45.3125 7.03125ZM2.34375 10.9375C2.34445 10.3161 2.5916 9.72038 3.03099 9.28099C3.47038 8.8416 4.06611 8.59445 4.6875 8.59375H45.3125C45.9339 8.59445 46.5296 8.8416 46.969 9.28099C47.4084 9.72038 47.6556 10.3161 47.6562 10.9375V11.7188H2.34375V10.9375ZM47.6562 39.0625C47.6556 39.6839 47.4084 40.2796 46.969 40.719C46.5296 41.1584 45.9339 41.4056 45.3125 41.4062H4.6875C4.06611 41.4056 3.47038 41.1584 3.03099 40.719C2.5916 40.2796 2.34445 39.6839 2.34375 39.0625V13.2812H47.6562V39.0625Z" fill="black"/>
<path d="M4.6875 10.9375C5.11897 10.9375 5.46875 10.5877 5.46875 10.1562C5.46875 9.72478 5.11897 9.375 4.6875 9.375C4.25603 9.375 3.90625 9.72478 3.90625 10.1562C3.90625 10.5877 4.25603 10.9375 4.6875 10.9375Z" fill="black"/>
<path d="M7.8125 10.9375C8.24397 10.9375 8.59375 10.5877 8.59375 10.1562C8.59375 9.72478 8.24397 9.375 7.8125 9.375C7.38103 9.375 7.03125 9.72478 7.03125 10.1562C7.03125 10.5877 7.38103 10.9375 7.8125 10.9375Z" fill="black"/>
<path d="M10.9375 10.9375C11.369 10.9375 11.7188 10.5877 11.7188 10.1562C11.7188 9.72478 11.369 9.375 10.9375 9.375C10.506 9.375 10.1562 9.72478 10.1562 10.1562C10.1562 10.5877 10.506 10.9375 10.9375 10.9375Z" fill="black"/>
<path d="M12.211 23.3893L17.1876 25.2215V32.8125C17.1876 33.0197 17.2699 33.2184 17.4164 33.3649C17.5629 33.5114 17.7616 33.5937 17.9688 33.5937H32.0313C32.2385 33.5937 32.4372 33.5114 32.5837 33.3649C32.7302 33.2184 32.8126 33.0197 32.8126 32.8125V25.2215L35.1563 24.3587V25.1343C34.635 25.3186 34.1957 25.6813 33.916 26.1582C33.6362 26.635 33.5341 27.1955 33.6276 27.7404C33.7211 28.2853 34.0042 28.7796 34.4269 29.136C34.8496 29.4923 35.3847 29.6878 35.9376 29.6878C36.4904 29.6878 37.0255 29.4923 37.4482 29.136C37.8709 28.7796 38.1541 28.2853 38.2476 27.7404C38.3411 27.1955 38.2389 26.635 37.9591 26.1582C37.6794 25.6813 37.2401 25.3186 36.7188 25.1343V23.7834L37.7891 23.3893C37.9391 23.3341 38.0685 23.2342 38.1599 23.1031C38.2513 22.972 38.3004 22.816 38.3004 22.6562C38.3004 22.4964 38.2513 22.3404 38.1599 22.2093C38.0685 22.0782 37.9391 21.9783 37.7891 21.9231L25.2696 17.3137C25.0954 17.2496 24.904 17.2496 24.7297 17.3137L12.2102 21.9231C12.0602 21.9783 11.9308 22.0782 11.8394 22.2093C11.748 22.3404 11.699 22.4964 11.699 22.6562C11.699 22.816 11.748 22.972 11.8394 23.1031C11.9308 23.2342 12.0602 23.3341 12.2102 23.3893H12.211ZM35.9376 28.125C35.783 28.125 35.632 28.0791 35.5035 27.9933C35.375 27.9075 35.2749 27.7854 35.2158 27.6427C35.1566 27.4999 35.1412 27.3428 35.1713 27.1913C35.2015 27.0398 35.2759 26.9005 35.3851 26.7913C35.4944 26.682 35.6336 26.6076 35.7851 26.5775C35.9367 26.5473 36.0938 26.5628 36.2365 26.6219C36.3793 26.6811 36.5013 26.7812 36.5871 26.9097C36.673 27.0382 36.7188 27.1892 36.7188 27.3437C36.7186 27.5508 36.6362 27.7494 36.4897 27.8959C36.3433 28.0423 36.1447 28.1247 35.9376 28.125ZM31.2501 32.0312H18.7501V25.7967L24.7301 27.998C24.9044 28.0622 25.0958 28.0622 25.27 27.998L31.2501 25.7967V32.0312ZM25.0001 18.8798L35.2579 22.6562L25.0001 26.4327L14.7422 22.6562L25.0001 18.8798Z" fill="black"/>
<path d="M8.59375 39.8438H41.4062C41.6134 39.8438 41.8122 39.7614 41.9587 39.6149C42.1052 39.4684 42.1875 39.2697 42.1875 39.0625V15.625C42.1875 15.4178 42.1052 15.2191 41.9587 15.0726C41.8122 14.9261 41.6134 14.8438 41.4062 14.8438H8.59375C8.38655 14.8438 8.18784 14.9261 8.04132 15.0726C7.89481 15.2191 7.8125 15.4178 7.8125 15.625V39.0625C7.8125 39.2697 7.89481 39.4684 8.04132 39.6149C8.18784 39.7614 8.38655 39.8438 8.59375 39.8438ZM9.375 16.4062H40.625V38.2812H9.375V16.4062Z" fill="black"/>
<path d="M38.2812 35.1562H35.9375C35.9375 34.949 35.8552 34.7503 35.7087 34.6038C35.5622 34.4573 35.3635 34.375 35.1562 34.375C34.949 34.375 34.7503 34.4573 34.6038 34.6038C34.4573 34.7503 34.375 34.949 34.375 35.1562H11.7188C11.5115 35.1562 11.3128 35.2386 11.1663 35.3851C11.0198 35.5316 10.9375 35.7303 10.9375 35.9375C10.9375 36.1447 11.0198 36.3434 11.1663 36.4899C11.3128 36.6364 11.5115 36.7188 11.7188 36.7188H34.375C34.375 36.926 34.4573 37.1247 34.6038 37.2712C34.7503 37.4177 34.949 37.5 35.1562 37.5C35.3635 37.5 35.5622 37.4177 35.7087 37.2712C35.8552 37.1247 35.9375 36.926 35.9375 36.7188H38.2812C38.4885 36.7188 38.6872 36.6364 38.8337 36.4899C38.9802 36.3434 39.0625 36.1447 39.0625 35.9375C39.0625 35.7303 38.9802 35.5316 38.8337 35.3851C38.6872 35.2386 38.4885 35.1562 38.2812 35.1562Z" fill="black"/>
</svg>
