<svg width="37" height="32" viewBox="0 0 37 32" fill="none" xmlns="http://www.w3.org/2000/svg">
<g filter="url(#filter0_d)">
<path d="M6 10.5C5.17157 10.5 4.5 11.1716 4.5 12C4.5 12.8284 5.17157 13.5 6 13.5V10.5ZM32.0607 13.0607C32.6464 12.4749 32.6464 11.5251 32.0607 10.9393L22.5147 1.3934C21.9289 0.807611 20.9792 0.807611 20.3934 1.3934C19.8076 1.97919 19.8076 2.92893 20.3934 3.51472L28.8787 12L20.3934 20.4853C19.8076 21.0711 19.8076 22.0208 20.3934 22.6066C20.9792 23.1924 21.9289 23.1924 22.5147 22.6066L32.0607 13.0607ZM6 13.5L31 13.5V10.5L6 10.5V13.5Z" fill="black"/>
</g>
<defs>
<filter id="filter0_d" x="0.5" y="0.954041" width="36" height="30.0919" filterUnits="userSpaceOnUse" color-interpolation-filters="sRGB">
<feFlood flood-opacity="0" result="BackgroundImageFix"/>
<feColorMatrix in="SourceAlpha" type="matrix" values="0 0 0 0 0 0 0 0 0 0 0 0 0 0 0 0 0 0 127 0" result="hardAlpha"/>
<feOffset dy="4"/>
<feGaussianBlur stdDeviation="2"/>
<feComposite in2="hardAlpha" operator="out"/>
<feColorMatrix type="matrix" values="0 0 0 0 0 0 0 0 0 0 0 0 0 0 0 0 0 0 0.25 0"/>
<feBlend mode="normal" in2="BackgroundImageFix" result="effect1_dropShadow"/>
<feBlend mode="normal" in="SourceGraphic" in2="effect1_dropShadow" result="shape"/>
</filter>
</defs>
</svg>
