<svg width="50" height="50" viewBox="0 0 50 50" fill="none" xmlns="http://www.w3.org/2000/svg">
<g clip-path="url(#clip0)">
<path d="M21.0106 5.95702C21.0106 3.00163 23.5122 0.5 26.4676 0.5C29.4124 0.5 31.827 2.99084 31.827 5.95702C31.827 8.9232 29.4124 11.414 26.4676 11.414C23.5122 11.414 21.0106 8.91242 21.0106 5.95702Z" stroke="black"/>
<path d="M26.4676 15.3437C29.002 15.3437 31.2777 14.3059 32.9482 12.6605C34.0722 14.0736 34.7567 15.8405 34.7567 17.7734V19.2383C34.7567 19.7718 34.3254 20.2031 33.7918 20.2031H19.0458C18.5122 20.2031 18.0809 19.7718 18.0809 19.2383V17.7734C18.0809 15.8401 18.7657 14.0729 19.8901 12.6597C21.5767 14.3091 23.9379 15.3437 26.4676 15.3437Z" stroke="black"/>
<path d="M6.24255 30.2181L6.24255 30.2182L13.7075 45.1844C13.7075 45.1844 13.7075 45.1844 13.7075 45.1844C14.3074 46.3876 13.8164 47.8493 12.6117 48.446L12.6117 48.446L10.6865 49.3998C10.6864 49.3999 10.6862 49.4 10.6861 49.4C10.2096 49.6348 9.63099 49.4427 9.39389 48.9672L9.39364 48.9667L0.604595 31.3886C0.365737 30.9109 0.56059 30.3291 1.0388 30.0919C1.03886 30.0918 1.03893 30.0918 1.03899 30.0918L2.98987 29.1254L2.9899 29.1253C4.18986 28.5308 5.64475 29.0196 6.24255 30.2181Z" stroke="black"/>
<path d="M37.2892 34.7583L37.3025 34.7444L37.3146 34.7295L45.3124 24.898C46.1385 24.0096 47.5157 23.8684 48.506 24.5925C49.5984 25.3938 49.8178 26.9522 49.0168 28.0202L49.0118 28.027L49.0069 28.0339L40.4179 40.332C38.8718 42.3984 36.3862 43.6405 33.7919 43.6405H19.4852H17.3289L9.31214 27.5654L10.8249 26.2341L10.8514 26.2556L11.1656 26.0068C12.4302 25.0052 13.6502 24.2772 15.4654 23.8565L15.4655 23.8565C18.7417 23.0971 21.9671 24.0373 24.1117 25.9672L24.1117 25.9672L24.1169 25.9718C24.1882 26.0341 24.2636 26.1033 24.3416 26.1748C24.531 26.3485 24.736 26.5366 24.9357 26.677C25.2551 26.9014 25.627 27.0624 26.1161 27.0624H26.1591H26.2017H26.244H26.286H26.3277H26.3691H26.4102H26.4509H26.4914H26.5315H26.5714H26.6109H26.6501H26.6891H26.7277H26.766H26.804H26.8418H26.8792H26.9163H26.9532H26.9897H27.026H27.0619H27.0976H27.133H27.1681H27.2029H27.2374H27.2717H27.3057H27.3393H27.3728H27.4059H27.4387H27.4713H27.5036H27.5356H27.5674H27.5989H27.6301H27.661H27.6917H27.7221H27.7523H27.7822H27.8118H27.8412H27.8703H27.8991H27.9277H27.956H27.9841H28.0119H28.0395H28.0668H28.0939H28.1207H28.1472H28.1736H28.1996H28.2255H28.2511H28.2764H28.3015H28.3264H28.351H28.3754H28.3996H28.4235H28.4472H28.4707H28.4939H28.5169H28.5397H28.5622H28.5845H28.6066H28.6285H28.6502H28.6716H28.6928H28.7138H28.7346H28.7551H28.7755H28.7956H28.8155H28.8352H28.8547H28.874H28.8931H28.912H28.9307H28.9491H28.9674H28.9854H29.0033H29.021H29.0384H29.0557H29.0728H29.0897H29.1064H29.1229H29.1392H29.1553H29.1712H29.187H29.2025H29.2179H29.2331H29.2481H29.2629H29.2776H29.2921H29.3064H29.3205H29.3344H29.3482H29.3618H29.3753H29.3885H29.4016H29.4145H29.4273H29.4399H29.4523H29.4646H29.4767H29.4887H29.5005H29.5121H29.5236H29.5349H29.5461H29.5571H29.568H29.5787H29.5893H29.5997H29.61H29.6201H29.6301H29.6399H29.6496H29.6592H29.6686H29.6779H29.6871H29.6961H29.705H29.7137H29.7223H29.7308H29.7392H29.7474H29.7555H29.7635H29.7713H29.7791H29.7867H29.7942H29.8016H29.8088H29.8159H29.823H29.8299H29.8367H29.8433H29.8499H29.8564H29.8627H29.869H29.8751H29.8812H29.8871H29.8929H29.8986H29.9043H29.9098H29.9152H29.9206H29.9258H29.931H29.936H29.941H29.9459H29.9507H29.9554H29.96H29.9645H29.969H29.9733H29.9776H29.9818H29.9859H29.99H29.9939H29.9978H30.0016H30.0054H30.0091H30.0127H30.0162H30.0197H30.0231H30.0264H30.0297H30.0329H30.036H30.0391H30.0422H30.0451H30.048H30.0509H30.0537H30.0564H30.0591H30.0618H30.0644H30.0669H30.0694H30.0719H30.0743H30.0767H30.079H30.0813H30.0835H30.0857H30.0879H30.09H30.0921H30.0942H30.0962H30.0982H30.1002H30.1021H30.1041H30.1059H30.1078H30.1096H30.1115H30.1133H30.115H30.1168H30.1185H30.1202H30.122H30.1236H30.1253H30.127H30.1287H30.1303H30.1319H30.1336H30.1352H30.1368H30.1385H30.1401H30.1417H30.1433H30.1449H30.1466H30.1482H30.1498H30.1515H30.1531H30.1548H30.1564H30.1581H30.1598H30.1615H30.1632H30.165H30.1667H30.1685H30.1703H30.1721H30.174H30.1758H30.1777H30.1796H30.1816H30.1836H30.1856H30.1876H30.1897H30.1918H30.1939H30.1961H30.1983H30.2005H30.2028H30.2051H30.2075H30.2099H30.2124H30.2149H30.2174H30.22H30.2227H30.2254H30.2281H30.2309H30.2338H30.2367H30.2397H30.2427H30.2458H30.2489H30.2521H30.2554H30.2588H30.2622H30.2656H30.2692H30.2728H30.2765H30.2802H30.284H30.2879H30.2919H30.2959H30.3001H30.3043H30.3086H30.3129H30.3174H30.3219H30.3265H30.3312H30.336H30.3409H30.3459H30.3509H30.3561H30.3613H30.3667H30.3721H30.3776H30.3833H30.389H30.3948H30.4008H30.4068H30.413H30.4192H30.4256H30.432H30.4386H30.4453H30.4521H30.459H30.466H30.4732H30.4804H30.4878H30.4953H30.5029H30.5107H30.5185H30.5265H30.5346H30.5428H30.5512H30.5597H30.5683H30.5771H30.586H30.595H30.6042H30.6134H30.6229H30.6324H30.6422H30.652H30.662H30.6721H30.6824H30.6929H30.7034H30.7142H30.725H30.7361H30.7472H30.7586H30.77H30.7817H30.7935H30.8054H30.8176H30.8298H30.8423H30.8549H30.8677H30.8806H30.8937H30.907H30.9204H30.934H30.9478H30.9617H30.9759H30.9902H31.0047H31.0193H31.0342H31.0492H31.0644H31.0798H31.0953H31.1111H31.127H31.1432H31.1595H31.176H31.1927H31.2096H31.2266H31.2439H31.2614H31.2791H31.2969H31.315H31.3333H31.3518H31.3704H31.3893H31.4084H31.4277H31.4472H31.4669H31.4869H31.507H31.5274H31.5479H31.5687H31.5897H31.6109H31.6324H31.654H31.6759H31.698H31.7204H31.7429H31.7657H31.7887H31.8119H31.8354H31.8591H31.883H31.9072H31.9316H31.9563H31.9811H32.0063H32.0316H32.0572H32.0831H32.1091H32.1355H32.1621H32.1889H32.216H32.2433H32.2709H32.2987H32.3268H32.3551H32.3837H32.4126H32.4417H32.4711H32.5007H32.5306H32.5607H32.5912H32.6219H32.6528H32.684H32.7155H32.7473H32.7793H32.8116H32.8442H32.8771H32.9102H32.9436H32.9773H33.0113H33.0456H33.0801H33.115H33.1501H33.1855H33.2212H33.2571H33.2934H33.33H33.3668H33.404H33.4414H33.4791H33.5172H33.5555H33.5941H33.6331H33.6723H33.7119H33.7517H33.7919C35.1271 27.0624 36.2216 28.1569 36.2216 29.4921C36.2216 30.8273 35.1271 31.9218 33.7919 31.9218H33.7818H33.7716H33.7615H33.7514H33.7412H33.731H33.7209H33.7107H33.7005H33.6903H33.6801H33.6698H33.6596H33.6493H33.6391H33.6288H33.6186H33.6083H33.598H33.5877H33.5774H33.567H33.5567H33.5464H33.536H33.5257H33.5153H33.5049H33.4945H33.4841H33.4737H33.4633H33.4529H33.4424H33.432H33.4215H33.4111H33.4006H33.3901H33.3796H33.3691H33.3586H33.3481H33.3376H33.327H33.3165H33.3059H33.2954H33.2848H33.2742H33.2636H33.253H33.2424H33.2318H33.2212H33.2106H33.1999H33.1893H33.1786H33.1679H33.1573H33.1466H33.1359H33.1252H33.1145H33.1038H33.093H33.0823H33.0716H33.0608H33.0501H33.0393H33.0285H33.0177H33.007H32.9962H32.9854H32.9745H32.9637H32.9529H32.942H32.9312H32.9204H32.9095H32.8986H32.8877H32.8769H32.866H32.8551H32.8442H32.8332H32.8223H32.8114H32.8005H32.7895H32.7786H32.7676H32.7566H32.7457H32.7347H32.7237H32.7127H32.7017H32.6907H32.6797H32.6686H32.6576H32.6466H32.6355H32.6245H32.6134H32.6023H32.5913H32.5802H32.5691H32.558H32.5469H32.5358H32.5247H32.5136H32.5024H32.4913H32.4802H32.469H32.4578H32.4467H32.4355H32.4243H32.4132H32.402H32.3908H32.3796H32.3684H32.3572H32.3459H32.3347H32.3235H32.3122H32.301H32.2898H32.2785H32.2672H32.256H32.2447H32.2334H32.2221H32.2108H32.1995H32.1882H32.1769H32.1656H32.1543H32.143H32.1316H32.1203H32.1089H32.0976H32.0862H32.0749H32.0635H32.0521H32.0408H32.0294H32.018H32.0066H31.9952H31.9838H31.9724H31.961H31.9495H31.9381H31.9267H31.9152H31.9038H31.8924H31.8809H31.8694H31.858H31.8465H31.835H31.8236H31.8121H31.8006H31.7891H31.7776H31.7661H31.7546H31.7431H31.7316H31.7201H31.7085H31.697H31.6855H31.6739H31.6624H31.6508H31.6393H31.6277H31.6162H31.6046H31.593H31.5815H31.5699H31.5583H31.5467H31.5351H31.5235H31.5119H31.5003H31.4887H31.4771H31.4655H31.4539H31.4423H31.4306H31.419H31.4074H31.3957H31.3841H31.3724H31.3608H31.3491H31.3375H31.3258H31.3141H31.3025H31.2908H31.2791H31.2675H31.2558H31.2441H31.2324H31.2207H31.209H31.1973H31.1856H31.1739H31.1622H31.1505H31.1388H31.127H31.1153H31.1036H31.0919H31.0801H31.0684H31.0567H31.0449H31.0332H31.0214H31.0097H30.9979H30.9862H30.9744H30.9626H30.9509H30.9391H30.9274H30.9156H30.9038H30.892H30.8802H30.8685H30.8567H30.8449H30.8331H30.8213H30.8095H30.7977H30.7859H30.7741H30.7623H30.7505H30.7387H30.7269H30.7151H30.7033H30.6915H30.6796H30.6678H30.656H30.6442H30.6323H30.6205H30.6087H30.5969H30.585H30.5732H30.5613H30.5495H30.5377H30.5258H30.514H30.5021H30.4903H30.4784H30.4666H30.4547H30.4429H30.431H30.4192H30.4073H30.3955H30.3836H30.3717H30.3599H30.348H30.3361H30.3243H30.3124H30.3005H30.2887H30.2768H30.2649H30.2531H30.2412H30.2293H30.2174H30.2056H30.1937H30.1818H30.1699H30.158H30.1462H30.1343H30.1224H30.1105H30.0986H30.0867H30.0749H30.063H30.0511H30.0392H30.0273H30.0154H30.0035H29.9917H29.9798H29.9679H29.956H29.9441H29.9322H29.9203H29.9084H29.8965H29.8847H29.8728H29.8609H29.849H29.8371H29.8252H29.8133H29.8014H29.7895H29.7777H29.7658H29.7539H29.742H29.7301H29.7182H29.7063H29.6944H29.6826H29.6707H29.6588H29.6469H29.635H29.6231H29.6112H29.5994H29.5875H29.5756H29.5637H29.5518H29.54H29.5281H29.5162H29.5043H29.4924H29.4806H29.4687H29.4568H29.445H29.4331H29.4212H29.4093H29.3975H29.3856H29.3737H29.3619H29.35H29.3382H29.3263H29.3144H29.3026H29.2907H29.2789H29.267H29.2552H29.2433H29.2315H29.2196H29.2078H29.1959H29.1841H29.1722H29.1604H29.1486H29.1367H29.1249H29.1131H29.1012H29.0894H29.0776H29.0657H29.0539H29.0421H29.0303H29.0185H29.0066H28.9948H28.983H28.9712H28.9594H28.9476H28.9358H28.924H28.9122H28.9004H28.8886H28.8768H28.865H28.8533H28.8415H28.8297H28.8179H28.8061H28.7944H28.7826H28.7708H28.7591H28.7473H28.7355H28.7238H28.712H28.7003H28.6885H28.6768H28.665H28.6533H28.6416H28.6298H28.6181H28.6064H28.5947H28.5829H28.5712H28.5595H28.5478H28.5361H28.5244H28.5127H28.501H28.4893H28.4776H28.4659H28.4542H28.4426H28.4309H28.4192H28.4075H28.3959H28.3842H28.3725H28.3609H28.3492H28.3376H28.3259H28.3143H28.3027H28.291H28.2794H28.2678H28.2562H28.2445H28.2329H28.2213H28.2097H28.1981H28.1865H28.1749H28.1633H28.1518H28.1402H28.1286H28.117H28.1055H28.0939H28.0823H28.0708H28.0592H28.0477H28.0362H28.0246H28.0131H28.0016H27.99H27.9785H27.967H27.9555H27.944H27.9325C26.836 31.9218 25.9677 32.79 25.9677 33.8866C25.9677 34.9832 26.836 35.8514 27.9325 35.8514H34.7588C35.1209 35.8514 35.5888 35.7425 36.0284 35.5667C36.4703 35.3899 36.9441 35.1216 37.2892 34.7583Z" stroke="black"/>
</g>
<defs>
<clipPath id="clip0">
<rect width="50" height="50" fill="white"/>
</clipPath>
</defs>
</svg>
