<svg width="31" height="31" viewBox="0 0 31 31" fill="none" xmlns="http://www.w3.org/2000/svg">
<path fill-rule="evenodd" clip-rule="evenodd" d="M30.3047 1.10979C30.3205 0.963885 30.3042 0.812065 30.2509 0.664382C30.0633 0.144914 29.4892 -0.126654 28.9687 0.0578201L0.662498 10.089C0.141948 10.2735 -0.127979 10.8442 0.0595999 11.3636C0.247178 11.8831 0.82123 12.1547 1.34178 11.9702L1.34907 11.9676L9.43613 14.4325L6.66807 22.3841C6.48659 22.9055 6.76351 23.4725 7.28657 23.6506C7.4091 23.6923 7.53427 23.709 7.65644 23.7034C7.93223 23.9632 8.34418 24.0562 8.71867 23.9078L15.2771 21.3092L17.5577 29.4545C17.6224 29.7803 17.8491 30.0658 18.1839 30.1915C18.2884 30.2307 18.3953 30.2513 18.5012 30.255C18.603 30.2595 18.7072 30.2484 18.8107 30.2201C19.1543 30.1258 19.4057 29.8637 19.501 29.5468L30.2386 1.46253C30.283 1.34629 30.3043 1.22703 30.3047 1.10979ZM14.735 19.3728L13.7171 15.7372L11.3516 15.0163L9.05111 21.6249L14.735 19.3728ZM18.6881 26.0728L27.0515 4.19837L15.617 15.1054L15.624 15.1291L18.6881 26.0728ZM24.6752 3.70126L14.1202 13.7693L4.52094 10.8436L24.6752 3.70126Z" fill="white"/>
</svg>
