<svg width="30" height="30" viewBox="0 0 30 30" fill="none" xmlns="http://www.w3.org/2000/svg">
<path d="M27.3633 15.8789H18.5156C17.0617 15.8789 15.8789 17.0618 15.8789 18.5157C15.8789 19.9695 17.0617 21.1524 18.5156 21.1524H27.3633C28.8172 21.1524 30 19.9695 30 18.5157C30 17.0618 28.8172 15.8789 27.3633 15.8789ZM27.3633 19.3946H18.5156C18.031 19.3946 17.6367 19.0003 17.6367 18.5157C17.6367 18.031 18.031 17.6367 18.5156 17.6367H27.3633C27.8479 17.6367 28.2422 18.031 28.2422 18.5157C28.2422 19.0003 27.8479 19.3946 27.3633 19.3946Z" fill="white"/>
<path d="M11.4844 8.84769H2.63672C1.18283 8.84769 0 10.0305 0 11.4844C0 12.9383 1.18283 14.1211 2.63672 14.1211H11.4844C12.9383 14.1211 14.1211 12.9383 14.1211 11.4844C14.1211 10.0305 12.9383 8.84769 11.4844 8.84769ZM11.4844 12.3633H2.63672C2.15209 12.3633 1.75781 11.969 1.75781 11.4844C1.75781 10.9998 2.15209 10.6055 2.63672 10.6055H11.4844C11.969 10.6055 12.3633 10.9998 12.3633 11.4844C12.3633 11.969 11.969 12.3633 11.4844 12.3633Z" fill="white"/>
<path d="M18.5156 14.1211C19.9695 14.1211 21.1523 12.9383 21.1523 11.4844V2.63672C21.1523 1.18283 19.9695 0 18.5156 0C17.0617 0 15.8789 1.18283 15.8789 2.63672V11.4844C15.8789 12.9383 17.0617 14.1211 18.5156 14.1211ZM17.6367 2.63672C17.6367 2.15209 18.031 1.75781 18.5156 1.75781C19.0003 1.75781 19.3945 2.15209 19.3945 2.63672V11.4844C19.3945 11.969 19.0003 12.3633 18.5156 12.3633C18.031 12.3633 17.6367 11.969 17.6367 11.4844V2.63672Z" fill="white"/>
<path d="M11.4844 15.8789C10.0305 15.8789 8.84766 17.0618 8.84766 18.5157V27.3633C8.84766 28.8172 10.0305 30 11.4844 30C12.9383 30 14.1211 28.8172 14.1211 27.3633V18.5157C14.1211 17.0618 12.9383 15.8789 11.4844 15.8789ZM12.3633 27.3633C12.3633 27.8479 11.969 28.2422 11.4844 28.2422C10.9997 28.2422 10.6055 27.8479 10.6055 27.3633V18.5157C10.6055 18.031 10.9997 17.6367 11.4844 17.6367C11.969 17.6367 12.3633 18.031 12.3633 18.5157V27.3633Z" fill="white"/>
<path d="M23.8477 14.1211H26.4844C28.4229 14.1211 30 12.544 30 10.6055C30 8.66698 28.4229 7.08987 26.4844 7.08987C24.5459 7.08987 22.9688 8.66698 22.9688 10.6055V13.2422C22.9688 13.7276 23.3623 14.1211 23.8477 14.1211ZM24.7266 10.6055C24.7266 9.63624 25.5151 8.84769 26.4844 8.84769C27.4536 8.84769 28.2422 9.63624 28.2422 10.6055C28.2422 11.5748 27.4536 12.3633 26.4844 12.3633H24.7266V10.6055Z" fill="white"/>
<path d="M6.15234 15.8789H3.51562C1.57711 15.8789 0 17.456 0 19.3946C0 21.3331 1.57711 22.9102 3.51562 22.9102C5.45414 22.9102 7.03125 21.3331 7.03125 19.3946V16.7578C7.03125 16.2725 6.63773 15.8789 6.15234 15.8789ZM5.27344 19.3946C5.27344 20.3638 4.48488 21.1524 3.51562 21.1524C2.54637 21.1524 1.75781 20.3638 1.75781 19.3946C1.75781 18.4253 2.54637 17.6367 3.51562 17.6367H5.27344V19.3946Z" fill="white"/>
<path d="M10.6055 0C8.66695 0 7.08984 1.57711 7.08984 3.51562C7.08984 5.45414 8.66695 7.03125 10.6055 7.03125H13.2422C13.7276 7.03125 14.1211 6.63773 14.1211 6.15234V3.51562C14.1211 1.57711 12.544 0 10.6055 0ZM12.3633 5.27344H10.6055C9.63621 5.27344 8.84766 4.48488 8.84766 3.51562C8.84766 2.54637 9.63621 1.75781 10.6055 1.75781C11.5747 1.75781 12.3633 2.54637 12.3633 3.51562V5.27344Z" fill="white"/>
<path d="M19.3945 22.9688H16.7578C16.2724 22.9688 15.8789 23.3623 15.8789 23.8477V26.4844C15.8789 28.4229 17.456 30 19.3945 30C21.333 30 22.9102 28.4229 22.9102 26.4844C22.9102 24.5459 21.333 22.9688 19.3945 22.9688ZM19.3945 28.2422C18.4253 28.2422 17.6367 27.4536 17.6367 26.4844V24.7266H19.3945C20.3638 24.7266 21.1523 25.5151 21.1523 26.4844C21.1523 27.4536 20.3638 28.2422 19.3945 28.2422Z" fill="white"/>
</svg>
