<svg width="100" height="100" viewBox="0 0 100 100" fill="none" xmlns="http://www.w3.org/2000/svg">
<path d="M50 100C77.6142 100 100 77.6142 100 50C100 22.3858 77.6142 0 50 0C22.3858 0 0 22.3858 0 50C0 77.6142 22.3858 100 50 100Z" fill="#FFE371"/>
<path d="M50.0001 82.1373C35.3782 82.1373 22.6376 72.2342 19.0188 58.0592C18.7345 56.9436 19.4063 55.8092 20.522 55.5248C21.6313 55.2342 22.7688 55.9123 23.0532 57.028C26.2032 69.3592 37.2813 77.9717 49.997 77.9717C62.7126 77.9717 73.7938 69.3592 76.9407 57.028C77.222 55.9123 78.3563 55.2342 79.4751 55.5248C80.5907 55.8092 81.2626 56.9436 80.9782 58.0592C77.3626 72.2342 64.622 82.1373 50.0001 82.1373Z" fill="#3E4347"/>
<path d="M33.8532 52.1344C38.0851 52.1344 41.5157 48.0574 41.5157 43.0281C41.5157 37.9989 38.0851 33.9219 33.8532 33.9219C29.6213 33.9219 26.1907 37.9989 26.1907 43.0281C26.1907 48.0574 29.6213 52.1344 33.8532 52.1344Z" fill="#3E4347"/>
<path d="M37.3094 41.069C36.7125 41.5377 35.7312 41.3065 35.1031 40.544C34.475 39.7815 34.4437 38.7596 35.0406 38.2908C35.6344 37.8002 36.6187 38.0315 37.2437 38.794C37.875 39.5783 37.8812 40.5815 37.3094 41.069Z" fill="#5A5F63"/>
<path d="M66.1561 52.1344C70.388 52.1344 73.8186 48.0574 73.8186 43.0281C73.8186 37.9989 70.388 33.9219 66.1561 33.9219C61.9243 33.9219 58.4937 37.9989 58.4937 43.0281C58.4937 48.0574 61.9243 52.1344 66.1561 52.1344Z" fill="#3E4347"/>
<path d="M69.6062 41.069C69.0094 41.5377 68.0281 41.3065 67.4 40.544C66.7719 39.7815 66.7406 38.7596 67.3375 38.2908C67.9312 37.8002 68.9125 38.0315 69.5406 38.794C70.1719 39.5783 70.1781 40.5815 69.6062 41.069Z" fill="#5A5F63"/>
</svg>
