<?xml version="1.0" encoding="utf-8"?>
<!-- Generator: Adobe Illustrator 23.0.1, SVG Export Plug-In . SVG Version: 6.00 Build 0)  -->
<svg version="1.1" id="Layer_1" xmlns="http://www.w3.org/2000/svg" xmlns:xlink="http://www.w3.org/1999/xlink" x="0px" y="0px"
	 viewBox="0 0 256 223" style="enable-background:new 0 0 256 223;" xml:space="preserve">
<style type="text/css">
	.st0{fill:#C4C4C4;}
	.st1{font-family:'Quicksand-Medium';}
	.st2{font-size:12px;}
</style>
<path d="M93.7,119.3c-1.1-0.5-2.4-0.1-2.9,1c-0.8,1.6-2.4,2.7-4.2,2.7c-1.8,0-3.4-1-4.2-2.7c-0.5-1.1-1.8-1.6-2.9-1
	c-1.1,0.5-1.6,1.8-1,2.9c1.5,3.1,4.7,5.2,8.1,5.2c3.5,0,6.7-2,8.1-5.2C95.3,121.2,94.8,119.9,93.7,119.3z"/>
<path d="M182.7,77.4h-10.6c-1,0-1.8,0.6-2.1,1.5l-4.8,15.3l-1.3-5c-0.3-1-1.1-1.6-2.1-1.6h-5.4c-1.2,0-2.2,1-2.2,2.2
	c0,1.2,1,2.2,2.2,2.2h3.7l2.9,10.7c0.3,0.9,1.1,1.6,2.1,1.6c0,0,0,0,0,0c1,0,1.8-0.6,2.1-1.5l6.5-21h9c1.2,0,2.2-1,2.2-2.2
	C184.9,78.4,183.9,77.4,182.7,77.4z"/>
<path d="M185.9,93.5c0-0.1,0-0.1,0-0.2l0.1-0.6c0-0.1,0-0.2,0-0.3c0-3.6-2.9-6.5-6.5-6.5c-3.1,0-5.7,2.2-6.3,5.2
	c-0.2,1.2,0.5,2.4,1.7,2.6c1.2,0.2,2.3-0.5,2.6-1.7c0.2-1,1.1-1.7,2-1.7c1.1,0,2,0.9,2.1,2l0,0.4c-0.2,0.8-0.7,1.7-1.4,2.8
	c-2.6,3.8-4.2,5.9-5.1,7c-1,1.4-1.6,2.1-1.2,3.3c0.2,0.7,0.8,1.3,1.5,1.5c0.3,0.1,0.5,0.2,3.8,0.2c1.3,0,3,0,5.4,0
	c1.2,0,2.2-1,2.2-2.2s-1-2.2-2.2-2.2c-1.5,0-3,0-4.4,0c0.9-1.2,2.1-2.9,3.6-5.1C184.9,96.4,185.6,94.9,185.9,93.5z"/>
<path d="M186.5,68.8H127c-0.2-0.8-0.5-1.4-0.9-2c-1.1-1.4-2.5-2.1-4.2-2.1c-1.9,0-3.9,1-5.7,2.4c0-1.3-0.3-2.5-0.9-3.6
	c-0.7-1.1-2.1-2.4-4.9-2.4c-3.4,0-6.2,1.8-8.2,4c-0.2-0.8-0.5-1.5-1-2.1c-1-1.3-2.4-1.9-4-1.9c-3.1,0-5.6,2.5-8,5.6
	c-1-0.6-2.3-1.2-3.9-1.9c-0.8-0.3-1.6-0.6-2.3-0.9c-2.8-0.9-5.5-1.3-7.9-1.2c0,0,0,0,0,0c0,0,0,0-0.1,0c-0.3,0-0.7,0.1-1.1,0.1
	c-4,0.5-7.4,2.6-9.7,6.2c-2.8-0.9-8.1-2-12.1,1.4c-5.8,4.7-6.5,15.6-2.1,33.3c-1.4,1.6-2.3,3.6-2.3,5.9c0,4.1,2.9,7.6,6.7,8.6
	c0,1.2,0.1,2.4,0.1,3.6c0.4,7,4.3,12.9,10,15.9c-1.9,2-4.2,5.3-6.3,10.1c-0.5,1.1,0.1,2.4,1.2,2.9c0.3,0.1,0.6,0.2,0.8,0.2
	c0.9,0,1.7-0.5,2-1.4c2.4-5.8,5.3-8.9,6.7-10.1c1.2,0.3,2.4,0.5,3.6,0.5c1,0,2.1,0.1,3.1,0.1l-2.7,6.7c-0.3,0.8-0.2,1.7,0.4,2.3
	c0.5,0.6,1.4,0.9,2.2,0.7l8.9-2.3v18.9H68.3c0.6-2.8,1.3-4.8,1.4-4.9c0.4-1.1-0.2-2.4-1.3-2.8c-1.1-0.4-2.4,0.1-2.8,1.3
	c-0.1,0.1-1.4,3.7-2.1,8.3c-0.1,1-0.3,2-0.3,2.9h-5c0.1-4.9,0.6-9.5,1.5-13.6c0.3-1.2-0.5-2.4-1.7-2.6c-1.2-0.3-2.3,0.5-2.6,1.7
	c-1.1,4.9-1.6,10.4-1.7,16.4c-0.7,1.8-2.3,7.5,0.6,10.4c1.4,1.4,3.5,1.8,5.5,1.8c1.1,0,2.2-0.1,3.2-0.3c0.3,5.1,1.1,11.1,2.9,16.4
	c-2.4,1.6-4,4.4-4,7.5c0,1.2,1,2.2,2.2,2.2H83c1.2,0,2.2-1,2.2-2.2v-6.9c0-0.2,0-0.3,0-0.5c-0.8-3.9-1.9-14.2,1.4-20.1
	c3.4,5.9,2.3,16.2,1.4,20.1c0,0.2-0.1,0.3-0.1,0.5v6.9c0,1.2,1,2.2,2.2,2.2H109c1.2,0,2.2-1,2.2-2.2c0-3.1-1.6-5.9-4-7.5
	c4.1-12.1,2.9-27.5,2.8-28.2l-0.4-4.8c0,0,0,0,0,0c-0.1-1.3-0.3-2.6-0.6-3.8h56.1c1.2,0,2.2-1,2.2-2.2c0-1.2-1-2.2-2.2-2.2H108
	c-0.6-2.1-1.3-3.9-2-5.3c1.9,0.1,4.3,0.2,6.9,0.2c6.7,0,11.9-0.7,15.5-2.1c0.6,0.7,1.3,1.2,2.2,1.5l-0.7,2.4
	c-0.3,1.2,0.3,2.4,1.5,2.7c0.2,0.1,0.4,0.1,0.6,0.1c1,0,1.8-0.6,2.1-1.6l0.9-3.2h1.7c3,0,5.5-2.5,5.5-5.5v-2.4
	c0-2.3-1.5-4.3-3.5-5.1L151,98.3c0.3-1.2-0.3-2.4-1.5-2.7c-1.2-0.3-2.4,0.3-2.7,1.5l-12.6,44.3h-4.9c-1.4-0.3-9.7-2.1-18.7-4.8
	c4.7-3.3,7.9-8.6,8.2-14.8c0.1-1.2,0.1-2.4,0.1-3.6c3.8-0.9,6.7-4.4,6.7-8.6c0-4.2-2.9-7.7-6.8-8.6c-0.2-4.7-0.6-9.3-1.2-14
	c4.3-4.7,7.8-9.9,8.9-13.7h59.9c3.4,0,6.2,2.8,6.2,6.2v74.4c0,3.4-2.8,6.2-6.2,6.2H174c-1.2,0-2.2,1-2.2,2.2s1,2.2,2.2,2.2h12.5
	c5.8,0,10.5-4.8,10.5-10.6V79.4C197,73.6,192.3,68.8,186.5,68.8z M113.7,90.9c0.4,3.6,0.6,7.3,0.8,10.9l-7.1,4.4
	c-1.4-3.3-4.6-5.7-8.4-5.7c-4.3,0-7.9,3-8.9,7h-7c-1-4-4.6-7-8.9-7c-3.8,0-7.1,2.3-8.4,5.7l-3.9-2.4c3.9-2.1,6.2-6.2,7.4-9.8
	c3.9,2.8,8.9,4.7,14.5,5.6c6.8,1,13.7,0.3,19.5-1.9C106.7,96.3,110.4,93.9,113.7,90.9z M103.7,109.7c0,2.6-2.1,4.8-4.7,4.8
	c-2.6,0-4.7-2.1-4.7-4.8c0-2.6,2.1-4.8,4.7-4.8C101.5,105,103.7,107.1,103.7,109.7z M79,109.7c0,2.6-2.1,4.8-4.7,4.8
	c-2.6,0-4.7-2.1-4.7-4.8c0-2.6,2.1-4.8,4.7-4.8C76.9,105,79,107.1,79,109.7z M51.9,109.6c0-1.7,0.9-3.1,2.3-3.9
	c-0.1,2.6-0.1,5.1-0.1,7.7C52.8,112.6,51.9,111.2,51.9,109.6z M78.6,144.3l1.7-4.2c1.4,0,2.8,0,4.1,0.1v2.6L78.6,144.3z M92.9,140.1
	l1.7,4.2l-5.8-1.5v-2.6C90.2,140.2,91.6,140.2,92.9,140.1z M57.5,180.2c-0.6-0.6-0.5-2.7,0-4.7H63c-0.1,1.2-0.1,2.9-0.1,4.9
	C60.3,180.9,58.1,180.8,57.5,180.2z M66.9,206.6c0.8-1.5,2.3-2.5,4.1-2.5h9.9v2.5H66.9z M92.4,206.6v-2.5h9.9c1.8,0,3.3,1,4.1,2.5
	H92.4z M92.8,199.7c0.3-1.8,0.5-4.4,0.5-7.2c0-7.4-1.7-13-5.1-16.4c-0.4-0.4-1-0.6-1.5-0.6c-0.6,0-1.1,0.2-1.5,0.6
	c-3.4,3.4-5.1,9-5.1,16.4c0,2.8,0.3,5.4,0.5,7.2H70.1c-3.7-11-2.5-28.1-2.4-29h37.8l0.2,2.8c0,0.2,1.2,15-2.5,26.2H92.8z
	 M137.8,149.2c0,0.6-0.5,1.1-1.1,1.1h-3.4c0,0,0,0,0,0h-0.9c-0.6,0-1.1-0.5-1.1-1.1v-3.5h5.4c0.6,0,1.1,0.5,1.1,1.1V149.2z
	 M126.9,145.3v3.4c-3,1.2-7.8,1.8-14.1,1.8c-5.6,0-10.4-0.5-10.4-0.5c-0.8-0.1-1.6,0.3-2.1,1c-0.4,0.7-0.4,1.6,0,2.3
	c0,0.1,3.3,5.4,4.6,12.9H88.8v-18.9l8.9,2.3c0.2,0,0.4,0.1,0.5,0.1c0.6,0,1.2-0.3,1.6-0.8c0.5-0.6,0.7-1.5,0.4-2.3l-2.7-6.7
	c1,0,2.1-0.1,3.1-0.1c1.4-0.1,2.7-0.3,4-0.6C113.7,142.3,123.1,144.5,126.9,145.3z M114.5,121.5c-0.4,7.6-6.4,13.6-14,14
	c-9.2,0.4-18.6,0.4-27.8,0c-7.6-0.4-13.6-6.4-14-14c-0.2-4.8-0.3-9.7-0.2-14.6l6.7,4.1c0.6,4.5,4.4,7.9,9,7.9c4.3,0,7.9-3,8.9-7h7
	c1,4,4.6,7,8.9,7c4.6,0,8.4-3.4,9-7.9l6.7-4.1C114.8,111.8,114.7,116.6,114.5,121.5z M121.3,109.6c0,1.6-0.9,3.1-2.2,3.8
	c0-2.6,0-5.1-0.1-7.7C120.4,106.5,121.3,107.9,121.3,109.6z M122.5,71.8c-1.8,6.6-12.4,18.6-20.7,21.8c-10.8,4.2-25.3,1.9-32.2-5
	c-0.6-0.6-1.5-0.8-2.2-0.5c-0.8,0.3-1.4,0.9-1.5,1.8c0,0.1-1.7,11-9.4,11c0,0,0,0,0,0c0,0-0.1,0-0.1,0c-0.9,0-1.8,0.1-2.6,0.4
	c-2.2-9.4-4.2-23.1,1-27.4c3.5-2.9,9.3-0.1,9.4-0.1c1.1,0.5,2.4,0.1,2.9-1c1.7-3.3,4.1-5.1,7.4-5.5c0.2,0,0.5-0.1,0.7-0.1
	c0,0,0.1,0,0.1,0c1.9-0.1,4,0.2,6.3,1c0.7,0.2,1.4,0.5,2,0.7c1.1,0.5,2.1,0.9,2.9,1.3c-1.9,2.5-3.9,4.8-5.8,5.5
	c-1.1,0.4-1.7,1.7-1.3,2.8c0.4,1.1,1.7,1.7,2.8,1.3c3.6-1.3,6.3-5,8.9-8.5c2-2.6,4.4-5.9,6.1-5.9c0.4,0,0.5,0.1,0.6,0.2
	c0.8,1.1,0.4,4.8-0.2,7c-0.3,1.1,0.3,2.3,1.4,2.7c1.1,0.4,2.3-0.2,2.7-1.3c0-0.1,3.4-8.6,8.7-8.6c0.6,0,1,0.1,1.2,0.4
	c0.7,1.1-0.2,4.8-1.4,7.5c-0.5,1-0.1,2.2,0.8,2.8c1,0.6,2.2,0.4,2.9-0.5c2-2.6,6-6.5,8.1-6.5h0c0.2,0,0.4,0,0.7,0.4
	C122.8,69.7,122.8,70.5,122.5,71.8z"/>
<text transform="matrix(1 0 0 1 214 155)" class="st0 st1 st2" style="font-family: 'Quicksand', sans-serif;">Math</text>
</svg>
