<svg width="310" height="490" viewBox="0 0 310 490" fill="none" xmlns="http://www.w3.org/2000/svg">
	<path d="M139.469 347.824H79.9626C79.7988 347.074 79.4968 346.404 79.0532 345.819C77.9941 344.422 76.5486 343.679 74.8722 343.67C72.9606 343.662 70.9318 344.688 69.1265 346.028C69.1166 344.733 68.8652 343.482 68.2151 342.441C67.5196 341.328 66.1025 340 63.3011 340C59.8614 340 57.1242 341.827 55.0775 344.019C54.8628 343.256 54.5431 342.546 54.0852 341.94C53.1263 340.671 51.728 340 50.0408 340C46.9022 340 44.4589 342.512 42.0492 345.595C41.0522 345.038 39.7216 344.358 38.1615 343.716C37.3889 343.398 36.6029 343.108 35.8224 342.855C33.0041 341.942 30.3512 341.546 27.9372 341.675C27.9296 341.675 27.9181 341.676 27.9067 341.677C27.8865 341.677 27.8663 341.678 27.8461 341.68C27.4977 341.701 27.1441 341.734 26.7879 341.778C22.739 342.297 19.415 344.417 17.0774 347.946C14.2951 347.024 9.02282 345.978 4.93239 349.318C-0.836753 354.029 -1.53783 364.946 2.79137 382.664C1.38922 384.23 0.533755 386.302 0.533755 388.572C0.533755 392.716 3.38522 396.2 7.21667 397.147C7.2568 398.336 7.30368 399.525 7.36432 400.709C7.71794 407.66 11.6754 413.58 17.4085 416.65C15.5546 418.659 13.178 421.9 11.1521 426.798C10.6875 427.922 11.2154 429.212 12.3319 429.679C12.6067 429.795 12.8918 429.849 13.1724 429.849C14.0299 429.849 14.8441 429.339 15.1942 428.492C17.6001 422.675 20.4829 419.629 21.9193 418.371C23.0742 418.649 24.271 418.822 25.4997 418.88C26.533 418.929 27.5686 418.97 28.6046 419.009L25.9013 425.727C25.5914 426.498 25.7384 427.378 26.2822 428.004C26.8254 428.63 27.6732 428.895 28.473 428.689L37.4144 426.386V445.283H21.3439C21.9565 442.45 22.6927 440.444 22.705 440.411C23.1284 439.272 22.555 438.003 21.4233 437.576C20.291 437.149 19.0292 437.726 18.6049 438.865C18.5493 439.015 17.2336 442.578 16.5498 447.16C16.4001 448.166 16.2958 449.144 16.229 450.094H11.1876C11.3056 445.167 11.8227 440.596 12.7298 436.477C12.9914 435.289 12.2466 434.113 11.0663 433.85C9.88532 433.586 8.71667 434.336 8.45534 435.524C7.37106 440.448 6.81295 445.954 6.78805 451.888C6.13122 453.728 4.47038 459.349 7.42409 462.322C8.78786 463.694 10.8761 464.111 12.9099 464.111C14.0223 464.111 15.1169 463.986 16.0687 463.825C16.3541 468.907 17.1275 474.906 18.9597 480.273C16.5618 481.906 14.9824 484.669 14.9824 487.797C14.9824 489.014 15.9627 490 17.1715 490H36.031C37.2401 490 38.2201 489.013 38.2201 487.797V480.922C38.2201 480.762 38.2025 480.607 38.1706 480.457C37.3368 476.566 36.2223 466.276 39.6023 460.32C42.97 466.265 41.8658 476.554 41.037 480.452C41.0042 480.603 40.986 480.76 40.986 480.922V487.797C40.986 489.014 41.9663 490 43.1751 490H62.0346C63.2437 490 64.2237 489.013 64.2237 487.797C64.2237 484.67 62.6452 481.908 60.2481 480.274C64.3886 468.147 63.1125 452.779 63.0553 452.122L62.673 447.312C62.6719 447.297 62.6704 447.282 62.6689 447.267C62.5362 445.941 62.3373 444.664 62.095 443.443H118.215C119.424 443.443 120.404 442.456 120.404 441.239C120.404 440.023 119.424 439.036 118.215 439.036H60.9785C60.3407 436.971 59.6285 435.183 58.9887 433.762C60.8625 433.873 63.256 433.965 65.8514 433.962C72.5748 433.945 77.77 433.249 81.3545 431.894C81.9448 432.552 82.6884 433.064 83.5301 433.375L82.8583 435.743C82.5263 436.913 83.1999 438.132 84.3624 438.466C84.5631 438.524 84.7655 438.552 84.9644 438.552C85.9172 438.552 86.7937 437.921 87.0685 436.953L87.9867 433.716H89.7035C92.7205 433.716 95.175 431.245 95.175 428.209V425.849C95.175 423.511 93.7183 421.515 91.6725 420.717L103.99 377.276C104.321 376.106 103.648 374.886 102.485 374.553C101.323 374.219 100.111 374.897 99.7793 376.067L87.2259 420.342H82.3497C80.9519 420.052 72.6073 418.283 63.6219 415.53C68.3481 412.257 71.5098 406.889 71.8257 400.708C71.886 399.523 71.9332 398.335 71.973 397.147C75.8042 396.2 78.6553 392.715 78.6553 388.572C78.6553 384.379 75.7377 380.861 71.84 379.963C71.6115 375.287 71.226 370.618 70.6854 365.973C75.0199 361.296 78.4356 356.116 79.6096 352.231H139.469C142.862 352.231 145.622 355.009 145.622 358.424V432.842C145.622 436.257 142.862 439.036 139.469 439.036H126.973C125.764 439.036 124.784 440.022 124.784 441.239C124.784 442.456 125.764 443.442 126.973 443.442H139.469C145.276 443.442 150 438.687 150 432.842V358.424C150 352.58 145.276 347.824 139.469 347.824ZM66.706 369.881C67.0681 373.52 67.3327 377.172 67.4997 380.827L60.3515 385.236C58.9802 381.91 55.7212 379.565 51.9272 379.565C47.6543 379.565 44.0601 382.54 43.0769 386.539H36.1125C35.1293 382.54 31.5351 379.565 27.2622 379.565C23.4682 379.565 20.2092 381.91 18.8379 385.236L14.9068 382.811C18.7731 380.745 21.1037 376.635 22.3013 373.031C26.1633 375.824 31.1786 377.764 36.7904 378.595C43.5949 379.602 50.5353 378.915 56.3346 376.66C59.7433 375.334 63.3554 372.862 66.706 369.881ZM56.6666 388.742C56.6666 391.373 54.5405 393.512 51.9272 393.512C49.3139 393.512 47.1879 391.373 47.1879 388.742C47.1879 386.112 49.3139 383.972 51.9272 383.972C54.5405 383.972 56.6666 386.112 56.6666 388.742ZM32.0015 388.742C32.0015 391.373 29.8755 393.512 27.2622 393.512C24.6489 393.512 22.5228 391.373 22.5228 388.742C22.5228 386.112 24.6489 383.972 27.2622 383.972C29.8755 383.972 32.0015 386.112 32.0015 388.742ZM4.91217 388.572C4.91217 386.913 5.82389 385.467 7.16803 384.709C7.10153 387.267 7.08307 389.834 7.1112 392.398C5.7987 391.631 4.91217 390.205 4.91217 388.572ZM31.5861 423.339L33.2742 419.143C34.6532 419.172 36.0334 419.19 37.4144 419.2V421.838L31.5861 423.339ZM45.931 419.143L47.6194 423.339L41.7928 421.838V419.2C43.173 419.19 44.5526 419.172 45.931 419.143ZM10.5199 459.206C9.90641 458.588 10.0403 456.475 10.5632 454.501H16.0075C15.9533 455.747 15.9091 457.42 15.926 459.372C13.3362 459.888 11.0765 459.766 10.5199 459.206ZM19.9104 485.593C20.6921 484.129 22.2275 483.13 23.9903 483.125H33.842V485.593H19.9104ZM45.3647 485.593V483.125H55.2167C56.9798 483.13 58.5149 484.129 59.2966 485.593H45.3647ZM45.7661 478.718C46.0163 476.918 46.2785 474.362 46.2829 471.531C46.2943 464.088 44.5681 458.57 41.1518 455.132C40.7414 454.718 40.1844 454.486 39.6038 454.486C39.0231 454.486 38.4662 454.718 38.0557 455.132C34.6391 458.571 32.913 464.088 32.9244 471.531C32.9288 474.362 33.191 476.918 33.4412 478.718L23.056 478.718C19.3549 467.738 20.5708 450.595 20.6557 449.69H58.4704L58.693 452.489C58.7065 452.644 59.9335 467.497 56.1512 478.718L45.7661 478.718ZM90.7966 428.209C90.7966 428.815 90.3061 429.309 89.7035 429.309H86.3103C86.298 429.309 86.2857 429.309 86.2734 429.309H85.408C84.8054 429.309 84.3152 428.815 84.3152 428.209V424.749H89.7035C90.3061 424.749 90.7966 425.242 90.7966 425.849V428.209ZM79.9371 424.331V427.728C76.9233 428.907 72.1154 429.536 65.8819 429.555C60.2675 429.571 55.5149 429.073 55.4675 429.068C54.6354 428.979 53.8265 429.378 53.3824 430.092C52.9385 430.806 52.9386 431.714 53.3818 432.428C53.4184 432.487 56.712 437.87 57.9829 445.283H41.7928V426.387L50.7325 428.689C50.9121 428.736 51.0943 428.758 51.2751 428.758C51.8979 428.758 52.502 428.49 52.9233 428.005C53.4668 427.379 53.6141 426.498 53.3042 425.728L50.6007 419.008C51.631 418.97 52.6608 418.929 53.6883 418.88C55.0772 418.815 56.4234 418.597 57.7163 418.253C66.7242 421.314 76.1253 423.496 79.9371 424.331ZM67.4531 400.483C67.0638 408.103 61.0579 414.119 53.4823 414.478C44.2664 414.916 34.9213 414.916 25.7056 414.478C18.1298 414.119 12.1245 408.103 11.7369 400.483C11.4896 395.648 11.4193 390.756 11.5204 385.891L18.2364 390.033C18.8619 394.484 22.6699 397.92 27.2622 397.92C31.5351 397.92 35.1293 394.945 36.1125 390.946H43.0769C44.0601 394.945 47.6543 397.92 51.9272 397.92C56.5195 397.92 60.3275 394.484 60.953 390.033L67.6664 385.893C67.7686 390.767 67.6995 395.638 67.4531 400.483ZM74.2769 388.572C74.2769 390.205 73.3904 391.632 72.0782 392.398C72.1054 389.837 72.0861 387.272 72.0187 384.707C73.3643 385.465 74.2769 386.912 74.2769 388.572ZM75.4766 350.773C73.6306 357.354 63.0486 369.324 54.7564 372.549C43.9462 376.753 29.5054 374.491 22.5662 367.506C21.9808 366.917 21.1154 366.711 20.3294 366.973C19.5436 367.235 18.9717 367.921 18.8522 368.746C18.8364 368.856 17.1653 379.742 9.44938 379.742C9.44674 379.742 9.4444 379.742 9.44176 379.742C9.39694 379.741 9.35212 379.739 9.30729 379.739C8.39733 379.739 7.5193 379.879 6.69313 380.139C4.52575 370.753 2.47819 357.024 7.67809 352.751C11.1993 349.858 16.9992 352.632 17.0513 352.657C18.1218 353.187 19.4159 352.757 19.9629 351.69C21.6594 348.381 24.0729 346.569 27.3331 346.152C27.5806 346.121 27.8314 346.097 28.0793 346.081C28.1168 346.08 28.1546 346.078 28.1921 346.075C30.0659 345.978 32.1826 346.306 34.4806 347.05C35.1533 347.268 35.8339 347.519 36.5045 347.795C37.6025 348.247 38.5746 348.723 39.3618 349.143C37.4619 351.627 35.511 353.918 33.5206 354.658C32.3865 355.079 31.8064 356.347 32.2254 357.488C32.6443 358.63 33.9035 359.213 35.0373 358.792C38.6229 357.459 41.3402 353.832 43.9684 350.324C45.9433 347.688 48.401 344.407 50.0414 344.407C50.4489 344.407 50.5327 344.518 50.6001 344.607C51.4368 345.712 51.0407 349.381 50.4337 351.603C50.1208 352.738 50.7504 353.92 51.8628 354.286C52.9755 354.652 54.1769 354.072 54.5909 352.971C54.6231 352.885 57.9583 344.407 63.3017 344.407C63.9451 344.407 64.3512 344.534 64.5085 344.786C65.2175 345.918 64.3242 349.626 63.0802 352.243C62.5951 353.258 62.9487 354.478 63.8994 355.071C64.8507 355.665 66.0928 355.441 66.7802 354.552C68.8028 351.938 72.7602 348.077 74.8424 348.077H74.8509C75.0665 348.078 75.2836 348.11 75.5724 348.491C75.7555 348.733 75.8405 349.476 75.4766 350.773Z" fill="black" />
	<path d="M182.276 403.382C182.576 403.382 182.834 403.49 183.05 403.706C183.278 403.91 183.392 404.168 183.392 404.48V414.902C183.392 415.214 183.29 415.478 183.086 415.694C182.882 415.898 182.612 416 182.276 416C181.94 416 181.664 415.898 181.448 415.694C181.244 415.49 181.142 415.226 181.142 414.902V407.648L178.172 412.184C178.052 412.328 177.914 412.448 177.758 412.544C177.602 412.628 177.44 412.664 177.272 412.652C177.116 412.664 176.96 412.628 176.804 412.544C176.648 412.448 176.51 412.328 176.39 412.184L173.42 407.486V414.902C173.42 415.226 173.324 415.49 173.132 415.694C172.94 415.898 172.688 416 172.376 416C172.076 416 171.83 415.898 171.638 415.694C171.446 415.478 171.35 415.214 171.35 414.902V404.48C171.35 404.18 171.458 403.922 171.674 403.706C171.902 403.49 172.172 403.382 172.484 403.382C172.664 403.382 172.844 403.43 173.024 403.526C173.204 403.61 173.342 403.724 173.438 403.868L177.362 409.898L181.394 403.868C181.49 403.724 181.616 403.61 181.772 403.526C181.94 403.43 182.108 403.382 182.276 403.382ZM193.712 406.19C194.024 406.19 194.282 406.292 194.486 406.496C194.69 406.7 194.792 406.964 194.792 407.288V414.902C194.792 415.214 194.69 415.478 194.486 415.694C194.282 415.898 194.024 416 193.712 416C193.4 416 193.142 415.898 192.938 415.694C192.746 415.49 192.644 415.232 192.632 414.92C192.332 415.268 191.924 415.568 191.408 415.82C190.904 416.06 190.37 416.18 189.806 416.18C188.978 416.18 188.228 415.97 187.556 415.55C186.884 415.118 186.35 414.524 185.954 413.768C185.57 413.012 185.378 412.154 185.378 411.194C185.378 410.234 185.57 409.376 185.954 408.62C186.338 407.852 186.86 407.258 187.52 406.838C188.192 406.406 188.93 406.19 189.734 406.19C190.31 406.19 190.85 406.298 191.354 406.514C191.858 406.718 192.284 406.982 192.632 407.306V407.288C192.632 406.976 192.734 406.718 192.938 406.514C193.142 406.298 193.4 406.19 193.712 406.19ZM190.076 414.2C190.856 414.2 191.492 413.918 191.984 413.354C192.476 412.778 192.722 412.058 192.722 411.194C192.722 410.33 192.476 409.61 191.984 409.034C191.492 408.458 190.856 408.17 190.076 408.17C189.308 408.17 188.678 408.458 188.186 409.034C187.694 409.61 187.448 410.33 187.448 411.194C187.448 412.058 187.688 412.778 188.168 413.354C188.66 413.918 189.296 414.2 190.076 414.2ZM201.777 413.966C201.945 413.966 202.095 414.05 202.227 414.218C202.371 414.374 202.443 414.584 202.443 414.848C202.443 415.172 202.263 415.448 201.903 415.676C201.555 415.892 201.159 416 200.715 416C199.971 416 199.341 415.844 198.825 415.532C198.321 415.208 198.069 414.53 198.069 413.498V408.53H197.241C196.953 408.53 196.713 408.434 196.521 408.242C196.329 408.05 196.233 407.81 196.233 407.522C196.233 407.246 196.329 407.018 196.521 406.838C196.713 406.646 196.953 406.55 197.241 406.55H198.069V405.398C198.069 405.086 198.171 404.828 198.375 404.624C198.591 404.408 198.855 404.3 199.167 404.3C199.467 404.3 199.719 404.408 199.923 404.624C200.127 404.828 200.229 405.086 200.229 405.398V406.55H201.507C201.795 406.55 202.035 406.646 202.227 406.838C202.419 407.03 202.515 407.27 202.515 407.558C202.515 407.834 202.419 408.068 202.227 408.26C202.035 408.44 201.795 408.53 201.507 408.53H200.229V413.408C200.229 413.66 200.295 413.846 200.427 413.966C200.559 414.074 200.739 414.128 200.967 414.128C201.063 414.128 201.195 414.104 201.363 414.056C201.507 413.996 201.645 413.966 201.777 413.966ZM209.556 406.19C210.744 406.19 211.566 406.556 212.022 407.288C212.478 408.008 212.706 409.01 212.706 410.294V414.902C212.706 415.214 212.604 415.478 212.4 415.694C212.196 415.898 211.938 416 211.626 416C211.314 416 211.056 415.898 210.852 415.694C210.648 415.478 210.546 415.214 210.546 414.902V410.294C210.546 409.634 210.414 409.118 210.15 408.746C209.898 408.362 209.448 408.17 208.8 408.17C208.128 408.17 207.6 408.374 207.216 408.782C206.844 409.178 206.658 409.682 206.658 410.294V414.902C206.658 415.214 206.556 415.478 206.352 415.694C206.148 415.898 205.89 416 205.578 416C205.266 416 205.008 415.898 204.804 415.694C204.6 415.478 204.498 415.214 204.498 414.902V403.778C204.498 403.466 204.6 403.208 204.804 403.004C205.008 402.788 205.266 402.68 205.578 402.68C205.89 402.68 206.148 402.788 206.352 403.004C206.556 403.208 206.658 403.466 206.658 403.778V407.756C206.982 407.324 207.39 406.958 207.882 406.658C208.386 406.346 208.944 406.19 209.556 406.19Z" fill="#C4C4C4" />
	<ellipse cx="56.5938" cy="212.811" rx="9.10938" ry="9.73482" fill="#C4C4C4" />
	<ellipse cx="46.3516" cy="284.062" rx="10.3516" ry="11.0623" fill="#C4C4C4" />
	<ellipse cx="80.1953" cy="145.11" rx="8.28125" ry="8.84984" fill="#C4C4C4" />
	<ellipse cx="118.703" cy="91.5689" rx="7.45312" ry="7.96486" fill="#C4C4C4" />
	<ellipse cx="177.086" cy="42.8943" rx="6.625" ry="7.07987" fill="#C4C4C4" />
	<ellipse cx="245.406" cy="25.1949" rx="5.79687" ry="6.19489" fill="#C4C4C4" />
	<ellipse cx="303.375" cy="42.8943" rx="6.625" ry="7.07987" fill="#C4C4C4" />
	<path d="M237.548 0.364C237.848 0.364 238.106 0.465999 238.322 0.669999C238.55 0.873999 238.664 1.12 238.664 1.408C238.664 1.564 238.628 1.726 238.556 1.894L234.11 12.298C234.002 12.526 233.852 12.7 233.66 12.82C233.468 12.94 233.264 13 233.048 13C232.844 12.988 232.652 12.928 232.472 12.82C232.304 12.7 232.172 12.532 232.076 12.316L227.63 1.876C227.57 1.756 227.54 1.606 227.54 1.426C227.54 1.102 227.66 0.844 227.9 0.651999C228.14 0.448 228.386 0.346 228.638 0.346C228.842 0.346 229.034 0.406 229.214 0.526C229.394 0.646 229.532 0.819999 229.628 1.048L233.246 9.562L236.558 1.048C236.654 0.831999 236.792 0.663999 236.972 0.543999C237.152 0.424 237.344 0.364 237.548 0.364ZM244.504 6.17C244.29 6.17 244.124 6.24 244.004 6.38C243.89 6.52 243.834 6.71333 243.834 6.96V7.99H244.954C245.027 7.99 245.09 8.01667 245.144 8.07C245.204 8.12333 245.234 8.19 245.234 8.27C245.234 8.35 245.204 8.41667 245.144 8.47C245.09 8.52333 245.027 8.55 244.954 8.55H243.834V12.7C243.834 12.7867 243.804 12.86 243.744 12.92C243.69 12.9733 243.62 13 243.534 13C243.447 13 243.374 12.9733 243.314 12.92C243.26 12.86 243.234 12.7867 243.234 12.7V8.55H242.504C242.424 8.55 242.357 8.52333 242.304 8.47C242.25 8.41 242.224 8.34333 242.224 8.27C242.224 8.18333 242.25 8.11667 242.304 8.07C242.357 8.01667 242.424 7.99 242.504 7.99H243.234V6.96C243.234 6.54 243.354 6.21667 243.594 5.99C243.84 5.75667 244.167 5.64 244.574 5.64C244.76 5.64 244.934 5.67 245.094 5.73C245.254 5.78333 245.334 5.87333 245.334 6C245.334 6.08 245.307 6.14667 245.254 6.2C245.2 6.25333 245.14 6.28 245.074 6.28C245.014 6.28 244.94 6.26333 244.854 6.23C244.707 6.19 244.59 6.17 244.504 6.17ZM250.155 6.79C249.855 6.79 249.603 6.694 249.399 6.502C249.195 6.298 249.093 6.058 249.093 5.782C249.093 5.506 249.195 5.278 249.399 5.098C249.603 4.906 249.855 4.81 250.155 4.81H257.373C257.673 4.81 257.925 4.906 258.129 5.098C258.333 5.278 258.435 5.506 258.435 5.782C258.435 6.058 258.333 6.298 258.129 6.502C257.925 6.694 257.673 6.79 257.373 6.79H250.155ZM250.155 10.282C249.855 10.282 249.603 10.186 249.399 9.994C249.195 9.79 249.093 9.55 249.093 9.274C249.093 8.998 249.195 8.77 249.399 8.59C249.603 8.398 249.855 8.302 250.155 8.302H257.373C257.673 8.302 257.925 8.398 258.129 8.59C258.333 8.77 258.435 8.998 258.435 9.274C258.435 9.55 258.333 9.79 258.129 9.994C257.925 10.186 257.673 10.282 257.373 10.282H250.155ZM269.909 13.18C268.901 13.18 268.031 12.91 267.299 12.37C266.579 11.83 266.033 11.074 265.661 10.102C265.289 9.118 265.103 7.984 265.103 6.7C265.103 5.416 265.289 4.288 265.661 3.316C266.033 2.332 266.579 1.57 267.299 1.03C268.031 0.489999 268.901 0.219999 269.909 0.219999C270.917 0.219999 271.781 0.489999 272.501 1.03C273.233 1.57 273.785 2.332 274.157 3.316C274.529 4.288 274.715 5.416 274.715 6.7C274.715 7.984 274.529 9.118 274.157 10.102C273.785 11.074 273.233 11.83 272.501 12.37C271.781 12.91 270.917 13.18 269.909 13.18ZM269.909 11.02C270.677 11.02 271.277 10.654 271.709 9.922C272.153 9.19 272.375 8.116 272.375 6.7C272.375 5.284 272.153 4.21 271.709 3.478C271.277 2.746 270.677 2.38 269.909 2.38C269.141 2.38 268.535 2.746 268.091 3.478C267.659 4.21 267.443 5.284 267.443 6.7C267.443 8.116 267.659 9.19 268.091 9.922C268.535 10.654 269.141 11.02 269.909 11.02Z" fill="black" />
</svg>
