<svg width="121" height="158" viewBox="0 0 121 158" fill="none" xmlns="http://www.w3.org/2000/svg">
	<path d="M79.82 124.99C79.9867 124.99 80.13 125.05 80.25 125.17C80.3767 125.283 80.44 125.427 80.44 125.6V131.39C80.44 131.563 80.3833 131.71 80.27 131.83C80.1567 131.943 80.0067 132 79.82 132C79.6333 132 79.48 131.943 79.36 131.83C79.2467 131.717 79.19 131.57 79.19 131.39V127.36L77.54 129.88C77.4733 129.96 77.3967 130.027 77.31 130.08C77.2233 130.127 77.1333 130.147 77.04 130.14C76.9533 130.147 76.8667 130.127 76.78 130.08C76.6933 130.027 76.6167 129.96 76.55 129.88L74.9 127.27V131.39C74.9 131.57 74.8467 131.717 74.74 131.83C74.6333 131.943 74.4933 132 74.32 132C74.1533 132 74.0167 131.943 73.91 131.83C73.8033 131.71 73.75 131.563 73.75 131.39V125.6C73.75 125.433 73.81 125.29 73.93 125.17C74.0567 125.05 74.2067 124.99 74.38 124.99C74.48 124.99 74.58 125.017 74.68 125.07C74.78 125.117 74.8567 125.18 74.91 125.26L77.09 128.61L79.33 125.26C79.3833 125.18 79.4533 125.117 79.54 125.07C79.6333 125.017 79.7267 124.99 79.82 124.99ZM86.1734 126.55C86.3467 126.55 86.49 126.607 86.6034 126.72C86.7167 126.833 86.7734 126.98 86.7734 127.16V131.39C86.7734 131.563 86.7167 131.71 86.6034 131.83C86.49 131.943 86.3467 132 86.1734 132C86 132 85.8567 131.943 85.7434 131.83C85.6367 131.717 85.58 131.573 85.5734 131.4C85.4067 131.593 85.18 131.76 84.8934 131.9C84.6134 132.033 84.3167 132.1 84.0034 132.1C83.5434 132.1 83.1267 131.983 82.7534 131.75C82.38 131.51 82.0834 131.18 81.8634 130.76C81.65 130.34 81.5434 129.863 81.5434 129.33C81.5434 128.797 81.65 128.32 81.8634 127.9C82.0767 127.473 82.3667 127.143 82.7334 126.91C83.1067 126.67 83.5167 126.55 83.9634 126.55C84.2834 126.55 84.5834 126.61 84.8634 126.73C85.1434 126.843 85.38 126.99 85.5734 127.17V127.16C85.5734 126.987 85.63 126.843 85.7434 126.73C85.8567 126.61 86 126.55 86.1734 126.55ZM84.1534 131C84.5867 131 84.94 130.843 85.2134 130.53C85.4867 130.21 85.6234 129.81 85.6234 129.33C85.6234 128.85 85.4867 128.45 85.2134 128.13C84.94 127.81 84.5867 127.65 84.1534 127.65C83.7267 127.65 83.3767 127.81 83.1034 128.13C82.83 128.45 82.6934 128.85 82.6934 129.33C82.6934 129.81 82.8267 130.21 83.0934 130.53C83.3667 130.843 83.72 131 84.1534 131ZM90.6538 130.87C90.7472 130.87 90.8305 130.917 90.9038 131.01C90.9838 131.097 91.0238 131.213 91.0238 131.36C91.0238 131.54 90.9238 131.693 90.7238 131.82C90.5305 131.94 90.3105 132 90.0638 132C89.6505 132 89.3005 131.913 89.0138 131.74C88.7338 131.56 88.5938 131.183 88.5938 130.61V127.85H88.1338C87.9738 127.85 87.8405 127.797 87.7338 127.69C87.6272 127.583 87.5738 127.45 87.5738 127.29C87.5738 127.137 87.6272 127.01 87.7338 126.91C87.8405 126.803 87.9738 126.75 88.1338 126.75H88.5938V126.11C88.5938 125.937 88.6505 125.793 88.7638 125.68C88.8838 125.56 89.0305 125.5 89.2038 125.5C89.3705 125.5 89.5105 125.56 89.6238 125.68C89.7372 125.793 89.7938 125.937 89.7938 126.11V126.75H90.5038C90.6638 126.75 90.7972 126.803 90.9038 126.91C91.0105 127.017 91.0638 127.15 91.0638 127.31C91.0638 127.463 91.0105 127.593 90.9038 127.7C90.7972 127.8 90.6638 127.85 90.5038 127.85H89.7938V130.56C89.7938 130.7 89.8305 130.803 89.9038 130.87C89.9772 130.93 90.0772 130.96 90.2038 130.96C90.2572 130.96 90.3305 130.947 90.4238 130.92C90.5038 130.887 90.5805 130.87 90.6538 130.87ZM94.9756 126.55C95.6356 126.55 96.0923 126.753 96.3456 127.16C96.599 127.56 96.7256 128.117 96.7256 128.83V131.39C96.7256 131.563 96.669 131.71 96.5556 131.83C96.4423 131.943 96.299 132 96.1256 132C95.9523 132 95.809 131.943 95.6956 131.83C95.5823 131.71 95.5256 131.563 95.5256 131.39V128.83C95.5256 128.463 95.4523 128.177 95.3056 127.97C95.1656 127.757 94.9156 127.65 94.5556 127.65C94.1823 127.65 93.889 127.763 93.6756 127.99C93.469 128.21 93.3656 128.49 93.3656 128.83V131.39C93.3656 131.563 93.309 131.71 93.1956 131.83C93.0823 131.943 92.939 132 92.7656 132C92.5923 132 92.449 131.943 92.3356 131.83C92.2223 131.71 92.1656 131.563 92.1656 131.39V125.21C92.1656 125.037 92.2223 124.893 92.3356 124.78C92.449 124.66 92.5923 124.6 92.7656 124.6C92.939 124.6 93.0823 124.66 93.1956 124.78C93.309 124.893 93.3656 125.037 93.3656 125.21V127.42C93.5456 127.18 93.7723 126.977 94.0456 126.81C94.3256 126.637 94.6356 126.55 94.9756 126.55Z" fill="black" fill-opacity="0.6" />
	<path d="M46.4896 110.608H26.6542C26.5996 110.358 26.4989 110.135 26.3511 109.94C25.998 109.474 25.5162 109.226 24.9574 109.223C24.3202 109.221 23.6439 109.563 23.0422 110.009C23.0389 109.578 22.9551 109.161 22.7384 108.814C22.5065 108.443 22.0342 108 21.1004 108C19.9538 108 19.0414 108.609 18.3592 109.34C18.2876 109.085 18.181 108.849 18.0284 108.647C17.7088 108.224 17.2427 108 16.6803 108C15.6341 108 14.8196 108.837 14.0164 109.865C13.6841 109.679 13.2405 109.453 12.7205 109.239C12.463 109.133 12.201 109.036 11.9408 108.952C11.0014 108.647 10.1171 108.515 9.31239 108.558C9.30985 108.558 9.30605 108.559 9.30224 108.559C9.2955 108.559 9.28876 108.559 9.28202 108.56C9.16591 108.567 9.04804 108.578 8.92929 108.593C7.57968 108.766 6.47167 109.472 5.69247 110.649C4.76503 110.341 3.00761 109.993 1.64413 111.106C-0.278918 112.676 -0.512609 116.315 0.930457 122.221C0.463075 122.743 0.177918 123.434 0.177918 124.191C0.177918 125.572 1.12841 126.733 2.40556 127.049C2.41893 127.445 2.43456 127.842 2.45477 128.236C2.57265 130.553 3.89179 132.527 5.80282 133.55C5.18485 134.22 4.39267 135.3 3.71737 136.933C3.56249 137.307 3.73847 137.737 4.11063 137.893C4.20224 137.932 4.29726 137.95 4.39081 137.95C4.67665 137.95 4.94804 137.78 5.06474 137.497C5.86669 135.558 6.82763 134.543 7.30644 134.124C7.6914 134.216 8.09032 134.274 8.49989 134.293C8.84433 134.31 9.18954 134.323 9.53485 134.336L8.63378 136.576C8.53046 136.833 8.57948 137.126 8.76073 137.335C8.94179 137.543 9.22441 137.632 9.49101 137.563L12.4715 136.795V143.094H7.11464C7.31884 142.15 7.56425 141.481 7.56835 141.47C7.70946 141.091 7.51835 140.668 7.1411 140.525C6.76366 140.383 6.34306 140.575 6.20165 140.955C6.1831 141.005 5.74452 142.193 5.51659 143.72C5.46669 144.055 5.43192 144.381 5.40966 144.698H3.72919C3.76854 143.056 3.94091 141.532 4.24325 140.159C4.33046 139.763 4.08222 139.371 3.68876 139.283C3.29511 139.195 2.90556 139.445 2.81845 139.841C2.45702 141.483 2.27099 143.318 2.26268 145.296C2.04374 145.909 1.49013 147.783 2.4747 148.774C2.92929 149.231 3.62538 149.37 4.30331 149.37C4.67411 149.37 5.03895 149.329 5.35624 149.275C5.45136 150.969 5.70917 152.969 6.31991 154.758C5.5206 155.302 4.99413 156.223 4.99413 157.266C4.99413 157.671 5.32089 158 5.72382 158H12.0103C12.4134 158 12.74 157.671 12.74 157.266V154.974C12.74 154.921 12.7342 154.869 12.7235 154.819C12.4456 153.522 12.0741 150.092 13.2008 148.107C14.3233 150.088 13.9553 153.518 13.679 154.817C13.6681 154.868 13.662 154.92 13.662 154.974V157.266C13.662 157.671 13.9888 158 14.3917 158H20.6782C21.0812 158 21.4079 157.671 21.4079 157.266C21.4079 156.223 20.8817 155.303 20.0827 154.758C21.4629 150.716 21.0375 145.593 21.0184 145.374L20.891 143.771C20.8906 143.766 20.8901 143.761 20.8896 143.756C20.8454 143.314 20.7791 142.888 20.6983 142.481H39.4051C39.8081 142.481 40.1348 142.152 40.1348 141.746C40.1348 141.341 39.808 141.012 39.4051 141.012H20.3262C20.1136 140.324 19.8762 139.728 19.6629 139.254C20.2875 139.291 21.0853 139.322 21.9505 139.321C24.1916 139.315 25.9233 139.083 27.1182 138.631C27.3149 138.851 27.5628 139.021 27.8434 139.125L27.6194 139.914C27.5088 140.304 27.7333 140.711 28.1208 140.822C28.1877 140.841 28.2552 140.851 28.3215 140.851C28.6391 140.851 28.9312 140.64 29.0228 140.318L29.3289 139.239H29.9012C30.9068 139.239 31.725 138.415 31.725 137.403V136.616C31.725 135.837 31.2394 135.172 30.5575 134.906L34.6632 120.425C34.7738 120.035 34.5493 119.629 34.1617 119.518C33.7742 119.406 33.3704 119.632 33.2598 120.022L29.0753 134.781H27.4499C26.984 134.684 24.2024 134.094 21.2073 133.177C22.7827 132.086 23.8366 130.296 23.9419 128.236C23.962 127.841 23.9777 127.445 23.991 127.049C25.2681 126.733 26.2185 125.572 26.2185 124.191C26.2185 122.793 25.2459 121.62 23.9467 121.321C23.8705 119.762 23.742 118.206 23.5618 116.658C25.0066 115.099 26.1452 113.372 26.5365 112.077H46.4896C47.6206 112.077 48.5406 113.003 48.5406 114.141V138.947C48.5406 140.086 47.6206 141.012 46.4896 141.012H42.3242C41.9212 141.012 41.5945 141.341 41.5945 141.746C41.5945 142.152 41.9213 142.481 42.3242 142.481H46.4896C48.4252 142.481 50 140.896 50 138.947V114.141C50 112.193 48.4252 110.608 46.4896 110.608ZM22.2353 117.96C22.356 119.173 22.4442 120.391 22.4999 121.609L20.1172 123.079C19.6601 121.97 18.5737 121.188 17.3091 121.188C15.8848 121.188 14.6867 122.18 14.359 123.513H12.0375C11.7098 122.18 10.5117 121.188 9.08739 121.188C7.82274 121.188 6.73642 121.97 6.27929 123.079L4.96894 122.27C6.2577 121.582 7.03456 120.212 7.43378 119.01C8.72108 119.941 10.3929 120.588 12.2635 120.865C14.5316 121.201 16.8451 120.972 18.7782 120.22C19.9144 119.778 21.1185 118.954 22.2353 117.96ZM18.8889 124.247C18.8889 125.124 18.1802 125.837 17.3091 125.837C16.438 125.837 15.7293 125.124 15.7293 124.247C15.7293 123.371 16.438 122.657 17.3091 122.657C18.1802 122.657 18.8889 123.371 18.8889 124.247ZM10.6672 124.247C10.6672 125.124 9.95849 125.837 9.08739 125.837C8.2163 125.837 7.50761 125.124 7.50761 124.247C7.50761 123.371 8.2163 122.657 9.08739 122.657C9.95849 122.657 10.6672 123.371 10.6672 124.247ZM1.63739 124.191C1.63739 123.638 1.9413 123.156 2.38934 122.903C2.36718 123.756 2.36102 124.611 2.3704 125.466C1.9329 125.21 1.63739 124.735 1.63739 124.191ZM10.5287 135.78L11.0914 134.381C11.5511 134.391 12.0111 134.397 12.4715 134.4V135.279L10.5287 135.78ZM15.3103 134.381L15.8731 135.78L13.9309 135.279V134.4C14.391 134.397 14.8509 134.391 15.3103 134.381ZM3.50663 147.735C3.30214 147.529 3.34677 146.825 3.52108 146.167H5.33583C5.31776 146.582 5.30302 147.14 5.30868 147.791C4.4454 147.963 3.69218 147.922 3.50663 147.735ZM6.63681 156.531C6.89735 156.043 7.40917 155.71 7.99677 155.708H11.2807V156.531H6.63681ZM15.1216 156.531V155.708H18.4056C18.9933 155.71 19.505 156.043 19.7655 156.531H15.1216ZM15.2554 154.239C15.3388 153.639 15.4262 152.787 15.4276 151.844C15.4314 149.363 14.856 147.523 13.7173 146.377C13.5805 146.239 13.3948 146.162 13.2013 146.162C13.0077 146.162 12.8221 146.239 12.6852 146.377C11.5464 147.524 10.971 149.363 10.9748 151.844C10.9763 152.787 11.0637 153.639 11.1471 154.239L7.68534 154.239C6.45165 150.579 6.85692 144.865 6.88524 144.563H19.4901L19.5643 145.496C19.5688 145.548 19.9778 150.499 18.7171 154.239L15.2554 154.239ZM30.2655 137.403C30.2655 137.605 30.102 137.77 29.9012 137.77H28.7701C28.766 137.77 28.7619 137.77 28.7578 137.77H28.4693C28.2685 137.77 28.1051 137.605 28.1051 137.403V136.25H29.9012C30.102 136.25 30.2655 136.414 30.2655 136.616V137.403ZM26.6457 136.11V137.243C25.6411 137.636 24.0385 137.845 21.9606 137.852C20.0892 137.857 18.505 137.691 18.4892 137.689C18.2118 137.66 17.9422 137.793 17.7941 138.031C17.6462 138.269 17.6462 138.571 17.7939 138.809C17.8061 138.829 18.904 140.623 19.3276 143.094H13.9309V136.796L16.9108 137.563C16.9707 137.579 17.0314 137.586 17.0917 137.586C17.2993 137.586 17.5007 137.497 17.6411 137.335C17.8223 137.126 17.8714 136.833 17.7681 136.576L16.8669 134.336C17.2103 134.323 17.5536 134.31 17.8961 134.293C18.3591 134.272 18.8078 134.199 19.2388 134.084C22.2414 135.105 25.3751 135.832 26.6457 136.11ZM22.4844 128.161C22.3546 130.701 20.3526 132.706 17.8274 132.826C14.7555 132.972 11.6404 132.972 8.56855 132.826C6.04325 132.706 4.04149 130.701 3.91229 128.161C3.82987 126.549 3.80643 124.919 3.84013 123.297L6.0788 124.678C6.28729 126.161 7.55663 127.307 9.08739 127.307C10.5117 127.307 11.7098 126.315 12.0375 124.982H14.359C14.6867 126.315 15.8848 127.307 17.3091 127.307C18.8398 127.307 20.1092 126.161 20.3177 124.678L22.5555 123.298C22.5895 124.922 22.5665 126.546 22.4844 128.161ZM24.759 124.191C24.759 124.735 24.4635 125.211 24.0261 125.466C24.0351 124.612 24.0287 123.757 24.0062 122.902C24.4548 123.155 24.759 123.637 24.759 124.191ZM25.1589 111.591C24.5436 113.785 21.0162 117.775 18.2521 118.85C14.6487 120.251 9.83515 119.497 7.52206 117.169C7.32694 116.972 7.03847 116.904 6.77645 116.991C6.51454 117.078 6.32392 117.307 6.28407 117.582C6.2788 117.619 5.72177 121.247 3.14979 121.247C3.14892 121.247 3.14813 121.247 3.14725 121.247C3.13231 121.247 3.11737 121.246 3.10243 121.246C2.79911 121.246 2.50643 121.293 2.23104 121.38C1.50858 118.251 0.826063 113.675 2.55936 112.25C3.73309 111.286 5.6664 112.211 5.68378 112.219C6.04061 112.396 6.47196 112.252 6.65429 111.897C7.21981 110.794 8.02431 110.19 9.11103 110.051C9.19355 110.04 9.27714 110.032 9.35976 110.027C9.37226 110.027 9.38485 110.026 9.39735 110.025C10.022 109.993 10.7275 110.102 11.4935 110.35C11.7178 110.423 11.9446 110.506 12.1682 110.598C12.5342 110.749 12.8582 110.908 13.1206 111.048C12.4873 111.876 11.837 112.639 11.1735 112.886C10.7955 113.026 10.6021 113.449 10.7418 113.829C10.8814 114.21 11.3012 114.404 11.6791 114.264C12.8743 113.82 13.7801 112.611 14.6561 111.441C15.3144 110.563 16.1337 109.469 16.6805 109.469C16.8163 109.469 16.8442 109.506 16.8667 109.536C17.1456 109.904 17.0136 111.127 16.8112 111.868C16.7069 112.246 16.9168 112.64 17.2876 112.762C17.6585 112.884 18.059 112.691 18.197 112.324C18.2077 112.295 19.3194 109.469 21.1006 109.469C21.315 109.469 21.4504 109.511 21.5028 109.595C21.7392 109.973 21.4414 111.209 21.0268 112.081C20.865 112.419 20.9829 112.826 21.2998 113.024C21.6169 113.222 22.0309 113.147 22.2601 112.851C22.9343 111.979 24.2534 110.692 24.9475 110.692H24.9503C25.0222 110.693 25.0945 110.703 25.1908 110.83C25.2519 110.911 25.2802 111.159 25.1589 111.591Z" fill="black" />
	<circle cx="26.9375" cy="70.9641" r="3" fill="#C4C4C4" />
	<circle cx="25.5" cy="94.5" r="3.5" fill="#C4C4C4" />
	<circle cx="35.6562" cy="48.8669" r="2.5" fill="#C4C4C4" />
	<circle cx="50" cy="31.3467" r="2" fill="#C4C4C4" />
	<circle cx="66.5" cy="18.5" r="1.5" fill="#C4C4C4" />
	<circle cx="92" cy="12" r="1" fill="#C4C4C4" />
	<circle cx="119.5" cy="18.5" r="1.5" fill="#C4C4C4" />
	<path d="M81.86 0.98C82.0267 0.98 82.17 1.03667 82.29 1.15C82.4167 1.26333 82.48 1.4 82.48 1.56C82.48 1.64667 82.46 1.73667 82.42 1.83L79.95 7.61C79.89 7.73667 79.8067 7.83333 79.7 7.9C79.5933 7.96667 79.48 8 79.36 8C79.2467 7.99333 79.14 7.96 79.04 7.9C78.9467 7.83333 78.8733 7.74 78.82 7.62L76.35 1.82C76.3167 1.75333 76.3 1.67 76.3 1.57C76.3 1.39 76.3667 1.24667 76.5 1.14C76.6333 1.02667 76.77 0.97 76.91 0.97C77.0233 0.97 77.13 1.00333 77.23 1.07C77.33 1.13667 77.4067 1.23333 77.46 1.36L79.47 6.09L81.31 1.36C81.3633 1.24 81.44 1.14667 81.54 1.08C81.64 1.01333 81.7467 0.98 81.86 0.98ZM86.7967 4.585C86.6901 4.585 86.6067 4.62 86.5467 4.69C86.4901 4.76 86.4617 4.85667 86.4617 4.98V5.495H87.0217C87.0584 5.495 87.0901 5.50833 87.1167 5.535C87.1467 5.56167 87.1617 5.595 87.1617 5.635C87.1617 5.675 87.1467 5.70833 87.1167 5.735C87.0901 5.76167 87.0584 5.775 87.0217 5.775H86.4617V7.85C86.4617 7.89333 86.4467 7.93 86.4167 7.96C86.3901 7.98667 86.3551 8 86.3117 8C86.2684 8 86.2317 7.98667 86.2017 7.96C86.1751 7.93 86.1617 7.89333 86.1617 7.85V5.775H85.7967C85.7567 5.775 85.7234 5.76167 85.6967 5.735C85.6701 5.705 85.6567 5.67167 85.6567 5.635C85.6567 5.59167 85.6701 5.55833 85.6967 5.535C85.7234 5.50833 85.7567 5.495 85.7967 5.495H86.1617V4.98C86.1617 4.77 86.2217 4.60833 86.3417 4.495C86.4651 4.37833 86.6284 4.32 86.8317 4.32C86.9251 4.32 87.0117 4.335 87.0917 4.365C87.1717 4.39167 87.2117 4.43667 87.2117 4.5C87.2117 4.54 87.1984 4.57333 87.1717 4.6C87.1451 4.62667 87.1151 4.64 87.0817 4.64C87.0517 4.64 87.0151 4.63167 86.9717 4.615C86.8984 4.595 86.8401 4.585 86.7967 4.585ZM91.0988 4.55C90.9321 4.55 90.7921 4.49667 90.6788 4.39C90.5655 4.27667 90.5088 4.14333 90.5088 3.99C90.5088 3.83667 90.5655 3.71 90.6788 3.61C90.7921 3.50333 90.9321 3.45 91.0988 3.45H95.1088C95.2755 3.45 95.4155 3.50333 95.5288 3.61C95.6421 3.71 95.6988 3.83667 95.6988 3.99C95.6988 4.14333 95.6421 4.27667 95.5288 4.39C95.4155 4.49667 95.2755 4.55 95.1088 4.55H91.0988ZM91.0988 6.49C90.9321 6.49 90.7921 6.43667 90.6788 6.33C90.5655 6.21667 90.5088 6.08333 90.5088 5.93C90.5088 5.77667 90.5655 5.65 90.6788 5.55C90.7921 5.44333 90.9321 5.39 91.0988 5.39H95.1088C95.2755 5.39 95.4155 5.44333 95.5288 5.55C95.6421 5.65 95.6988 5.77667 95.6988 5.93C95.6988 6.08333 95.6421 6.21667 95.5288 6.33C95.4155 6.43667 95.2755 6.49 95.1088 6.49H91.0988ZM102.073 8.1C101.513 8.1 101.03 7.95 100.623 7.65C100.223 7.35 99.9196 6.93 99.7129 6.39C99.5063 5.84333 99.4029 5.21333 99.4029 4.5C99.4029 3.78667 99.5063 3.16 99.7129 2.62C99.9196 2.07333 100.223 1.65 100.623 1.35C101.03 1.05 101.513 0.9 102.073 0.9C102.633 0.9 103.113 1.05 103.513 1.35C103.92 1.65 104.226 2.07333 104.433 2.62C104.64 3.16 104.743 3.78667 104.743 4.5C104.743 5.21333 104.64 5.84333 104.433 6.39C104.226 6.93 103.92 7.35 103.513 7.65C103.113 7.95 102.633 8.1 102.073 8.1ZM102.073 6.9C102.5 6.9 102.833 6.69667 103.073 6.29C103.32 5.88333 103.443 5.28667 103.443 4.5C103.443 3.71333 103.32 3.11667 103.073 2.71C102.833 2.30333 102.5 2.1 102.073 2.1C101.646 2.1 101.31 2.30333 101.063 2.71C100.823 3.11667 100.703 3.71333 100.703 4.5C100.703 5.28667 100.823 5.88333 101.063 6.29C101.31 6.69667 101.646 6.9 102.073 6.9Z" fill="#021729" />
</svg>
