<svg width="309" height="499" viewBox="0 0 309 499" fill="none" xmlns="http://www.w3.org/2000/svg">
<path d="M139.469 356.824H79.9626C79.7988 356.074 79.4968 355.404 79.0532 354.819C77.9941 353.422 76.5486 352.679 74.8722 352.67C72.9606 352.662 70.9318 353.688 69.1265 355.028C69.1166 353.733 68.8652 352.482 68.2151 351.441C67.5196 350.328 66.1025 349 63.3011 349C59.8614 349 57.1242 350.827 55.0775 353.019C54.8628 352.256 54.5431 351.546 54.0852 350.94C53.1263 349.671 51.728 349 50.0408 349C46.9022 349 44.4589 351.512 42.0492 354.595C41.0522 354.038 39.7216 353.358 38.1615 352.716C37.3889 352.398 36.6029 352.108 35.8224 351.855C33.0041 350.942 30.3512 350.546 27.9372 350.675C27.9296 350.675 27.9181 350.676 27.9067 350.677C27.8865 350.677 27.8663 350.678 27.8461 350.68C27.4977 350.701 27.1441 350.734 26.7879 350.778C22.739 351.297 19.415 353.417 17.0774 356.946C14.2951 356.024 9.02282 354.978 4.93239 358.318C-0.836753 363.029 -1.53783 373.946 2.79137 391.664C1.38922 393.23 0.533755 395.302 0.533755 397.572C0.533755 401.716 3.38522 405.2 7.21667 406.147C7.2568 407.336 7.30368 408.525 7.36432 409.709C7.71794 416.66 11.6754 422.58 17.4085 425.65C15.5546 427.659 13.178 430.9 11.1521 435.798C10.6875 436.922 11.2154 438.212 12.3319 438.679C12.6067 438.795 12.8918 438.849 13.1724 438.849C14.0299 438.849 14.8441 438.339 15.1942 437.492C17.6001 431.675 20.4829 428.629 21.9193 427.371C23.0742 427.649 24.271 427.822 25.4997 427.88C26.533 427.929 27.5686 427.97 28.6046 428.009L25.9013 434.727C25.5914 435.498 25.7384 436.378 26.2822 437.004C26.8254 437.63 27.6732 437.895 28.473 437.689L37.4144 435.386V454.283H21.3439C21.9565 451.45 22.6927 449.444 22.705 449.411C23.1284 448.272 22.555 447.003 21.4233 446.576C20.291 446.149 19.0292 446.726 18.6049 447.865C18.5493 448.015 17.2336 451.578 16.5498 456.16C16.4001 457.166 16.2958 458.144 16.229 459.094H11.1876C11.3056 454.167 11.8227 449.596 12.7298 445.477C12.9914 444.289 12.2466 443.113 11.0663 442.85C9.88532 442.586 8.71667 443.336 8.45534 444.524C7.37106 449.448 6.81295 454.954 6.78805 460.888C6.13122 462.728 4.47038 468.349 7.42409 471.322C8.78786 472.694 10.8761 473.111 12.9099 473.111C14.0223 473.111 15.1169 472.986 16.0687 472.825C16.3541 477.907 17.1275 483.906 18.9597 489.273C16.5618 490.906 14.9824 493.669 14.9824 496.797C14.9824 498.014 15.9627 499 17.1715 499H36.031C37.2401 499 38.2201 498.013 38.2201 496.797V489.922C38.2201 489.762 38.2025 489.607 38.1706 489.457C37.3368 485.566 36.2223 475.276 39.6023 469.32C42.97 475.265 41.8658 485.554 41.037 489.452C41.0042 489.603 40.986 489.76 40.986 489.922V496.797C40.986 498.014 41.9663 499 43.1751 499H62.0346C63.2437 499 64.2237 498.013 64.2237 496.797C64.2237 493.67 62.6452 490.908 60.2481 489.274C64.3886 477.147 63.1125 461.779 63.0553 461.122L62.673 456.312C62.6719 456.297 62.6704 456.282 62.6689 456.267C62.5362 454.941 62.3373 453.664 62.095 452.443H118.215C119.424 452.443 120.404 451.456 120.404 450.239C120.404 449.023 119.424 448.036 118.215 448.036H60.9785C60.3407 445.971 59.6285 444.183 58.9887 442.762C60.8625 442.873 63.256 442.965 65.8514 442.962C72.5748 442.945 77.77 442.249 81.3545 440.894C81.9448 441.552 82.6884 442.064 83.5301 442.375L82.8583 444.743C82.5263 445.913 83.1999 447.132 84.3624 447.466C84.5631 447.524 84.7655 447.552 84.9644 447.552C85.9172 447.552 86.7937 446.921 87.0685 445.953L87.9867 442.716H89.7035C92.7205 442.716 95.175 440.245 95.175 437.209V434.849C95.175 432.511 93.7183 430.515 91.6725 429.717L103.99 386.276C104.321 385.106 103.648 383.886 102.485 383.553C101.323 383.219 100.111 383.897 99.7793 385.067L87.2259 429.342H82.3497C80.9519 429.052 72.6073 427.283 63.6219 424.53C68.3481 421.257 71.5098 415.889 71.8257 409.708C71.886 408.523 71.9332 407.335 71.973 406.147C75.8042 405.2 78.6553 401.715 78.6553 397.572C78.6553 393.379 75.7377 389.861 71.84 388.963C71.6115 384.287 71.226 379.618 70.6854 374.973C75.0199 370.296 78.4356 365.116 79.6096 361.231H139.469C142.862 361.231 145.622 364.009 145.622 367.424V441.842C145.622 445.257 142.862 448.036 139.469 448.036H126.973C125.764 448.036 124.784 449.022 124.784 450.239C124.784 451.456 125.764 452.442 126.973 452.442H139.469C145.276 452.442 150 447.687 150 441.842V367.424C150 361.58 145.276 356.824 139.469 356.824ZM66.706 378.881C67.0681 382.52 67.3327 386.172 67.4997 389.827L60.3515 394.236C58.9802 390.91 55.7212 388.565 51.9272 388.565C47.6543 388.565 44.0601 391.54 43.0769 395.539H36.1125C35.1293 391.54 31.5351 388.565 27.2622 388.565C23.4682 388.565 20.2092 390.91 18.8379 394.236L14.9068 391.811C18.7731 389.745 21.1037 385.635 22.3013 382.031C26.1633 384.824 31.1786 386.764 36.7904 387.595C43.5949 388.602 50.5353 387.915 56.3346 385.66C59.7433 384.334 63.3554 381.862 66.706 378.881ZM56.6666 397.742C56.6666 400.373 54.5405 402.512 51.9272 402.512C49.3139 402.512 47.1879 400.373 47.1879 397.742C47.1879 395.112 49.3139 392.972 51.9272 392.972C54.5405 392.972 56.6666 395.112 56.6666 397.742ZM32.0015 397.742C32.0015 400.373 29.8755 402.512 27.2622 402.512C24.6489 402.512 22.5228 400.373 22.5228 397.742C22.5228 395.112 24.6489 392.972 27.2622 392.972C29.8755 392.972 32.0015 395.112 32.0015 397.742ZM4.91217 397.572C4.91217 395.913 5.82389 394.467 7.16803 393.709C7.10153 396.267 7.08307 398.834 7.1112 401.398C5.7987 400.631 4.91217 399.205 4.91217 397.572ZM31.5861 432.339L33.2742 428.143C34.6532 428.172 36.0334 428.19 37.4144 428.2V430.838L31.5861 432.339ZM45.931 428.143L47.6194 432.339L41.7928 430.838V428.2C43.173 428.19 44.5526 428.172 45.931 428.143ZM10.5199 468.206C9.90641 467.588 10.0403 465.475 10.5632 463.501H16.0075C15.9533 464.747 15.9091 466.42 15.926 468.372C13.3362 468.888 11.0765 468.766 10.5199 468.206ZM19.9104 494.593C20.6921 493.129 22.2275 492.13 23.9903 492.125H33.842V494.593H19.9104ZM45.3647 494.593V492.125H55.2167C56.9798 492.13 58.5149 493.129 59.2966 494.593H45.3647ZM45.7661 487.718C46.0163 485.918 46.2785 483.362 46.2829 480.531C46.2943 473.088 44.5681 467.57 41.1518 464.132C40.7414 463.718 40.1844 463.486 39.6038 463.486C39.0231 463.486 38.4662 463.718 38.0557 464.132C34.6391 467.571 32.913 473.088 32.9244 480.531C32.9288 483.362 33.191 485.918 33.4412 487.718L23.056 487.718C19.3549 476.738 20.5708 459.595 20.6557 458.69H58.4704L58.693 461.489C58.7065 461.644 59.9335 476.497 56.1512 487.718L45.7661 487.718ZM90.7966 437.209C90.7966 437.815 90.3061 438.309 89.7035 438.309H86.3103C86.298 438.309 86.2857 438.309 86.2734 438.309H85.408C84.8054 438.309 84.3152 437.815 84.3152 437.209V433.749H89.7035C90.3061 433.749 90.7966 434.242 90.7966 434.849V437.209ZM79.9371 433.331V436.728C76.9233 437.907 72.1154 438.536 65.8819 438.555C60.2675 438.571 55.5149 438.073 55.4675 438.068C54.6354 437.979 53.8265 438.378 53.3824 439.092C52.9385 439.806 52.9386 440.714 53.3818 441.428C53.4184 441.487 56.712 446.87 57.9829 454.283H41.7928V435.387L50.7325 437.689C50.9121 437.736 51.0943 437.758 51.2751 437.758C51.8979 437.758 52.502 437.49 52.9233 437.005C53.4668 436.379 53.6141 435.498 53.3042 434.728L50.6007 428.008C51.631 427.97 52.6608 427.929 53.6883 427.88C55.0772 427.815 56.4234 427.597 57.7163 427.253C66.7242 430.314 76.1253 432.496 79.9371 433.331ZM67.4531 409.483C67.0638 417.103 61.0579 423.119 53.4823 423.478C44.2664 423.916 34.9213 423.916 25.7056 423.478C18.1298 423.119 12.1245 417.103 11.7369 409.483C11.4896 404.648 11.4193 399.756 11.5204 394.891L18.2364 399.033C18.8619 403.484 22.6699 406.92 27.2622 406.92C31.5351 406.92 35.1293 403.945 36.1125 399.946H43.0769C44.0601 403.945 47.6543 406.92 51.9272 406.92C56.5195 406.92 60.3275 403.484 60.953 399.033L67.6664 394.893C67.7686 399.767 67.6995 404.638 67.4531 409.483ZM74.2769 397.572C74.2769 399.205 73.3904 400.632 72.0782 401.398C72.1054 398.837 72.0861 396.272 72.0187 393.707C73.3643 394.465 74.2769 395.912 74.2769 397.572ZM75.4766 359.773C73.6306 366.354 63.0486 378.324 54.7564 381.549C43.9462 385.753 29.5054 383.491 22.5662 376.506C21.9808 375.917 21.1154 375.711 20.3294 375.973C19.5436 376.235 18.9717 376.921 18.8522 377.746C18.8364 377.856 17.1653 388.742 9.44938 388.742C9.44674 388.742 9.4444 388.742 9.44176 388.742C9.39694 388.741 9.35212 388.739 9.30729 388.739C8.39733 388.739 7.5193 388.879 6.69313 389.139C4.52575 379.753 2.47819 366.024 7.67809 361.751C11.1993 358.858 16.9992 361.632 17.0513 361.657C18.1218 362.187 19.4159 361.757 19.9629 360.69C21.6594 357.381 24.0729 355.569 27.3331 355.152C27.5806 355.121 27.8314 355.097 28.0793 355.081C28.1168 355.08 28.1546 355.078 28.1921 355.075C30.0659 354.978 32.1826 355.306 34.4806 356.05C35.1533 356.268 35.8339 356.519 36.5045 356.795C37.6025 357.247 38.5746 357.723 39.3618 358.143C37.4619 360.627 35.511 362.918 33.5206 363.658C32.3865 364.079 31.8064 365.347 32.2254 366.488C32.6443 367.63 33.9035 368.213 35.0373 367.792C38.6229 366.459 41.3402 362.832 43.9684 359.324C45.9433 356.688 48.401 353.407 50.0414 353.407C50.4489 353.407 50.5327 353.518 50.6001 353.607C51.4368 354.712 51.0407 358.381 50.4337 360.603C50.1208 361.738 50.7504 362.92 51.8628 363.286C52.9755 363.652 54.1769 363.072 54.5909 361.971C54.6231 361.885 57.9583 353.407 63.3017 353.407C63.9451 353.407 64.3512 353.534 64.5085 353.786C65.2175 354.918 64.3242 358.626 63.0802 361.243C62.5951 362.258 62.9487 363.478 63.8994 364.071C64.8507 364.665 66.0928 364.441 66.7802 363.552C68.8028 360.938 72.7602 357.077 74.8424 357.077H74.8509C75.0665 357.078 75.2836 357.11 75.5724 357.491C75.7555 357.733 75.8405 358.476 75.4766 359.773Z" fill="black"/>
<ellipse cx="55.5938" cy="213.811" rx="9.10938" ry="9.73482" fill="#C4C4C4"/>
<ellipse cx="45.3516" cy="285.062" rx="10.3516" ry="11.0623" fill="#C4C4C4"/>
<ellipse cx="79.1953" cy="146.11" rx="8.28125" ry="8.84984" fill="#C4C4C4"/>
<ellipse cx="117.703" cy="92.5689" rx="7.45312" ry="7.96486" fill="#C4C4C4"/>
<ellipse cx="176.086" cy="43.8943" rx="6.625" ry="7.07987" fill="#C4C4C4"/>
<ellipse cx="244.406" cy="26.1949" rx="5.79687" ry="6.19489" fill="#C4C4C4"/>
<ellipse cx="302.375" cy="43.8943" rx="6.625" ry="7.07987" fill="#C4C4C4"/>
<path d="M236.548 1.364C236.848 1.364 237.106 1.466 237.322 1.67C237.55 1.874 237.664 2.12 237.664 2.408C237.664 2.564 237.628 2.726 237.556 2.894L233.11 13.298C233.002 13.526 232.852 13.7 232.66 13.82C232.468 13.94 232.264 14 232.048 14C231.844 13.988 231.652 13.928 231.472 13.82C231.304 13.7 231.172 13.532 231.076 13.316L226.63 2.876C226.57 2.756 226.54 2.606 226.54 2.426C226.54 2.102 226.66 1.844 226.9 1.652C227.14 1.448 227.386 1.346 227.638 1.346C227.842 1.346 228.034 1.406 228.214 1.526C228.394 1.646 228.532 1.82 228.628 2.048L232.246 10.562L235.558 2.048C235.654 1.832 235.792 1.664 235.972 1.544C236.152 1.424 236.344 1.364 236.548 1.364ZM243.504 7.17C243.29 7.17 243.124 7.24 243.004 7.38C242.89 7.52 242.834 7.71333 242.834 7.96V8.99H243.954C244.027 8.99 244.09 9.01667 244.144 9.07C244.204 9.12333 244.234 9.19 244.234 9.27C244.234 9.35 244.204 9.41667 244.144 9.47C244.09 9.52333 244.027 9.55 243.954 9.55H242.834V13.7C242.834 13.7867 242.804 13.86 242.744 13.92C242.69 13.9733 242.62 14 242.534 14C242.447 14 242.374 13.9733 242.314 13.92C242.26 13.86 242.234 13.7867 242.234 13.7V9.55H241.504C241.424 9.55 241.357 9.52333 241.304 9.47C241.25 9.41 241.224 9.34333 241.224 9.27C241.224 9.18333 241.25 9.11667 241.304 9.07C241.357 9.01667 241.424 8.99 241.504 8.99H242.234V7.96C242.234 7.54 242.354 7.21667 242.594 6.99C242.84 6.75667 243.167 6.64 243.574 6.64C243.76 6.64 243.934 6.67 244.094 6.73C244.254 6.78333 244.334 6.87333 244.334 7C244.334 7.08 244.307 7.14667 244.254 7.2C244.2 7.25333 244.14 7.28 244.074 7.28C244.014 7.28 243.94 7.26333 243.854 7.23C243.707 7.19 243.59 7.17 243.504 7.17ZM249.155 7.79C248.855 7.79 248.603 7.694 248.399 7.502C248.195 7.298 248.093 7.058 248.093 6.782C248.093 6.506 248.195 6.278 248.399 6.098C248.603 5.906 248.855 5.81 249.155 5.81H256.373C256.673 5.81 256.925 5.906 257.129 6.098C257.333 6.278 257.435 6.506 257.435 6.782C257.435 7.058 257.333 7.298 257.129 7.502C256.925 7.694 256.673 7.79 256.373 7.79H249.155ZM249.155 11.282C248.855 11.282 248.603 11.186 248.399 10.994C248.195 10.79 248.093 10.55 248.093 10.274C248.093 9.998 248.195 9.77 248.399 9.59C248.603 9.398 248.855 9.302 249.155 9.302H256.373C256.673 9.302 256.925 9.398 257.129 9.59C257.333 9.77 257.435 9.998 257.435 10.274C257.435 10.55 257.333 10.79 257.129 10.994C256.925 11.186 256.673 11.282 256.373 11.282H249.155ZM268.909 14.18C267.901 14.18 267.031 13.91 266.299 13.37C265.579 12.83 265.033 12.074 264.661 11.102C264.289 10.118 264.103 8.984 264.103 7.7C264.103 6.416 264.289 5.288 264.661 4.316C265.033 3.332 265.579 2.57 266.299 2.03C267.031 1.49 267.901 1.22 268.909 1.22C269.917 1.22 270.781 1.49 271.501 2.03C272.233 2.57 272.785 3.332 273.157 4.316C273.529 5.288 273.715 6.416 273.715 7.7C273.715 8.984 273.529 10.118 273.157 11.102C272.785 12.074 272.233 12.83 271.501 13.37C270.781 13.91 269.917 14.18 268.909 14.18ZM268.909 12.02C269.677 12.02 270.277 11.654 270.709 10.922C271.153 10.19 271.375 9.116 271.375 7.7C271.375 6.284 271.153 5.21 270.709 4.478C270.277 3.746 269.677 3.38 268.909 3.38C268.141 3.38 267.535 3.746 267.091 4.478C266.659 5.21 266.443 6.284 266.443 7.7C266.443 9.116 266.659 10.19 267.091 10.922C267.535 11.654 268.141 12.02 268.909 12.02Z" fill="black"/>
</svg>
