<svg width="167" height="120" viewBox="0 0 167 120" fill="none" xmlns="http://www.w3.org/2000/svg">
<g clip-path="url(#clip0)">
<path d="M144.96 117.668C144.833 118.216 144.494 118.698 144.004 119.001C143.357 119.399 142.547 119.424 141.877 119.063L120.209 107.389C112.167 109.686 103.62 109.903 95.4313 108.009C68.8021 101.849 52.1396 75.1748 58.2875 48.5453C61.2747 35.6302 69.1079 24.6552 80.3426 17.6407C91.5778 10.6278 104.873 8.40873 117.778 11.392C144.408 17.5525 161.071 44.2275 154.924 70.8556L154.919 70.8764C153.12 78.6537 149.445 85.9272 144.269 91.9642L145.013 117.127C145.018 117.312 145 117.494 144.96 117.668Z" fill="#E5E5E5"/>
<path d="M142.886 117.19L120.447 105.1C112.502 107.528 104.058 107.82 95.9107 105.936C70.4247 100.041 54.4766 74.5116 60.3609 49.0239C63.2216 36.6567 70.716 26.1587 81.4693 19.4456C92.2224 12.7333 104.947 10.6088 117.298 13.4651C142.784 19.3606 158.734 44.8936 152.851 70.3769C152.85 70.3784 152.851 70.3761 152.851 70.3769L152.846 70.397C151.056 78.1349 147.36 85.2901 142.117 91.1934L142.886 117.19ZM134.011 88.1263L135.167 86.9141C140.031 81.8229 143.444 75.4864 145.04 68.5894L145.044 68.5745C149.934 47.3925 136.677 26.1722 115.493 21.2722C105.227 18.8982 94.6506 20.6628 85.7132 26.2424C76.7757 31.8227 70.5465 40.5473 68.1719 50.8124C63.2777 72.0115 76.533 93.2305 97.7161 98.1296C104.975 99.8086 112.514 99.4098 119.52 96.9745L121.185 96.3959L134.467 103.553L134.011 88.1263Z" fill="white"/>
</g>
<g clip-path="url(#clip1)">
<path d="M2.3231 113C1.76158 113 1.21531 112.778 0.810192 112.368C0.276134 111.828 0.0701406 111.044 0.270794 110.311L6.7718 86.571C2.72441 79.2521 0.590465 70.9727 0.593517 62.5682C0.604961 35.2359 22.8477 13 50.1777 13C63.4338 13.0053 75.8895 18.1689 85.2516 27.5378C94.6121 36.9075 99.765 49.3625 99.7611 62.6078C99.7489 89.9409 77.5062 112.178 50.1777 112.178H50.1563C42.1737 112.175 34.2597 110.23 27.2132 106.545L2.8625 112.931C2.68397 112.977 2.50239 113 2.3231 113Z" fill="#E5E5E5"/>
<path d="M2.32312 110.872L9.0553 86.2879C4.90262 79.0927 2.71832 70.9307 2.72137 62.5689C2.73206 36.41 24.0196 15.1278 50.1777 15.1278C62.8715 15.1331 74.7864 20.0739 83.7463 29.0415C92.7055 38.0091 97.6379 49.9293 97.6333 62.6071C97.6219 88.7652 76.3313 110.05 50.1777 110.05C50.1762 110.05 50.1785 110.05 50.1777 110.05H50.1571C42.2149 110.047 34.4116 108.055 27.4803 104.275L2.32312 110.872ZM28.6453 95.6866L30.0865 96.5403C36.1412 100.134 43.0832 102.034 50.1625 102.038H50.1777C71.9169 102.038 89.611 84.347 89.6202 62.604C89.624 52.0671 85.5255 42.1588 78.0784 34.7056C70.6306 27.2524 60.7284 23.1455 50.1922 23.141C28.4355 23.141 10.7422 40.8297 10.7338 62.572C10.7307 70.0228 12.8151 77.2784 16.764 83.5574L17.7025 85.0497L13.7169 99.6005L28.6453 95.6866Z" fill="white"/>
<path fill-rule="evenodd" clip-rule="evenodd" d="M28.6453 95.6867L30.0865 96.5405C36.1412 100.134 43.0832 102.034 50.1625 102.038H50.1777C71.9169 102.038 89.611 84.3472 89.6202 62.6042C89.624 52.0672 85.5255 42.1589 78.0784 34.7058C70.6306 27.2526 60.7284 23.1457 50.1922 23.1411C28.4355 23.1411 10.7422 40.8299 10.7338 62.5721C10.7307 70.023 12.8151 77.2785 16.764 83.5575L17.7025 85.0498L13.7169 99.6006L28.6453 95.6867ZM28 67.6667C31.3137 67.6667 34 64.9804 34 61.6667C34 58.353 31.3137 55.6667 28 55.6667C24.6863 55.6667 22 58.353 22 61.6667C22 64.9804 24.6863 67.6667 28 67.6667ZM56 61C56 64.3137 53.3137 67 50 67C46.6863 67 44 64.3137 44 61C44 57.6863 46.6863 55 50 55C53.3137 55 56 57.6863 56 61ZM72 67C75.3137 67 78 64.3137 78 61C78 57.6863 75.3137 55 72 55C68.6863 55 66 57.6863 66 61C66 64.3137 68.6863 67 72 67Z" fill="#64B161"/>
</g>
<defs>
<clipPath id="clip0">
<rect width="100" height="100" fill="white" transform="translate(47 97.437) rotate(-77)"/>
</clipPath>
<clipPath id="clip1">
<rect width="100" height="100" fill="white" transform="translate(0 13)"/>
</clipPath>
</defs>
</svg>
