<svg width="100" height="100" viewBox="0 0 100 100" fill="none" xmlns="http://www.w3.org/2000/svg">
<g clip-path="url(#clip0)">
<path d="M50.9618 14.6782H54.844L57.6364 25.0798C57.8076 25.7172 58.3781 26.1651 59.0363 26.1783C59.0464 26.1785 59.0565 26.1785 59.0663 26.1785C59.7123 26.1785 60.2856 25.7576 60.4791 25.137L66.7148 5.15081H75.5606C76.3784 5.15081 77.0413 4.486 77.0413 3.66598C77.0413 2.84596 76.3784 2.18115 75.5606 2.18115H65.6266C64.9792 2.18115 64.4067 2.60304 64.2134 3.22251L59.1726 19.3788L57.4084 12.8072C57.2344 12.1588 56.6481 11.7084 55.9786 11.7084H50.9616C50.1439 11.7084 49.481 12.3732 49.481 13.1932C49.481 14.0132 50.1441 14.6782 50.9618 14.6782Z" fill="#021729"/>
<path d="M72.3151 18.7531C69.8329 22.3096 68.3514 24.2549 67.5556 25.2998C66.5833 26.5766 66.2194 27.0543 66.4774 27.8957C66.6269 28.3831 66.9961 28.7573 67.4898 28.9224C67.6904 28.9895 67.9098 29.063 70.9027 29.063C72.0908 29.063 73.7162 29.0513 75.9509 29.0232C76.7686 29.0129 77.4231 28.3398 77.4128 27.5197C77.4026 26.6997 76.7236 26.0488 75.9136 26.0537C74.0981 26.0767 72.1607 26.0909 70.6761 26.0897C71.5588 24.9159 72.8707 23.1359 74.7411 20.4559C75.7195 19.0542 76.3562 17.7345 76.634 16.5334C76.6452 16.4847 76.6541 16.4356 76.6602 16.3861L76.7376 15.7791C76.7457 15.7167 76.7497 15.6538 76.7497 15.591C76.7497 12.5582 74.2892 10.0908 71.2648 10.0908C68.6497 10.0908 66.3864 11.9564 65.883 14.5265C65.7255 15.3311 66.2482 16.1117 67.0506 16.2697C67.8521 16.4277 68.6312 15.9036 68.7889 15.0988C69.0203 13.9177 70.0615 13.0605 71.265 13.0605C72.6284 13.0605 73.7429 14.1505 73.7871 15.5073L73.7332 15.9302C73.5314 16.7442 73.0547 17.6935 72.3151 18.7531Z" fill="#021729"/>
<path d="M8.92897 45.6575C9.88372 45.997 10.8853 46.1679 11.8872 46.1679C14.1436 46.1679 16.3999 45.3067 18.1175 43.5841C20.598 41.0965 21.2866 37.4828 20.1848 34.3692C24.5577 28.7833 24.0812 26.9837 23.1466 26.0467C22.2113 25.1089 20.4164 24.6306 14.8456 29.0155C11.7407 27.911 8.1373 28.6014 5.65685 31.0888C3.17639 33.5761 2.48777 37.1896 3.58941 40.3032C-0.78455 45.8903 -0.30757 47.6907 0.627633 48.6285C0.972535 48.9744 1.43372 49.2579 2.15886 49.2579C3.39929 49.2579 5.41145 48.427 8.92897 45.6575ZM16.0236 41.4843C14.8717 42.6395 13.3547 43.2105 11.8414 43.1986C12.8471 42.2962 13.8678 41.3291 14.8683 40.3258C15.8687 39.3226 16.8331 38.2991 17.733 37.2906C17.7446 38.8081 17.1754 40.3291 16.0236 41.4843ZM20.3214 28.8787C19.9846 29.5226 19.4354 30.417 18.5748 31.5877C18.4291 31.4174 18.2784 31.2501 18.1175 31.089C17.9566 30.9276 17.7896 30.7764 17.6198 30.6302C18.7874 29.7671 19.6794 29.2163 20.3214 28.8787ZM7.75093 33.1887C8.89126 32.0452 10.3893 31.4732 11.8872 31.4732C13.3853 31.4732 14.8831 32.045 16.0236 33.1887C16.2704 33.4362 16.4888 33.7013 16.6823 33.9786C15.5186 35.3603 14.184 36.8125 12.7744 38.226C11.3646 39.6396 9.9163 40.9781 8.53866 42.1448C8.26207 41.951 7.99772 41.7318 7.75093 41.4843C5.47028 39.1971 5.47028 35.4757 7.75093 33.1887ZM5.19941 43.085C5.34531 43.2552 5.49614 43.4227 5.65685 43.5841C5.81755 43.7452 5.98457 43.8965 6.15436 44.0426C4.98639 44.906 4.09422 45.4571 3.452 45.7951C3.78881 45.1511 4.33824 44.2564 5.19941 43.085Z" fill="#021729"/>
<path d="M93.8107 26.5042C93.8055 26.4906 93.8002 26.4771 93.7947 26.4634C93.5078 25.7644 92.8358 25.313 92.0822 25.313C92.0816 25.313 92.081 25.313 92.0804 25.313C91.3259 25.3138 90.6538 25.7668 90.3681 26.4668C90.3636 26.4781 90.3591 26.4894 90.3549 26.5007L84.2055 42.6918C83.9145 43.4582 84.2979 44.316 85.0621 44.6078C85.8268 44.9 86.6818 44.515 86.9728 43.7488L88.1412 40.6726H95.9776L97.1337 43.7447C97.3576 44.3392 97.9209 44.7056 98.5195 44.7056C98.6932 44.7056 98.8699 44.6747 99.0418 44.6096C99.8069 44.3202 100.193 43.4633 99.9044 42.6962L93.8107 26.5042ZM89.2689 37.703L92.0771 30.3089L94.8598 37.703H89.2689Z" fill="#021729"/>
<path d="M97.4609 49.5697C96.8826 48.9898 95.945 48.9898 95.367 49.5697L94.6541 50.2846L93.9412 49.5697C93.3629 48.9898 92.4253 48.9898 91.8473 49.5697C91.269 50.1495 91.269 51.0897 91.8473 51.6694L92.5602 52.3843L91.8473 53.0992C91.269 53.6791 91.269 54.6193 91.8473 55.199C92.1363 55.4888 92.5154 55.6339 92.8942 55.6339C93.2731 55.6339 93.6521 55.489 93.9412 55.199L94.6541 54.4841L95.367 55.199C95.656 55.4888 96.035 55.6339 96.4139 55.6339C96.7928 55.6339 97.1718 55.489 97.4609 55.199C98.0391 54.6191 98.0391 53.6789 97.4609 53.0992L96.748 52.3843L97.4609 51.6694C98.0391 51.0897 98.0391 50.1495 97.4609 49.5697Z" fill="#021729"/>
<path d="M43.3268 24.8226C43.6158 25.1126 43.9948 25.2575 44.3737 25.2575C44.7526 25.2575 45.1316 25.1126 45.4207 24.8226L46.1334 24.1079L46.8461 24.8226C47.1351 25.1126 47.5142 25.2575 47.893 25.2575C48.2719 25.2575 48.6509 25.1126 48.94 24.8226C49.5182 24.2427 49.5182 23.3027 48.94 22.7228L48.2272 22.0081L48.94 21.2934C49.5182 20.7136 49.5182 19.7736 48.94 19.1937C48.3617 18.6138 47.4241 18.6138 46.8461 19.1937L46.1334 19.9084L45.4207 19.1937C44.8424 18.6138 43.9048 18.6138 43.3268 19.1937C42.7485 19.7736 42.7485 20.7136 43.3268 21.2934L44.0395 22.0081L43.3268 22.7228C42.7485 23.3025 42.7485 24.2427 43.3268 24.8226Z" fill="#021729"/>
<path d="M7.77946 53.3817C7.2014 52.8018 6.26383 52.8018 5.68557 53.3817L4.97267 54.0964L4.25976 53.3817C3.68151 52.8018 2.74393 52.8018 2.16587 53.3817C1.58761 53.9616 1.58761 54.9017 2.16587 55.4814L2.87858 56.1961L2.16587 56.9108C1.58761 57.4907 1.58761 58.4307 2.16587 59.0106C2.4549 59.3006 2.83396 59.4455 3.21282 59.4455C3.59168 59.4455 3.97073 59.3006 4.25976 59.0106L4.97267 58.2959L5.68557 59.0106C5.9746 59.3004 6.35366 59.4455 6.73251 59.4455C7.11137 59.4455 7.49043 59.3006 7.77946 59.0106C8.35772 58.4307 8.35772 57.4905 7.77946 56.9108L7.06676 56.1961L7.77946 55.4814C8.35772 54.9015 8.35772 53.9616 7.77946 53.3817Z" fill="#021729"/>
<path d="M17.9475 15.6647H20.8021V18.5272C20.8021 19.3473 21.465 20.0121 22.2827 20.0121C23.1005 20.0121 23.7634 19.3473 23.7634 18.5272V15.6647H26.6178C27.4355 15.6647 28.0985 14.9999 28.0985 14.1799C28.0985 13.3598 27.4355 12.695 26.6178 12.695H23.7634V9.83248C23.7634 9.01246 23.1005 8.34766 22.2827 8.34766C21.465 8.34766 20.8021 9.01246 20.8021 9.83248V12.695H17.9475C17.1298 12.695 16.4668 13.3598 16.4668 14.1799C16.4668 14.9999 17.1298 15.6647 17.9475 15.6647Z" fill="#021729"/>
<path d="M90.1015 19.9909C95.5593 19.9909 99.9996 15.5382 99.9996 10.0651C99.9996 4.59206 95.5593 0.13916 90.1015 0.13916C84.6437 0.13916 80.2034 4.59186 80.2034 10.0649C80.2034 15.538 84.6437 19.9909 90.1015 19.9909ZM90.1015 3.10882C93.9264 3.10882 97.0382 6.22933 97.0382 10.0649C97.0382 13.9005 93.9264 17.0211 90.1015 17.0211C86.2766 17.0211 83.1647 13.9005 83.1647 10.0649C83.1647 6.22933 86.2766 3.10882 90.1015 3.10882Z" fill="#021729"/>
<path d="M90.1015 11.5498H92.318C93.1358 11.5498 93.7987 10.885 93.7987 10.0649C93.7987 9.24491 93.1358 8.5801 92.318 8.5801H91.5822V5.81832C91.5822 4.9983 90.9193 4.3335 90.1015 4.3335C89.2838 4.3335 88.6208 4.9983 88.6208 5.81832V10.0649C88.6208 10.885 89.2838 11.5498 90.1015 11.5498Z" fill="#021729"/>
<path d="M6.11981 12.0355H9.97118L7.07337 18.0803C6.719 18.8194 7.02915 19.7065 7.76634 20.0619C7.97324 20.1617 8.19159 20.2088 8.40678 20.2088C8.95819 20.2088 9.48749 19.8986 9.74237 19.367L13.6605 11.1941C13.8812 10.734 13.8504 10.1925 13.5795 9.76035C13.3087 9.32817 12.835 9.06585 12.3261 9.06585H8.4745L11.3723 3.02101C11.7267 2.28197 11.4165 1.39483 10.6793 1.03946C9.94255 0.684291 9.05769 0.995313 8.70332 1.73436L4.78541 9.90745C4.56469 10.3675 4.59549 10.909 4.86636 11.3412C5.13722 11.7734 5.61065 12.0355 6.11981 12.0355Z" fill="#021729"/>
<path d="M32.4612 20.3639H32.4677C32.4677 20.3639 36.3587 20.3465 37.4313 20.3465C40.4097 20.3465 42.8329 17.9165 42.8329 14.9298C42.8329 13.1154 41.9378 11.5078 40.568 10.5242C41.1688 9.7165 41.525 8.71573 41.525 7.63299C41.525 4.9609 39.3572 2.78711 36.6924 2.78711H32.4612C31.6434 2.78711 30.9805 3.45192 30.9805 4.27194V10.9982V11.0091V18.8793C30.9805 19.2742 31.1374 19.653 31.4164 19.9315C31.694 20.2085 32.0697 20.3639 32.4612 20.3639ZM37.4313 17.3768C36.7941 17.3768 35.1641 17.383 33.9418 17.3879V12.4876C34.3314 12.486 34.755 12.4844 35.1584 12.483H37.4313C38.7768 12.483 39.8715 13.5808 39.8715 14.93C39.8715 16.2792 38.7768 17.3768 37.4313 17.3768ZM36.6924 5.75657C37.7241 5.75657 38.5636 6.59817 38.5636 7.63279C38.5636 8.66742 37.7243 9.50922 36.6924 9.50922C36.3801 9.50922 35.7907 9.511 35.1489 9.51318H33.942V5.75657H36.6924Z" fill="#021729"/>
<path d="M76.1244 38.559C75.5014 38.0278 74.567 38.1038 74.0373 38.7286C73.5076 39.3534 73.5834 40.2905 74.2065 40.8216C82.5773 47.9567 87.3781 58.4109 87.3781 69.5036C87.3781 77.7887 84.7474 83.3222 79.161 86.6533C79.3656 85.7309 79.5002 84.7809 79.5502 83.8062C79.9332 76.3294 79.8621 68.7507 79.346 61.2693C79.53 60.2901 79.625 59.2834 79.625 58.2747C79.625 52.4573 76.5479 47.0209 70.9604 42.9665C65.5174 39.0171 58.305 36.8419 50.652 36.8419C49.088 36.8419 47.5446 36.932 46.069 37.1092C42.467 37.5295 39.0482 38.4376 35.9073 39.8086C31.6945 41.647 28.156 44.2655 25.675 47.3806C23.0607 50.6631 21.6789 54.43 21.6789 58.2745C21.6789 59.28 21.7735 60.2881 21.9575 61.2729C21.6372 65.9253 21.4866 70.6107 21.5131 75.2097C21.5178 76.0267 22.1798 76.686 22.9935 76.686H23.0022C23.82 76.6812 24.479 76.0127 24.4744 75.1926C24.4616 72.9751 24.4918 70.7368 24.5615 68.4921C25.2181 68.6746 25.8898 68.7697 26.576 68.7697C27.2479 68.7697 27.9333 68.682 28.6298 68.5064C32.5132 67.5276 35.9946 63.9022 38.2881 60.9335C38.6669 61.4839 39.1526 61.8518 39.5735 62.0901C42.8516 63.9464 47.6496 60.865 51.0968 57.9528C54.7668 54.8525 58.4043 50.6843 60.8155 46.853C68.8991 49.3087 74.9827 54.6006 76.3653 61.0547C76.8999 68.5533 76.9767 76.156 76.5927 83.6538C76.2237 90.8502 70.5312 96.5316 63.3506 96.8695C54.9237 97.2694 46.3784 97.2692 37.9511 96.8695C30.7703 96.5316 25.0786 90.8502 24.7115 83.6554C24.6632 82.6958 24.6261 81.8528 24.5978 81.0785C24.568 80.2589 23.8822 79.6198 23.064 79.6489C22.2467 79.6788 21.6084 80.3676 21.6384 81.187C21.6672 81.9751 21.705 82.8316 21.7539 83.806C21.805 84.8088 21.9452 85.7858 22.1598 86.7329C16.4801 83.4093 13.8056 77.8511 13.8056 69.5034C13.8056 48.8777 30.3078 32.0976 50.5918 32.0976C57.3177 32.0976 63.8963 33.9598 69.6165 37.4828C70.3136 37.912 71.2251 37.6932 71.6532 36.9945C72.081 36.2959 71.863 35.3814 71.1663 34.9522C64.9796 31.142 57.8648 29.1279 50.5916 29.1279C28.6747 29.1279 10.844 47.2403 10.844 69.5034C10.844 80.2488 15.0286 87.2063 23.6259 90.7572C26.3134 95.9555 31.6025 99.5436 37.8115 99.8358C42.0719 100.038 46.361 100.139 50.6512 100.139C54.9405 100.139 59.231 100.038 63.49 99.8358C69.7239 99.5426 75.0323 95.927 77.7106 90.6942C86.205 87.1251 90.3395 80.1882 90.3395 69.5034C90.3395 57.5382 85.1584 46.2593 76.1244 38.559ZM49.1889 55.6818C44.7721 59.4127 42.0332 60.0727 41.0295 59.5043C40.4209 59.1597 40.4677 58.1977 41.1691 56.6452C41.4957 55.9223 41.1975 55.07 40.4925 54.7097C39.7871 54.3494 38.9244 54.6092 38.5331 55.2989C38.5201 55.3219 37.2099 57.6184 35.194 60.0555C32.6397 63.1437 30.119 65.0703 27.9049 65.6272C26.759 65.9154 25.6985 65.8384 24.6843 65.392C24.7538 63.9355 24.8387 62.4789 24.9423 61.0258C26.1036 55.6656 30.5103 50.964 37.0889 48.091C39.9619 46.8376 43.0982 46.0065 46.4163 45.6194C47.7811 45.4557 49.2063 45.3725 50.6522 45.3725C53.1124 45.3725 55.5047 45.621 57.7789 46.0849C55.5429 49.418 52.3296 53.0287 49.1889 55.6818ZM69.5713 47.5828C64.3253 44.2425 57.6065 42.4031 50.6522 42.4031C49.0892 42.4031 47.5456 42.4932 46.0694 42.6704C42.4668 43.0905 39.048 43.998 35.9071 45.368C31.7253 47.1943 28.3074 49.7116 25.87 52.6805C26.4072 51.4863 27.1162 50.3305 27.9892 49.2343C30.1703 46.4957 33.3171 44.1779 37.0893 42.532C39.9628 41.2778 43.0993 40.4457 46.4165 40.0588C47.7805 39.8951 49.2055 39.812 50.6524 39.812C62.2877 39.812 72.1631 45.2629 75.4771 52.7555C73.9054 50.8264 71.9183 49.0771 69.5713 47.5828Z" fill="#021729"/>
<path d="M50.6521 85.8737C53.6113 85.8737 56.3433 84.1412 57.6121 81.4596C57.9628 80.7188 57.6481 79.8332 56.9091 79.4816C56.1705 79.13 55.2873 79.4456 54.9366 80.1866C54.1554 81.8374 52.4736 82.9043 50.6519 82.9043C48.8303 82.9043 47.1484 81.8376 46.367 80.1866C46.0164 79.4458 45.1337 79.13 44.3945 79.4818C43.6558 79.8334 43.3411 80.719 43.6917 81.4598C44.9609 84.141 47.6931 85.8737 50.6521 85.8737Z" fill="#021729"/>
<path d="M59.9731 75.8832C60.2491 76.3555 60.7429 76.6196 61.2506 76.6196C61.5033 76.6196 61.7596 76.5541 61.9941 76.4163C62.0848 76.365 64.2521 75.1692 67.5977 75.8152C68.4002 75.9703 69.1771 75.4434 69.3316 74.6381C69.4862 73.8329 68.9607 73.0543 68.1578 72.8992C67.2225 72.7187 66.3519 72.6522 65.5563 72.6593C65.7983 72.0852 65.9407 71.4079 65.9407 70.6807C65.9407 68.6261 64.8221 66.9546 63.447 66.9546C62.0719 66.9546 60.9533 68.6261 60.9533 70.6807C60.9533 71.7136 61.2362 72.649 61.6921 73.3245C60.9705 73.5819 60.5523 73.8216 60.5069 73.8483C59.8015 74.2627 59.5597 75.1756 59.9731 75.8832Z" fill="#021729"/>
<path d="M33.1467 72.899C32.3437 73.0542 31.8182 73.8326 31.9728 74.6378C32.1276 75.443 32.9034 75.9702 33.7068 75.815C37.0357 75.1717 39.1985 76.3531 39.3089 76.415C39.5417 76.5497 39.7961 76.6138 40.0473 76.6138C40.5554 76.6138 41.0504 76.3511 41.326 75.8797C41.7396 75.1723 41.5029 74.2626 40.7975 73.8479C40.7521 73.8211 40.3339 73.5816 39.6123 73.324C40.0682 72.6485 40.3511 71.7129 40.3511 70.6802C40.3511 68.6256 39.2325 66.9541 37.8574 66.9541C36.4824 66.9541 35.3637 68.6256 35.3637 70.6802C35.3637 71.4076 35.5061 72.0847 35.7481 72.659C34.9527 72.6521 34.0819 72.7184 33.1467 72.899Z" fill="#021729"/>
</g>
<defs>
<clipPath id="clip0">
<rect width="100" height="100" fill="white"/>
</clipPath>
</defs>
</svg>
