<svg width="80" height="80" viewBox="0 0 80 80" fill="none" xmlns="http://www.w3.org/2000/svg">
<g clip-path="url(#clip0)">
<path d="M72.2097 35.5445C71.1934 34.5343 69.5523 34.5343 68.536 35.5445L60.7196 43.3609L64.3933 47.0346L67.4938 43.9341C65.321 61.0644 49.6728 73.1897 32.5425 71.0169C15.4123 68.8441 3.28695 53.1959 5.45974 36.0656C7.44185 20.4399 20.738 8.72833 36.4888 8.73436V3.52344C16.3434 3.5166 0.00684148 19.8421 2.14815e-06 39.9875C-0.00683718 60.1329 16.3187 76.4695 36.4641 76.4763C55.2519 76.4827 70.9713 62.2174 72.7829 43.5173L76.3263 47.0607L80 43.387L72.2097 35.5445Z" fill="black"/>
<path d="M36.4888 26.9727V40C36.4847 40.6925 36.7567 41.358 37.2444 41.8498L45.0608 49.6662L48.7345 45.9925L41.6997 38.9317V26.9727H36.4888Z" fill="black"/>
</g>
<defs>
<clipPath id="clip0">
<rect width="80" height="80" fill="white"/>
</clipPath>
</defs>
</svg>
