<svg width="30" height="30" viewBox="0 0 30 30" fill="none" xmlns="http://www.w3.org/2000/svg">
<g clip-path="url(#clip0)">
<path d="M0.69693 30C0.528473 30 0.364594 29.9334 0.243058 29.8105C0.0828402 29.6484 0.0210422 29.4131 0.0812381 29.1932L2.03154 22.0713C0.817322 19.8756 0.17714 17.3918 0.178055 14.8705C0.181488 6.67076 6.85431 0 15.0533 0C19.0301 0.00160218 22.7669 1.55067 25.5755 4.36134C28.3836 7.17224 29.9295 10.9087 29.9283 14.8824C29.9247 23.0823 23.2519 29.7535 15.0533 29.7535C15.0533 29.7535 15.0471 29.7535 15.0469 29.7535C12.6521 29.7526 10.2779 29.1689 8.16397 28.0634L0.85875 29.9792C0.805191 29.9931 0.750718 30 0.69693 30Z" fill="#E5E5E5"/>
<path d="M0.697021 29.3615L2.71668 21.9862C1.47087 19.8276 0.815582 17.3791 0.816498 14.8705C0.819702 7.02284 7.20596 0.638184 15.0534 0.638184C18.8615 0.639786 22.436 2.12202 25.124 4.8123C27.8117 7.50258 29.2915 11.0786 29.2901 14.882C29.2867 22.7294 22.8995 29.115 15.0534 29.115C15.0529 29.115 15.0536 29.115 15.0534 29.115H15.0472C12.6646 29.1141 10.3236 28.5164 8.24417 27.3823L0.697021 29.3615ZM8.59367 24.8058L9.02603 25.0619C10.8424 26.14 12.925 26.7101 15.0488 26.7113H15.0534C21.5752 26.7113 26.8834 21.4039 26.8861 14.881C26.8873 11.72 25.6577 8.74747 23.4236 6.51152C21.1893 4.27557 18.2186 3.0435 15.0578 3.04213C8.53073 3.04213 3.22273 8.34875 3.22022 14.8714C3.2193 17.1067 3.8446 19.2834 5.0293 21.1671L5.31082 21.6147L4.11514 25.98L8.59367 24.8058Z" fill="#FBFBFB"/>
<path d="M1.19189 28.8648L3.14174 21.7445C1.93874 19.6608 1.30634 17.2966 1.30702 14.8753C1.31 7.2993 7.47539 1.13574 15.0507 1.13574C18.7274 1.13734 22.1783 2.56831 24.7727 5.16544C27.3677 7.76256 28.796 11.2148 28.7946 14.886C28.7914 22.4623 22.6258 28.6265 15.0514 28.6265C15.0507 28.6265 15.0516 28.6265 15.0514 28.6265H15.0452C12.7452 28.6256 10.485 28.0484 8.47766 26.9543L1.19189 28.8648Z" fill="#64B161"/>
<path d="M0.697021 29.3615L2.71668 21.9862C1.47087 19.8276 0.815582 17.3791 0.816498 14.8705C0.819702 7.02284 7.20596 0.638184 15.0534 0.638184C18.8615 0.639786 22.436 2.12202 25.124 4.8123C27.8117 7.50258 29.2915 11.0786 29.2901 14.882C29.2867 22.7294 22.8995 29.115 15.0534 29.115C15.0529 29.115 15.0536 29.115 15.0534 29.115H15.0472C12.6646 29.1141 10.3236 28.5164 8.24417 27.3823L0.697021 29.3615ZM8.59367 24.8058L9.02603 25.0619C10.8424 26.14 12.925 26.7101 15.0488 26.7113H15.0534C21.5752 26.7113 26.8834 21.4039 26.8861 14.881C26.8873 11.72 25.6577 8.74747 23.4236 6.51152C21.1893 4.27557 18.2186 3.0435 15.0578 3.04213C8.53073 3.04213 3.22273 8.34875 3.22022 14.8714C3.2193 17.1067 3.8446 19.2834 5.0293 21.1671L5.31082 21.6147L4.11514 25.98L8.59367 24.8058Z" fill="#FBFBFB"/>
<path fill-rule="evenodd" clip-rule="evenodd" d="M11.4952 8.92038C11.2287 8.32804 10.9481 8.31614 10.6945 8.30584C10.4872 8.29691 10.2498 8.29737 10.0129 8.29737C9.7758 8.29737 9.39037 8.38663 9.06444 8.74254C8.73828 9.09845 7.81909 9.95905 7.81909 11.7093C7.81909 13.4598 9.09396 15.151 9.2718 15.3886C9.44965 15.6259 11.7327 19.3324 15.3484 20.7584C18.3534 21.9435 18.9647 21.7078 19.617 21.6485C20.2693 21.5892 21.7216 20.7879 22.018 19.9573C22.3146 19.1267 22.3146 18.4149 22.2256 18.2659C22.1366 18.1178 21.8994 18.0287 21.5438 17.8509C21.1881 17.6731 19.4392 16.8122 19.113 16.6937C18.7869 16.5749 18.5498 16.5158 18.3126 16.872C18.0753 17.2277 17.3941 18.0287 17.1865 18.2659C16.9789 18.5037 16.7713 18.5334 16.4157 18.3554C16.06 18.1771 14.9142 17.8017 13.5551 16.5898C12.4977 15.647 11.7836 14.4824 11.576 14.1263C11.3686 13.7706 11.5725 13.5948 11.7323 13.4005C12.02 13.0506 12.5027 12.4214 12.6213 12.1842C12.7398 11.9467 12.6805 11.7391 12.5917 11.561C12.5027 11.3832 11.8112 9.62397 11.4952 8.92038Z" fill="#FBFBFB"/>
</g>
<defs>
<clipPath id="clip0">
<rect width="30" height="30" fill="white"/>
</clipPath>
</defs>
</svg>
